<svg width="145" height="116" viewBox="0 0 145 116" fill="none" xmlns="http://www.w3.org/2000/svg">
<path d="M120.488 109.531L120.238 112.748L115.157 111.14L117.239 108.727L120.488 109.531Z" fill="#FEB8B8"/>
<path d="M138.982 108.486L138.732 111.622L135.899 112.024L134.233 110.496L136.149 107.521L138.982 108.486Z" fill="#FEB8B8"/>
<path d="M141.065 68.4355C141.065 68.4355 143.314 71.009 140.481 74.9497C137.649 78.8904 134.234 82.7507 134.234 82.7507L127.902 94.3314C127.902 94.3314 124.653 105.671 123.903 105.993C123.153 106.314 122.737 105.027 123.153 106.395C123.57 107.762 123.32 107.681 122.987 107.762C122.654 107.843 121.737 107.682 122.07 108.245C122.404 108.808 122.654 108.808 121.987 108.808C121.321 108.808 121.071 108.406 121.071 108.969C121.071 109.531 120.488 110.818 120.488 110.818C120.488 110.818 116.406 109.692 116.239 109.21C116.072 108.727 117.322 108.486 117.072 108.003C116.822 107.521 116.739 107.521 116.739 106.797C116.739 106.074 117.239 105.913 117.239 105.913C117.239 105.913 117.655 105.752 117.489 105.43C117.322 105.108 116.656 105.269 117.489 104.867C118.322 104.465 121.738 92.1601 121.738 92.1601C121.738 92.1601 121.738 86.0473 122.82 84.0372C123.903 82.027 123.07 67.7116 125.654 67.5508C128.237 67.3899 141.065 68.4355 141.065 68.4355Z" fill="#2F2E41"/>
<path d="M140.231 73.0195L139.732 85.4849C139.732 85.4849 142.231 97.5482 141.398 101.247C140.565 104.947 141.148 104.464 140.648 105.108C140.148 105.751 139.732 105.429 140.148 105.992C140.564 106.555 140.814 106.716 140.148 107.36C139.482 108.004 139.148 109.531 139.148 109.531L134.9 109.129C134.9 109.129 135.983 107.28 135.566 106.878C135.148 106.475 134.066 107.119 134.9 106.235C135.734 105.351 136.233 105.752 135.733 105.35C135.233 104.948 134.483 105.109 135.15 104.466C135.816 103.822 136.566 103.823 135.9 103.581C135.233 103.339 134.483 103.581 134.817 103.098C135.15 102.616 135.566 102.053 135.566 102.053L134.567 94.7346C134.567 94.7346 133.401 92.322 133.734 91.2765C134.067 90.2311 132.317 81.6259 132.317 81.6259L140.231 73.0195Z" fill="#2F2E41"/>
<path d="M138.399 110.094C138.399 110.094 139.232 109.29 139.482 109.772C139.732 110.255 141.564 114.598 140.482 114.919C139.399 115.241 137.816 115.562 136.983 115.321C136.15 115.081 134.401 113.954 132.318 113.954C130.235 113.954 128.486 113.069 128.486 112.748C128.486 112.426 128.153 110.496 129.736 110.496C131.318 110.496 134.234 108.726 134.234 108.726C134.234 108.726 134.9 107.44 135.234 107.52C135.568 107.601 135.317 110.174 135.317 110.174C135.317 110.174 137.232 111.944 138.399 110.094Z" fill="#2F2E41"/>
<path d="M119.905 111.139C119.905 111.139 120.655 109.37 121.405 109.772C122.155 110.174 121.655 115.16 121.655 115.16C121.655 115.16 120.989 116.205 119.072 115.964C117.155 115.723 112.075 115.16 110.908 115.401C109.742 115.642 106.577 114.275 107.41 112.425C107.41 112.425 107.826 111.38 109.825 111.46C111.825 111.541 115.49 109.208 115.49 109.208C115.49 109.208 116.073 107.6 116.24 107.761C116.406 107.922 116.573 110.736 116.573 110.736C116.573 110.736 118.739 112.105 119.905 111.139Z" fill="#2F2E41"/>
<path d="M130.818 36.9909C133.487 36.9909 135.65 34.9025 135.65 32.3264C135.65 29.7502 133.487 27.6619 130.818 27.6619C128.15 27.6619 125.986 29.7502 125.986 32.3264C125.986 34.9025 128.15 36.9909 130.818 36.9909Z" fill="#FEB8B8"/>
<path d="M134.567 32.6479C134.567 32.6479 137.149 37.6341 138.066 38.1167C138.982 38.5993 131.818 41.5749 131.818 41.5749C131.818 41.5749 130.652 36.6692 129.235 35.6238C127.819 34.5783 134.567 32.6479 134.567 32.6479Z" fill="#FEB8B8"/>
<path d="M127.153 73.4216L126.82 76.4776C126.82 76.4776 123.238 75.2714 124.404 73.0195L127.153 73.4216Z" fill="#FEB8B8"/>
<path d="M125.737 68.8376C128.236 71.4104 141.481 69.239 141.481 69.239L141.315 67.3895L142.981 65.7018L142.482 57.8199C142.482 57.8199 143.98 54.1209 144.23 48.4914C144.245 48.1454 144.223 47.7988 144.165 47.457C143.306 42.414 134.801 39.166 134.567 39.2423C134.449 39.2797 133.197 39.9096 131.891 40.5723C130.391 41.333 128.82 42.1375 128.82 42.1375C126.82 42.8625 127.153 54.4434 126.486 55.4886C125.82 56.5339 126.486 60.1515 126.486 60.1515L125.737 63.6094C125.737 63.6094 123.237 66.2648 125.737 68.8376Z" fill="#F0F0F0"/>
<path opacity="0.1" d="M133.811 43.3069C133.811 43.3069 136.143 50.0623 135.643 54.6464C135.143 59.2305 129.729 72.3392 129.729 72.3392L127.897 73.3042V75.5559L126.608 72.1852L130.153 65.0297C130.153 65.0297 125.729 40.3314 133.811 43.3069Z" fill="black"/>
<path opacity="0.1" d="M131.623 41.2801C134.04 39.9936 137.706 43.3726 141.537 46.9904C142.913 48.2892 143.709 48.1586 144.166 47.457C143.307 42.414 134.801 39.166 134.567 39.2423C134.45 39.2797 133.198 39.9096 131.891 40.5723L131.623 41.2801Z" fill="black"/>
<path d="M131.624 40.6582L132.624 38.0043C132.624 38.0043 139.455 34.8679 143.953 38.0043L144.703 42.5079C144.703 42.5079 145.369 49.9871 141.537 46.3682C137.706 42.7493 134.04 39.3714 131.624 40.6582Z" fill="#F0F0F0"/>
<path d="M133.567 42.2181C133.567 42.2181 135.9 48.9735 135.4 53.5576C134.9 58.1417 129.485 71.2504 129.485 71.2504L127.653 72.2161V74.468L123.821 73.4225L124.654 70.7687C124.654 70.7687 123.321 69.1602 124.237 68.6776C125.154 68.195 124.987 65.5412 124.987 65.5412C124.987 65.5412 125.487 39.2425 133.567 42.2181Z" fill="#F0F0F0"/>
<path d="M135.126 34.279C135.047 33.9185 135.057 33.5306 134.878 33.2052C134.61 32.7173 133.993 32.5132 133.423 32.4651C132.695 32.404 131.961 32.5256 131.233 32.4774C130.504 32.4293 129.725 32.1611 129.362 31.549C129.217 31.3048 129.146 31.0173 128.954 30.8056C128.555 30.365 127.826 30.4332 127.252 30.622C126.678 30.8108 126.079 31.0867 125.492 30.939C124.999 29.6059 125.606 28.0682 126.657 27.081C127.709 26.0939 129.126 25.5627 130.534 25.1668C132.391 24.6445 134.481 24.3359 136.189 25.2133C138.665 26.4854 139.538 29.8527 139.31 32.3624C139.224 33.3112 139.082 34.3854 138.288 35.0259C137.124 35.9647 135.477 35.8841 135.126 34.279Z" fill="#2F2E41"/>
<path d="M104.81 0.0571289H0.451172V64.5804H104.81V0.0571289Z" fill="#E6E6E6"/>
<path d="M102.167 8.1499H3.77649V60.7631H102.167V8.1499Z" fill="white"/>
<path d="M104.765 0H0.406433V4.28011H104.765V0Z" fill="#1E6BDD"/>
<path d="M3.70124 2.98171C4.15509 2.98171 4.52302 2.62652 4.52302 2.18837C4.52302 1.75021 4.15509 1.39502 3.70124 1.39502C3.24738 1.39502 2.87946 1.75021 2.87946 2.18837C2.87946 2.62652 3.24738 2.98171 3.70124 2.98171Z" fill="white"/>
<path d="M6.82026 2.98171C7.27411 2.98171 7.64204 2.62652 7.64204 2.18837C7.64204 1.75021 7.27411 1.39502 6.82026 1.39502C6.3664 1.39502 5.99847 1.75021 5.99847 2.18837C5.99847 2.62652 6.3664 2.98171 6.82026 2.98171Z" fill="white"/>
<path d="M9.93928 2.98171C10.3931 2.98171 10.7611 2.62652 10.7611 2.18837C10.7611 1.75021 10.3931 1.39502 9.93928 1.39502C9.48542 1.39502 9.11749 1.75021 9.11749 2.18837C9.11749 2.62652 9.48542 2.98171 9.93928 2.98171Z" fill="white"/>
<path d="M20.9903 15.5244L14.4821 21.729L20.9903 27.9334L22.4546 26.5197L17.5333 21.768L22.4958 16.9773L20.9903 15.5244Z" fill="#1E6BDD"/>
<path d="M26.3229 15.5244L32.8309 21.729L26.3229 27.9334L24.8585 26.5197L29.7802 21.7682L24.8174 16.9773L26.3229 15.5244Z" fill="#1E6BDD"/>
<path d="M47.3741 17.0813C46.8418 17.0813 46.4103 17.3769 46.4103 17.7413C46.4103 18.1058 46.8418 18.4014 47.3741 18.4014H92.8092C93.3415 18.4014 93.7729 18.1058 93.7729 17.7413C93.7729 17.3769 93.3415 17.0813 92.8092 17.0813H47.3741Z" fill="#E6E6E6"/>
<path d="M92.3574 53.244H15.9243C15.143 53.244 14.5098 52.8085 14.509 52.2719V39.2485C14.5098 38.7118 15.143 38.2764 15.9243 38.2764H92.3574C93.1387 38.2764 93.7719 38.7118 93.7728 39.2485V52.2717C93.7721 52.8083 93.1387 53.2433 92.3574 53.244ZM15.9243 38.6649C15.4555 38.6649 15.0756 38.9262 15.0751 39.2482V52.2714C15.0751 52.5933 15.4555 52.8543 15.9243 52.8546H92.3574C92.8262 52.8546 93.2061 52.5933 93.2066 52.2714V39.2485C93.2066 38.9265 92.8262 38.6655 92.3574 38.6652L15.9243 38.6649Z" fill="#E6E6E6"/>
<path d="M23.7952 49.0559C25.6838 49.0559 27.2148 47.5778 27.2148 45.7546C27.2148 43.9314 25.6838 42.4534 23.7952 42.4534C21.9067 42.4534 20.3757 43.9314 20.3757 45.7546C20.3757 47.5778 21.9067 49.0559 23.7952 49.0559Z" fill="#E6E6E6"/>
<path d="M33.4398 43.1143C33.2585 43.114 33.0845 43.1834 32.9561 43.307C32.8277 43.4306 32.7555 43.5984 32.7552 43.7735C32.755 43.9485 32.8268 44.1165 32.9549 44.2404C33.0829 44.3644 33.2567 44.4341 33.4381 44.4344H65.673C65.8543 44.4344 66.0282 44.3648 66.1564 44.241C66.2846 44.1172 66.3567 43.9494 66.3567 43.7743C66.3567 43.5992 66.2846 43.4314 66.1564 43.3076C66.0282 43.1838 65.8543 43.1143 65.673 43.1143H33.4398Z" fill="#1E6BDD"/>
<path d="M33.4398 47.0747C33.3501 47.0746 33.2611 47.0916 33.1781 47.1246C33.0951 47.1577 33.0197 47.2062 32.9561 47.2674C32.8277 47.391 32.7555 47.5588 32.7552 47.7339C32.755 47.909 32.8268 48.0769 32.9549 48.2009C33.0829 48.3248 33.2567 48.3946 33.4381 48.3948H47.3096C47.4909 48.395 47.6649 48.3257 47.7933 48.2021C47.9217 48.0785 47.994 47.9107 47.9942 47.7356C47.9944 47.5606 47.9226 47.3926 47.7946 47.2686C47.6665 47.1447 47.4927 47.0749 47.3114 47.0747H33.4398Z" fill="#1E6BDD"/>
<path d="M47.0423 21.0356C46.8705 21.049 46.7102 21.1244 46.5933 21.2467C46.4764 21.369 46.4115 21.5293 46.4115 21.6957C46.4115 21.8621 46.4764 22.0224 46.5933 22.1447C46.7102 22.267 46.8705 22.3424 47.0423 22.3557H76.8193C76.9911 22.3424 77.1514 22.267 77.2683 22.1447C77.3852 22.0224 77.4501 21.8621 77.4501 21.6957C77.4501 21.5293 77.3852 21.369 77.2683 21.2467C77.1514 21.1244 76.9911 21.049 76.8193 21.0356H47.0423Z" fill="#E6E6E6"/>
<path d="M47.2383 24.9902C46.781 24.9902 46.4103 25.2858 46.4103 25.6503C46.4103 26.0147 46.781 26.3103 47.2383 26.3103H86.2707C86.728 26.3103 87.0987 26.0147 87.0987 25.6503C87.0987 25.2858 86.728 24.9902 86.2707 24.9902H47.2383Z" fill="#E6E6E6"/>
</svg>
