<svg width="145" height="101" viewBox="0 0 145 101" fill="none" xmlns="http://www.w3.org/2000/svg">
<g clip-path="url(#clip0_143_598)">
<path d="M84.2016 17.8052C86.9068 17.8052 89.0998 15.6953 89.0998 13.0926C89.0998 10.49 86.9068 8.38013 84.2016 8.38013C81.4964 8.38013 79.3034 10.49 79.3034 13.0926C79.3034 15.6953 81.4964 17.8052 84.2016 17.8052Z" fill="#F2F2F2"/>
<path d="M122.199 87.7443C129.479 82.409 132.957 73.4438 130.78 64.8914C130.725 64.6789 130.668 64.4669 130.608 64.2554C129.165 59.1788 125.594 54.354 120.39 52.7319C116.021 51.3699 111.251 52.4172 106.692 51.8756C97.7434 50.8124 90.8055 43.8462 85.9239 36.5525C81.0422 29.2588 77.2905 21.0946 70.8038 15.069C60.1115 5.13671 42.6698 2.99829 29.4129 9.46344C16.1561 15.9286 7.71165 30.2721 8.07178 44.5672C8.43193 58.8624 17.2527 72.5295 30.0626 79.7808C34.7685 82.4446 40.2112 84.3317 45.6279 83.6714C50.3279 83.0984 54.5983 80.6687 59.2762 79.9474C66.6308 78.8133 73.9386 82.0125 80.2998 85.7406C86.661 89.4687 92.8055 93.8875 100.034 95.6159C107.053 97.294 115.749 92.4704 122.199 87.7443Z" fill="#F2F2F2"/>
<path d="M111.738 9.76364C111.578 9.66128 111.417 9.5642 111.257 9.46537C106.644 6.6266 101.699 4.32041 96.5246 2.59446L95.3249 18.5177H87.7191V0.270035C87.2403 0.174729 86.7579 0.0847171 86.2754 0V18.5177H77.2369C72.2611 18.5177 67.4891 16.616 63.9707 13.231C60.4523 9.84598 58.4757 5.25489 58.4756 0.467729V0.467713C57.9913 0.568315 57.5107 0.675976 57.0301 0.790697V18.5177H49.6683L48.5254 3.33397C43.2081 5.29593 38.1601 7.876 33.4937 11.0168C33.4129 11.0697 33.3322 11.1244 33.2533 11.1774C32.8479 11.4509 32.448 11.7298 32.0499 12.0122V72.7596H53.7463L53.3629 67.6501L51.2533 39.5964H93.7381L91.6284 67.6501L91.245 72.7596H112.701V10.3778C112.382 10.1696 112.061 9.96485 111.738 9.76364ZM57.0301 34.9634H50.9047L49.7729 19.9085H57.0301V34.9634ZM86.2754 34.9634H75.9876V34.6652C75.9876 34.5218 75.9582 34.3798 75.9012 34.2473C75.8441 34.1149 75.7604 33.9946 75.6549 33.8933C75.5495 33.792 75.4243 33.7117 75.2865 33.6569C75.1487 33.6022 75.0011 33.5742 74.8521 33.5744H70.3796C70.2307 33.5744 70.0833 33.6026 69.9457 33.6573C69.8081 33.7121 69.6831 33.7925 69.5778 33.8938C69.4725 33.9951 69.389 34.1153 69.3321 34.2477C69.2751 34.3801 69.2458 34.5219 69.2459 34.6652V34.9634H58.4757V19.9085H86.2754V34.9634ZM87.7191 34.9634V19.9085H95.2203L94.0885 34.9634H87.7191Z" fill="#0070C1"/>
<path d="M0.123337 76.6497C1.717 78.4664 3.44072 80.1737 5.2819 81.7592L139.306 81.9357C141.147 80.3502 142.87 78.6429 144.464 76.8262L0.123337 76.6497Z" fill="#0070C1"/>
<path d="M91.0091 60.2887V75.4149C91.0093 75.6077 91.0889 75.7925 91.2306 75.9288C91.3723 76.0651 91.5644 76.1418 91.7647 76.1419H115.063C115.264 76.1418 115.456 76.0651 115.598 75.9288C115.739 75.7925 115.819 75.6077 115.819 75.4149V60.2887C115.819 60.0961 115.739 59.9115 115.597 59.7754C115.456 59.6393 115.264 59.5627 115.063 59.5625H91.7647C91.5645 59.5627 91.3726 59.6393 91.231 59.7754C91.0894 59.9115 91.0096 60.0961 91.0091 60.2887Z" fill="#0070C1"/>
<path d="M91.5556 60.477V75.2284C91.5558 75.3314 91.5984 75.4301 91.6741 75.5029C91.7498 75.5758 91.8524 75.6168 91.9595 75.6169H114.87C114.977 75.6168 115.079 75.5758 115.155 75.5029C115.231 75.4301 115.273 75.3314 115.273 75.2284V60.477C115.273 60.3739 115.231 60.275 115.155 60.202C115.079 60.129 114.977 60.0879 114.87 60.0876H91.9595C91.8523 60.0879 91.7496 60.129 91.6739 60.202C91.5982 60.275 91.5557 60.3739 91.5556 60.477Z" fill="#273747"/>
<path d="M90.5218 78.365C90.5645 78.4165 90.6187 78.458 90.6805 78.4864C90.7422 78.5148 90.8099 78.5294 90.8783 78.5291H115.826C115.894 78.529 115.961 78.5143 116.023 78.486C116.085 78.4578 116.139 78.4166 116.182 78.3657C116.225 78.3147 116.255 78.2551 116.271 78.1913C116.287 78.1275 116.289 78.0611 116.275 77.9969L115.887 76.2271C115.871 76.1549 115.837 76.0878 115.787 76.0317C115.737 75.9757 115.673 75.9326 115.601 75.9063C115.55 75.8867 115.494 75.8767 115.439 75.8767H91.2641C91.2083 75.8767 91.1531 75.8867 91.1012 75.9063C91.0295 75.9326 90.9658 75.9757 90.9159 76.0317C90.8659 76.0878 90.8314 76.1549 90.8153 76.2271L90.4281 77.9969C90.4143 78.0611 90.4156 78.1274 90.4318 78.1911C90.448 78.2548 90.4787 78.3142 90.5218 78.365Z" fill="#2F2E41"/>
<path d="M114.583 76.6389H115.172C115.221 76.6389 115.261 76.6003 115.261 76.5528V76.2815C115.261 76.234 115.221 76.1954 115.172 76.1954H114.583C114.533 76.1954 114.493 76.234 114.493 76.2815V76.5528C114.493 76.6003 114.533 76.6389 114.583 76.6389Z" fill="#0070C1"/>
<path d="M113.046 76.6389H113.635C113.685 76.6389 113.725 76.6003 113.725 76.5528V76.2815C113.725 76.234 113.685 76.1954 113.635 76.1954H113.046C112.996 76.1954 112.956 76.234 112.956 76.2815V76.5528C112.956 76.6003 112.996 76.6389 113.046 76.6389Z" fill="#0070C1"/>
<path d="M111.509 76.6389H112.098C112.148 76.6389 112.188 76.6003 112.188 76.5528V76.2815C112.188 76.234 112.148 76.1954 112.098 76.1954H111.509C111.46 76.1954 111.42 76.234 111.42 76.2815V76.5528C111.42 76.6003 111.46 76.6389 111.509 76.6389Z" fill="#0070C1"/>
<path d="M109.972 76.6389H110.562C110.611 76.6389 110.651 76.6003 110.651 76.5528V76.2815C110.651 76.234 110.611 76.1954 110.562 76.1954H109.972C109.923 76.1954 109.883 76.234 109.883 76.2815V76.5528C109.883 76.6003 109.923 76.6389 109.972 76.6389Z" fill="#0070C1"/>
<path d="M108.436 76.6389H109.025C109.074 76.6389 109.114 76.6003 109.114 76.5528V76.2815C109.114 76.234 109.074 76.1954 109.025 76.1954H108.436C108.386 76.1954 108.346 76.234 108.346 76.2815V76.5528C108.346 76.6003 108.386 76.6389 108.436 76.6389Z" fill="#0070C1"/>
<path d="M106.899 76.6389H107.488C107.538 76.6389 107.578 76.6003 107.578 76.5528V76.2815C107.578 76.234 107.538 76.1954 107.488 76.1954H106.899C106.849 76.1954 106.809 76.234 106.809 76.2815V76.5528C106.809 76.6003 106.849 76.6389 106.899 76.6389Z" fill="#0070C1"/>
<path d="M105.362 76.6389H105.951C106.001 76.6389 106.041 76.6003 106.041 76.5528V76.2815C106.041 76.234 106.001 76.1954 105.951 76.1954H105.362C105.313 76.1954 105.273 76.234 105.273 76.2815V76.5528C105.273 76.6003 105.313 76.6389 105.362 76.6389Z" fill="#0070C1"/>
<path d="M103.825 76.6389H104.415C104.464 76.6389 104.504 76.6003 104.504 76.5528V76.2815C104.504 76.234 104.464 76.1954 104.415 76.1954H103.825C103.776 76.1954 103.736 76.234 103.736 76.2815V76.5528C103.736 76.6003 103.776 76.6389 103.825 76.6389Z" fill="#0070C1"/>
<path d="M102.289 76.6389H102.878C102.927 76.6389 102.967 76.6003 102.967 76.5528V76.2815C102.967 76.234 102.927 76.1954 102.878 76.1954H102.289C102.239 76.1954 102.199 76.234 102.199 76.2815V76.5528C102.199 76.6003 102.239 76.6389 102.289 76.6389Z" fill="#0070C1"/>
<path d="M100.752 76.6389H101.341C101.391 76.6389 101.431 76.6003 101.431 76.5528V76.2815C101.431 76.234 101.391 76.1954 101.341 76.1954H100.752C100.702 76.1954 100.662 76.234 100.662 76.2815V76.5528C100.662 76.6003 100.702 76.6389 100.752 76.6389Z" fill="#0070C1"/>
<path d="M99.2151 76.6389H99.8044C99.8539 76.6389 99.894 76.6003 99.894 76.5528V76.2815C99.894 76.234 99.8539 76.1954 99.8044 76.1954H99.2151C99.1657 76.1954 99.1256 76.234 99.1256 76.2815V76.5528C99.1256 76.6003 99.1657 76.6389 99.2151 76.6389Z" fill="#0070C1"/>
<path d="M97.6784 76.6389H98.2677C98.3171 76.6389 98.3572 76.6003 98.3572 76.5528V76.2815C98.3572 76.234 98.3171 76.1954 98.2677 76.1954H97.6784C97.6289 76.1954 97.5888 76.234 97.5888 76.2815V76.5528C97.5888 76.6003 97.6289 76.6389 97.6784 76.6389Z" fill="#0070C1"/>
<path d="M96.1416 76.6389H96.7309C96.7804 76.6389 96.8205 76.6003 96.8205 76.5528V76.2815C96.8205 76.234 96.7804 76.1954 96.7309 76.1954H96.1416C96.0922 76.1954 96.0521 76.234 96.0521 76.2815V76.5528C96.0521 76.6003 96.0922 76.6389 96.1416 76.6389Z" fill="#0070C1"/>
<path d="M94.6049 76.6389H95.1942C95.2436 76.6389 95.2837 76.6003 95.2837 76.5528V76.2815C95.2837 76.234 95.2436 76.1954 95.1942 76.1954H94.6049C94.5554 76.1954 94.5153 76.234 94.5153 76.2815V76.5528C94.5153 76.6003 94.5554 76.6389 94.6049 76.6389Z" fill="#0070C1"/>
<path d="M93.0682 76.6389H93.6574C93.7069 76.6389 93.747 76.6003 93.747 76.5528V76.2815C93.747 76.234 93.7069 76.1954 93.6574 76.1954H93.0682C93.0187 76.1954 92.9786 76.234 92.9786 76.2815V76.5528C92.9786 76.6003 93.0187 76.6389 93.0682 76.6389Z" fill="#0070C1"/>
<path d="M91.5314 76.6389H92.1207C92.1701 76.6389 92.2102 76.6003 92.2102 76.5528V76.2815C92.2102 76.234 92.1701 76.1954 92.1207 76.1954H91.5314C91.482 76.1954 91.4419 76.234 91.4419 76.2815V76.5528C91.4419 76.6003 91.482 76.6389 91.5314 76.6389Z" fill="#0070C1"/>
<path d="M114.601 77.3782H115.19C115.239 77.3782 115.28 77.3396 115.28 77.292V77.0208C115.28 76.9732 115.239 76.9346 115.19 76.9346H114.601C114.551 76.9346 114.511 76.9732 114.511 77.0208V77.292C114.511 77.3396 114.551 77.3782 114.601 77.3782Z" fill="#0070C1"/>
<path d="M113.064 77.3782H113.653C113.703 77.3782 113.743 77.3396 113.743 77.292V77.0208C113.743 76.9732 113.703 76.9346 113.653 76.9346H113.064C113.015 76.9346 112.974 76.9732 112.974 77.0208V77.292C112.974 77.3396 113.015 77.3782 113.064 77.3782Z" fill="#0070C1"/>
<path d="M111.527 77.3782H112.116C112.166 77.3782 112.206 77.3396 112.206 77.292V77.0208C112.206 76.9732 112.166 76.9346 112.116 76.9346H111.527C111.478 76.9346 111.438 76.9732 111.438 77.0208V77.292C111.438 77.3396 111.478 77.3782 111.527 77.3782Z" fill="#0070C1"/>
<path d="M109.99 77.3782H110.58C110.629 77.3782 110.669 77.3396 110.669 77.292V77.0208C110.669 76.9732 110.629 76.9346 110.58 76.9346H109.99C109.941 76.9346 109.901 76.9732 109.901 77.0208V77.292C109.901 77.3396 109.941 77.3782 109.99 77.3782Z" fill="#0070C1"/>
<path d="M108.454 77.3782H109.043C109.092 77.3782 109.133 77.3396 109.133 77.292V77.0208C109.133 76.9732 109.092 76.9346 109.043 76.9346H108.454C108.404 76.9346 108.364 76.9732 108.364 77.0208V77.292C108.364 77.3396 108.404 77.3782 108.454 77.3782Z" fill="#0070C1"/>
<path d="M106.917 77.3782H107.506C107.556 77.3782 107.596 77.3396 107.596 77.292V77.0208C107.596 76.9732 107.556 76.9346 107.506 76.9346H106.917C106.868 76.9346 106.827 76.9732 106.827 77.0208V77.292C106.827 77.3396 106.868 77.3782 106.917 77.3782Z" fill="#0070C1"/>
<path d="M105.38 77.3782H105.97C106.019 77.3782 106.059 77.3396 106.059 77.292V77.0208C106.059 76.9732 106.019 76.9346 105.97 76.9346H105.38C105.331 76.9346 105.291 76.9732 105.291 77.0208V77.292C105.291 77.3396 105.331 77.3782 105.38 77.3782Z" fill="#0070C1"/>
<path d="M103.844 77.3782H104.433C104.482 77.3782 104.522 77.3396 104.522 77.292V77.0208C104.522 76.9732 104.482 76.9346 104.433 76.9346H103.844C103.794 76.9346 103.754 76.9732 103.754 77.0208V77.292C103.754 77.3396 103.794 77.3782 103.844 77.3782Z" fill="#0070C1"/>
<path d="M102.307 77.3782H102.896C102.945 77.3782 102.986 77.3396 102.986 77.292V77.0208C102.986 76.9732 102.945 76.9346 102.896 76.9346H102.307C102.257 76.9346 102.217 76.9732 102.217 77.0208V77.292C102.217 77.3396 102.257 77.3782 102.307 77.3782Z" fill="#0070C1"/>
<path d="M100.77 77.3782H101.359C101.409 77.3782 101.449 77.3396 101.449 77.292V77.0208C101.449 76.9732 101.409 76.9346 101.359 76.9346H100.77C100.721 76.9346 100.68 76.9732 100.68 77.0208V77.292C100.68 77.3396 100.721 77.3782 100.77 77.3782Z" fill="#0070C1"/>
<path d="M99.2333 77.3782H99.8225C99.872 77.3782 99.9121 77.3396 99.9121 77.292V77.0208C99.9121 76.9732 99.872 76.9346 99.8225 76.9346H99.2333C99.1838 76.9346 99.1437 76.9732 99.1437 77.0208V77.292C99.1437 77.3396 99.1838 77.3782 99.2333 77.3782Z" fill="#0070C1"/>
<path d="M97.6966 77.3782H98.2858C98.3353 77.3782 98.3754 77.3396 98.3754 77.292V77.0208C98.3754 76.9732 98.3353 76.9346 98.2858 76.9346H97.6966C97.6471 76.9346 97.607 76.9732 97.607 77.0208V77.292C97.607 77.3396 97.6471 77.3782 97.6966 77.3782Z" fill="#0070C1"/>
<path d="M96.1598 77.3782H96.7491C96.7985 77.3782 96.8386 77.3396 96.8386 77.292V77.0208C96.8386 76.9732 96.7985 76.9346 96.7491 76.9346H96.1598C96.1104 76.9346 96.0703 76.9732 96.0703 77.0208V77.292C96.0703 77.3396 96.1104 77.3782 96.1598 77.3782Z" fill="#0070C1"/>
<path d="M94.6231 77.3782H95.2123C95.2618 77.3782 95.3019 77.3396 95.3019 77.292V77.0208C95.3019 76.9732 95.2618 76.9346 95.2123 76.9346H94.6231C94.5736 76.9346 94.5335 76.9732 94.5335 77.0208V77.292C94.5335 77.3396 94.5736 77.3782 94.6231 77.3782Z" fill="#0070C1"/>
<path d="M93.0863 77.3782H93.6756C93.7251 77.3782 93.7651 77.3396 93.7651 77.292V77.0208C93.7651 76.9732 93.7251 76.9346 93.6756 76.9346H93.0863C93.0369 76.9346 92.9968 76.9732 92.9968 77.0208V77.292C92.9968 77.3396 93.0369 77.3782 93.0863 77.3782Z" fill="#0070C1"/>
<path d="M91.5496 77.3782H92.1388C92.1883 77.3782 92.2284 77.3396 92.2284 77.292V77.0208C92.2284 76.9732 92.1883 76.9346 92.1388 76.9346H91.5496C91.5001 76.9346 91.46 76.9732 91.46 77.0208V77.292C91.46 77.3396 91.5001 77.3782 91.5496 77.3782Z" fill="#0070C1"/>
<path d="M101.846 78.2654H107.814C107.863 78.2654 107.903 78.2268 107.903 78.1792V77.908C107.903 77.8604 107.863 77.8218 107.814 77.8218H101.846C101.796 77.8218 101.756 77.8604 101.756 77.908V78.1792C101.756 78.2268 101.796 78.2654 101.846 78.2654Z" fill="#0070C1"/>
<path d="M95.523 63.3149H95.0013C94.8432 63.3149 94.715 63.4383 94.715 63.5905C94.715 63.7426 94.8432 63.866 95.0013 63.866H95.523C95.6812 63.866 95.8094 63.7426 95.8094 63.5905C95.8094 63.4383 95.6812 63.3149 95.523 63.3149Z" fill="white"/>
<path d="M101.489 63.3149H100.968C100.809 63.3149 100.681 63.4383 100.681 63.5905C100.681 63.7426 100.809 63.866 100.968 63.866H101.489C101.647 63.866 101.776 63.7426 101.776 63.5905C101.776 63.4383 101.647 63.3149 101.489 63.3149Z" fill="white"/>
<path d="M103.18 63.3149H102.658C102.5 63.3149 102.372 63.4383 102.372 63.5905C102.372 63.7426 102.5 63.866 102.658 63.866H103.18C103.338 63.866 103.466 63.7426 103.466 63.5905C103.466 63.4383 103.338 63.3149 103.18 63.3149Z" fill="white"/>
<path d="M99.8664 63.269H96.6242C96.466 63.269 96.3378 63.3924 96.3378 63.5446C96.3378 63.6967 96.466 63.8201 96.6242 63.8201H99.8664C100.025 63.8201 100.153 63.6967 100.153 63.5446C100.153 63.3924 100.025 63.269 99.8664 63.269Z" fill="white"/>
<path d="M107.821 63.269H104.579C104.421 63.269 104.293 63.3924 104.293 63.5446C104.293 63.6967 104.421 63.8201 104.579 63.8201H107.821C107.98 63.8201 108.108 63.6967 108.108 63.5446C108.108 63.3924 107.98 63.269 107.821 63.269Z" fill="white"/>
<path d="M97.114 64.5586H96.5923C96.4342 64.5586 96.306 64.682 96.306 64.8341C96.306 64.9863 96.4342 65.1096 96.5923 65.1096H97.114C97.2722 65.1096 97.4004 64.9863 97.4004 64.8341C97.4004 64.682 97.2722 64.5586 97.114 64.5586Z" fill="white"/>
<path d="M103.08 64.5586H102.559C102.4 64.5586 102.272 64.682 102.272 64.8341C102.272 64.9863 102.4 65.1096 102.559 65.1096H103.08C103.238 65.1096 103.367 64.9863 103.367 64.8341C103.367 64.682 103.238 64.5586 103.08 64.5586Z" fill="white"/>
<path d="M104.771 64.5586H104.249C104.091 64.5586 103.963 64.682 103.963 64.8341C103.963 64.9863 104.091 65.1096 104.249 65.1096H104.771C104.929 65.1096 105.057 64.9863 105.057 64.8341C105.057 64.682 104.929 64.5586 104.771 64.5586Z" fill="white"/>
<path d="M101.457 64.5127H98.2152C98.057 64.5127 97.9288 64.6361 97.9288 64.7882C97.9288 64.9404 98.057 65.0637 98.2152 65.0637H101.457C101.616 65.0637 101.744 64.9404 101.744 64.7882C101.744 64.6361 101.616 64.5127 101.457 64.5127Z" fill="white"/>
<path d="M109.413 64.5127H106.17C106.012 64.5127 105.884 64.6361 105.884 64.7882C105.884 64.9404 106.012 65.0637 106.17 65.0637H109.413C109.571 65.0637 109.699 64.9404 109.699 64.7882C109.699 64.6361 109.571 64.5127 109.413 64.5127Z" fill="white"/>
<path d="M98.705 65.8022H98.1833C98.0252 65.8022 97.897 65.9256 97.897 66.0778C97.897 66.2299 98.0252 66.3533 98.1833 66.3533H98.705C98.8632 66.3533 98.9914 66.2299 98.9914 66.0778C98.9914 65.9256 98.8632 65.8022 98.705 65.8022Z" fill="white"/>
<path d="M104.671 65.8022H104.15C103.991 65.8022 103.863 65.9256 103.863 66.0778C103.863 66.2299 103.991 66.3533 104.15 66.3533H104.671C104.829 66.3533 104.958 66.2299 104.958 66.0778C104.958 65.9256 104.829 65.8022 104.671 65.8022Z" fill="white"/>
<path d="M106.362 65.8022H105.84C105.682 65.8022 105.554 65.9256 105.554 66.0778C105.554 66.2299 105.682 66.3533 105.84 66.3533H106.362C106.52 66.3533 106.648 66.2299 106.648 66.0778C106.648 65.9256 106.52 65.8022 106.362 65.8022Z" fill="white"/>
<path d="M103.048 65.7563H99.8062C99.648 65.7563 99.5198 65.8797 99.5198 66.0319C99.5198 66.184 99.648 66.3074 99.8062 66.3074H103.048C103.207 66.3074 103.335 66.184 103.335 66.0319C103.335 65.8797 103.207 65.7563 103.048 65.7563Z" fill="white"/>
<path d="M111.004 65.7563H107.761C107.603 65.7563 107.475 65.8797 107.475 66.0319C107.475 66.184 107.603 66.3074 107.761 66.3074H111.004C111.162 66.3074 111.29 66.184 111.29 66.0319C111.29 65.8797 111.162 65.7563 111.004 65.7563Z" fill="white"/>
<path d="M100.296 67.0459H99.7744C99.6162 67.0459 99.488 67.1692 99.488 67.3214C99.488 67.4736 99.6162 67.5969 99.7744 67.5969H100.296C100.454 67.5969 100.582 67.4736 100.582 67.3214C100.582 67.1692 100.454 67.0459 100.296 67.0459Z" fill="white"/>
<path d="M106.262 67.0459H105.741C105.582 67.0459 105.454 67.1692 105.454 67.3214C105.454 67.4736 105.582 67.5969 105.741 67.5969H106.262C106.42 67.5969 106.549 67.4736 106.549 67.3214C106.549 67.1692 106.42 67.0459 106.262 67.0459Z" fill="white"/>
<path d="M107.953 67.0459H107.431C107.273 67.0459 107.145 67.1692 107.145 67.3214C107.145 67.4736 107.273 67.5969 107.431 67.5969H107.953C108.111 67.5969 108.239 67.4736 108.239 67.3214C108.239 67.1692 108.111 67.0459 107.953 67.0459Z" fill="white"/>
<path d="M104.639 67H101.397C101.239 67 101.111 67.1234 101.111 67.2755C101.111 67.4277 101.239 67.551 101.397 67.551H104.639C104.798 67.551 104.926 67.4277 104.926 67.2755C104.926 67.1234 104.798 67 104.639 67Z" fill="white"/>
<path d="M101.489 71.9915H100.968C100.809 71.9915 100.681 72.1148 100.681 72.267C100.681 72.4191 100.809 72.5425 100.968 72.5425H101.489C101.647 72.5425 101.776 72.4191 101.776 72.267C101.776 72.1148 101.647 71.9915 101.489 71.9915Z" fill="white"/>
<path d="M103.18 71.9915H102.658C102.5 71.9915 102.372 72.1148 102.372 72.267C102.372 72.4191 102.5 72.5425 102.658 72.5425H103.18C103.338 72.5425 103.466 72.4191 103.466 72.267C103.466 72.1148 103.338 71.9915 103.18 71.9915Z" fill="white"/>
<path d="M107.821 72.0374H104.579C104.421 72.0374 104.293 72.1607 104.293 72.3129C104.293 72.465 104.421 72.5884 104.579 72.5884H107.821C107.98 72.5884 108.108 72.465 108.108 72.3129C108.108 72.1607 107.98 72.0374 107.821 72.0374Z" fill="white"/>
<path d="M95.523 71.9915H95.0013C94.8432 71.9915 94.715 72.1148 94.715 72.267C94.715 72.4191 94.8432 72.5425 95.0013 72.5425H95.523C95.6812 72.5425 95.8094 72.4191 95.8094 72.267C95.8094 72.1148 95.6812 71.9915 95.523 71.9915Z" fill="white"/>
<path d="M99.8664 72.0374H96.6242C96.466 72.0374 96.3378 72.1607 96.3378 72.3129C96.3378 72.465 96.466 72.5884 96.6242 72.5884H99.8664C100.025 72.5884 100.153 72.465 100.153 72.3129C100.153 72.1607 100.025 72.0374 99.8664 72.0374Z" fill="white"/>
<path d="M97.114 70.7478H96.5923C96.4342 70.7478 96.306 70.8712 96.306 71.0233C96.306 71.1755 96.4342 71.2988 96.5923 71.2988H97.114C97.2722 71.2988 97.4004 71.1755 97.4004 71.0233C97.4004 70.8712 97.2722 70.7478 97.114 70.7478Z" fill="white"/>
<path d="M103.08 70.7478H102.559C102.4 70.7478 102.272 70.8712 102.272 71.0233C102.272 71.1755 102.4 71.2988 102.559 71.2988H103.08C103.238 71.2988 103.367 71.1755 103.367 71.0233C103.367 70.8712 103.238 70.7478 103.08 70.7478Z" fill="white"/>
<path d="M104.771 70.7478H104.249C104.091 70.7478 103.963 70.8712 103.963 71.0233C103.963 71.1755 104.091 71.2988 104.249 71.2988H104.771C104.929 71.2988 105.057 71.1755 105.057 71.0233C105.057 70.8712 104.929 70.7478 104.771 70.7478Z" fill="white"/>
<path d="M101.457 70.7937H98.2152C98.057 70.7937 97.9288 70.9171 97.9288 71.0692C97.9288 71.2214 98.057 71.3447 98.2152 71.3447H101.457C101.616 71.3447 101.744 71.2214 101.744 71.0692C101.744 70.9171 101.616 70.7937 101.457 70.7937Z" fill="white"/>
<path d="M98.705 69.5042H98.1833C98.0252 69.5042 97.897 69.6275 97.897 69.7797C97.897 69.9318 98.0252 70.0552 98.1833 70.0552H98.705C98.8632 70.0552 98.9914 69.9318 98.9914 69.7797C98.9914 69.6275 98.8632 69.5042 98.705 69.5042Z" fill="white"/>
<path d="M104.671 69.5042H104.15C103.991 69.5042 103.863 69.6275 103.863 69.7797C103.863 69.9318 103.991 70.0552 104.15 70.0552H104.671C104.829 70.0552 104.958 69.9318 104.958 69.7797C104.958 69.6275 104.829 69.5042 104.671 69.5042Z" fill="white"/>
<path d="M106.362 69.5042H105.84C105.682 69.5042 105.554 69.6275 105.554 69.7797C105.554 69.9318 105.682 70.0552 105.84 70.0552H106.362C106.52 70.0552 106.648 69.9318 106.648 69.7797C106.648 69.6275 106.52 69.5042 106.362 69.5042Z" fill="white"/>
<path d="M103.048 69.55H99.8062C99.648 69.55 99.5198 69.6734 99.5198 69.8256C99.5198 69.9777 99.648 70.1011 99.8062 70.1011H103.048C103.207 70.1011 103.335 69.9777 103.335 69.8256C103.335 69.6734 103.207 69.55 103.048 69.55Z" fill="white"/>
<path d="M100.296 68.2603H99.7744C99.6162 68.2603 99.488 68.3836 99.488 68.5358C99.488 68.6879 99.6162 68.8113 99.7744 68.8113H100.296C100.454 68.8113 100.582 68.6879 100.582 68.5358C100.582 68.3836 100.454 68.2603 100.296 68.2603Z" fill="white"/>
<path d="M106.262 68.2603H105.741C105.582 68.2603 105.454 68.3836 105.454 68.5358C105.454 68.6879 105.582 68.8113 105.741 68.8113H106.262C106.42 68.8113 106.549 68.6879 106.549 68.5358C106.549 68.3836 106.42 68.2603 106.262 68.2603Z" fill="white"/>
<path d="M107.953 68.2603H107.431C107.273 68.2603 107.145 68.3836 107.145 68.5358C107.145 68.6879 107.273 68.8113 107.431 68.8113H107.953C108.111 68.8113 108.239 68.6879 108.239 68.5358C108.239 68.3836 108.111 68.2603 107.953 68.2603Z" fill="white"/>
<path d="M104.639 68.3064H101.397C101.239 68.3064 101.111 68.4298 101.111 68.5819C101.111 68.7341 101.239 68.8574 101.397 68.8574H104.639C104.798 68.8574 104.926 68.7341 104.926 68.5819C104.926 68.4298 104.798 68.3064 104.639 68.3064Z" fill="white"/>
<path d="M92.7495 86.5671L90.3006 82.8428L97.9874 76.9474L101.16 73.5656C101.572 73.1262 102.097 72.7986 102.682 72.6156C103.267 72.4325 103.892 72.4003 104.494 72.5223C105.096 72.6443 105.654 72.9161 106.113 73.3107C106.571 73.7052 106.914 74.2087 107.107 74.7707C107.393 75.6035 107.332 76.5106 106.936 77.3006C106.54 78.0906 105.84 78.7017 104.985 79.0049L99.9676 80.7832L92.7495 86.5671Z" fill="#FFB6B6"/>
<path d="M35.2885 59.5633V77.6645H48.4693V59.5633C48.4695 59.4331 48.4263 59.3063 48.3461 59.2015C48.2658 59.0967 48.1528 59.0193 48.0235 58.9809C47.9626 58.9615 47.8987 58.952 47.8345 58.9527H35.9251C35.8416 58.9525 35.7589 58.9682 35.6817 58.9988C35.6045 59.0294 35.5344 59.0744 35.4753 59.1311C35.4161 59.1878 35.3692 59.2552 35.3372 59.3293C35.3051 59.4035 35.2886 59.483 35.2885 59.5633ZM40.4324 65.783C40.4359 65.4261 40.5856 65.085 40.8491 64.8338C41.1126 64.5827 41.4685 64.4418 41.8395 64.4418C42.2104 64.4418 42.5663 64.5827 42.8298 64.8338C43.0933 65.085 43.2431 65.4261 43.2465 65.783V67.8833C43.2446 68.2411 43.0955 68.5836 42.8319 68.836C42.5682 69.0884 42.2114 69.2301 41.8395 69.2301C41.4675 69.2301 41.1107 69.0884 40.8471 68.836C40.5834 68.5836 40.4343 68.2411 40.4324 67.8833V65.783Z" fill="#2F2E41"/>
<path d="M35.2482 77.0857V78.8312C35.2485 78.9216 35.2858 79.0083 35.3521 79.0724C35.4184 79.1365 35.5083 79.1728 35.6022 79.1736H48.1556C48.2497 79.1731 48.3397 79.1369 48.4061 79.0727C48.4724 79.0085 48.5097 78.9217 48.5097 78.8312V77.0857H35.2482Z" fill="#0070C1"/>
<path d="M14.5534 32.2915V65.3417C14.5537 65.7629 14.7278 66.1668 15.0373 66.4646C15.3469 66.7624 15.7666 66.9299 16.2044 66.9302H67.1113C67.5491 66.9299 67.9688 66.7624 68.2784 66.4646C68.5879 66.1668 68.762 65.7629 68.7623 65.3417V32.2915C68.7613 31.8707 68.5869 31.4674 68.2775 31.17C67.968 30.8726 67.5487 30.7054 67.1113 30.7048H16.2044C15.767 30.7054 15.3477 30.8727 15.0382 31.17C14.7288 31.4674 14.5544 31.8707 14.5534 32.2915Z" fill="#0070C1"/>
<path d="M15.7476 32.7028V64.9341C15.748 65.1591 15.8411 65.3748 16.0065 65.5339C16.1719 65.693 16.3961 65.7826 16.63 65.783H66.6875C66.9214 65.7826 67.1456 65.693 67.311 65.5339C67.4764 65.3748 67.5695 65.1591 67.5699 64.9341V32.7028C67.5699 32.4774 67.477 32.2613 67.3115 32.1019C67.1461 31.9424 66.9217 31.8525 66.6875 31.8521H16.63C16.3958 31.8525 16.1714 31.9424 16.006 32.1019C15.8406 32.2613 15.7476 32.4774 15.7476 32.7028Z" fill="white"/>
<path d="M25.0374 79.0554C25.0884 79.1168 25.1532 79.1664 25.2269 79.2003C25.3006 79.2342 25.3813 79.2517 25.463 79.2513H55.244C55.3255 79.2512 55.4059 79.2336 55.4794 79.1999C55.5529 79.1661 55.6176 79.117 55.669 79.0562C55.7203 78.9953 55.7568 78.9242 55.776 78.8481C55.7951 78.7719 55.7964 78.6926 55.7797 78.6159L55.3174 76.5032C55.2983 76.4171 55.257 76.3369 55.1974 76.27C55.1378 76.2031 55.0618 76.1516 54.9762 76.1203C54.9143 76.0969 54.8483 76.0849 54.7817 76.085H25.9235C25.857 76.0849 25.791 76.0969 25.729 76.1203C25.6435 76.1516 25.5674 76.2031 25.5078 76.27C25.4482 76.3369 25.407 76.4171 25.3878 76.5032L24.9255 78.6159C24.9091 78.6925 24.9106 78.7717 24.93 78.8478C24.9493 78.9238 24.986 78.9947 25.0374 79.0554Z" fill="#2F2E41"/>
<path d="M65.063 36.292H18.2244C18.1757 36.291 18.1294 36.2716 18.0953 36.2381C18.0613 36.2046 18.0422 36.1596 18.0422 36.1128C18.0422 36.0659 18.0613 36.021 18.0953 35.9875C18.1294 35.954 18.1757 35.9346 18.2244 35.9336H65.063C65.1117 35.9346 65.158 35.954 65.1921 35.9875C65.2261 36.021 65.2452 36.0659 65.2452 36.1128C65.2452 36.1596 65.2261 36.2046 65.1921 36.2381C65.158 36.2716 65.1117 36.291 65.063 36.292Z" fill="#0070C1"/>
<path d="M21.4127 35.0186C22.0156 35.0186 22.5043 34.5379 22.5043 33.945C22.5043 33.352 22.0156 32.8713 21.4127 32.8713C20.8099 32.8713 20.3212 33.352 20.3212 33.945C20.3212 34.5379 20.8099 35.0186 21.4127 35.0186Z" fill="#0070C1"/>
<path d="M25.1837 35.0186C25.7866 35.0186 26.2753 34.5379 26.2753 33.945C26.2753 33.352 25.7866 32.8713 25.1837 32.8713C24.5808 32.8713 24.0921 33.352 24.0921 33.945C24.0921 34.5379 24.5808 35.0186 25.1837 35.0186Z" fill="#0070C1"/>
<path d="M28.9547 35.0186C29.5575 35.0186 30.0463 34.5379 30.0463 33.945C30.0463 33.352 29.5575 32.8713 28.9547 32.8713C28.3518 32.8713 27.8631 33.352 27.8631 33.945C27.8631 34.5379 28.3518 35.0186 28.9547 35.0186Z" fill="#0070C1"/>
<path d="M62.7922 33.137H60.1139C60.061 33.1381 60.0106 33.1592 59.9736 33.1957C59.9366 33.2321 59.9159 33.281 59.9159 33.332C59.9159 33.3829 59.9366 33.4319 59.9736 33.4683C60.0106 33.5048 60.061 33.5258 60.1139 33.527H62.7922C62.8455 33.5263 62.8963 33.5054 62.9338 33.4689C62.9712 33.4324 62.9921 33.3832 62.9921 33.332C62.9921 33.2807 62.9712 33.2315 62.9338 33.195C62.8963 33.1586 62.8455 33.1377 62.7922 33.137Z" fill="#0070C1"/>
<path d="M62.7923 33.8694H60.1139C60.0609 33.8705 60.0105 33.8916 59.9734 33.928C59.9364 33.9645 59.9156 34.0134 59.9156 34.0644C59.9156 34.1154 59.9364 34.1644 59.9734 34.2008C60.0105 34.2373 60.0609 34.2583 60.1139 34.2594H62.7923C62.8456 34.2588 62.8965 34.238 62.934 34.2015C62.9715 34.165 62.9925 34.1157 62.9925 34.0644C62.9925 34.0131 62.9715 33.9638 62.934 33.9273C62.8965 33.8908 62.8456 33.87 62.7923 33.8694Z" fill="#0070C1"/>
<path d="M62.7922 34.6018H60.1139C60.061 34.603 60.0106 34.6241 59.9736 34.6605C59.9366 34.697 59.9159 34.7459 59.9159 34.7968C59.9159 34.8478 59.9366 34.8967 59.9736 34.9332C60.0106 34.9696 60.061 34.9907 60.1139 34.9919H62.7922C62.8455 34.9911 62.8963 34.9703 62.9338 34.9338C62.9712 34.8973 62.9921 34.8481 62.9921 34.7968C62.9921 34.7456 62.9712 34.6964 62.9338 34.6599C62.8963 34.6234 62.8455 34.6025 62.7922 34.6018Z" fill="#0070C1"/>
<path d="M127.362 77.8516C127.443 78.078 127.596 78.2739 127.8 78.4113C128.004 78.5486 128.248 78.6203 128.497 78.616L133.356 78.4957C133.607 78.491 133.849 78.4084 134.047 78.2602C134.245 78.1121 134.387 77.9063 134.454 77.6737L135.141 70.5986C135.385 70.7049 135.651 70.7574 135.919 70.7523C136.151 70.7467 136.381 70.697 136.593 70.6062C136.806 70.5153 136.998 70.385 137.159 70.2228C137.319 70.0605 137.445 69.8694 137.528 69.6604C137.612 69.4515 137.652 69.2287 137.646 69.0049C137.64 68.781 137.589 68.5604 137.494 68.3558C137.4 68.1511 137.264 67.9663 137.096 67.812C136.927 67.6577 136.728 67.5369 136.511 67.4564C136.294 67.3759 136.062 67.3374 135.83 67.343C135.723 67.3427 135.616 67.3534 135.511 67.3749C135.397 67.2564 135.259 67.1621 135.105 67.0982C134.951 67.0343 134.785 67.0021 134.617 67.0037L127.142 67.1894C127.08 67.1916 127.018 67.199 126.957 67.2115C126.793 67.2409 126.638 67.3037 126.501 67.3958C126.365 67.4879 126.25 67.607 126.165 67.7452C126.081 67.8834 126.028 68.0375 126.01 68.197C125.992 68.3566 126.011 68.5179 126.063 68.6701L127.362 77.8516ZM135.282 70.1182L135.772 68.4322C135.827 68.2374 135.829 68.032 135.775 67.8366C135.799 67.8365 135.82 67.8257 135.844 67.8257C136.179 67.819 136.504 67.9406 136.747 68.1638C136.989 68.3871 137.13 68.6937 137.137 69.0165C137.145 69.3393 137.02 69.6519 136.788 69.8859C136.557 70.1198 136.239 70.2559 135.903 70.2643C135.686 70.2708 135.472 70.2203 135.282 70.1182Z" fill="#2F2E41"/>
<path d="M126.957 67.2114C127.116 68.0876 128.907 68.7035 131.06 68.5964C133.04 68.5087 134.659 67.8398 134.956 67.0471C134.846 67.0158 134.732 67.0012 134.617 67.0037L127.142 67.1894C127.08 67.1916 127.018 67.199 126.957 67.2114Z" fill="#0070C1"/>
<path d="M131.455 73.9639C131.465 73.9615 131.474 73.9576 131.482 73.9522L132.538 73.2876C132.551 73.2796 132.561 73.2686 132.568 73.2558C132.576 73.2429 132.579 73.2285 132.579 73.2138C132.579 73.1992 132.576 73.1847 132.568 73.1718C132.561 73.159 132.551 73.148 132.538 73.14L131.441 72.4487C131.431 72.4423 131.42 72.4379 131.408 72.4357C131.396 72.4335 131.384 72.4335 131.372 72.4359C131.36 72.4382 131.349 72.4428 131.339 72.4493C131.329 72.4559 131.32 72.4642 131.314 72.4739C131.307 72.4836 131.302 72.4945 131.3 72.5059C131.298 72.5173 131.298 72.5291 131.301 72.5404C131.303 72.5518 131.308 72.5626 131.315 72.5722C131.322 72.5817 131.33 72.5899 131.34 72.5963L132.32 73.2137L131.382 73.8046C131.364 73.816 131.35 73.8332 131.344 73.8533C131.338 73.8733 131.34 73.8947 131.348 73.9139C131.357 73.933 131.372 73.9485 131.392 73.9577C131.411 73.9668 131.434 73.9691 131.455 73.9639H131.455Z" fill="#273747"/>
<path d="M129.788 74.0377C129.806 74.0334 129.821 74.0241 129.834 74.011C129.846 73.9978 129.854 73.9815 129.856 73.9641C129.859 73.9467 129.856 73.929 129.848 73.9132C129.84 73.8974 129.827 73.8843 129.811 73.8756L128.838 73.339L129.778 72.667C129.788 72.6601 129.796 72.6514 129.802 72.6415C129.809 72.6316 129.813 72.6206 129.814 72.6091C129.816 72.5976 129.816 72.586 129.813 72.5747C129.81 72.5635 129.804 72.5529 129.797 72.5436C129.79 72.5343 129.781 72.5265 129.771 72.5206C129.76 72.5146 129.749 72.5107 129.737 72.509C129.725 72.5073 129.713 72.5079 129.701 72.5107C129.69 72.5135 129.679 72.5186 129.669 72.5255L128.616 73.2778C128.604 73.2865 128.594 73.298 128.588 73.3113C128.581 73.3246 128.578 73.3392 128.579 73.3538C128.58 73.3684 128.585 73.3826 128.593 73.3951C128.601 73.4075 128.612 73.4178 128.625 73.4251L129.72 74.0287C129.74 74.0401 129.765 74.0433 129.788 74.0377Z" fill="#273747"/>
<path d="M131.35 74.5463C131.359 74.5442 131.367 74.5407 131.375 74.5361C131.385 74.5301 131.394 74.5222 131.401 74.5128C131.408 74.5035 131.414 74.4929 131.416 74.4816C131.419 74.4703 131.42 74.4586 131.418 74.4472C131.416 74.4357 131.412 74.4247 131.406 74.4148L129.91 72.0483C129.897 72.0284 129.876 72.0141 129.853 72.0086C129.829 72.0031 129.804 72.0068 129.783 72.019C129.763 72.0312 129.748 72.0508 129.742 72.0735C129.736 72.0962 129.74 72.1202 129.753 72.1402L131.249 74.5067C131.259 74.5228 131.274 74.5353 131.293 74.5425C131.311 74.5496 131.331 74.5509 131.35 74.5463Z" fill="#273747"/>
<path d="M47.2401 46.0344H39.1334C38.8027 46.0344 38.5346 46.2924 38.5346 46.6105V47.3725C38.5346 47.6907 38.8027 47.9486 39.1334 47.9486H47.2401C47.5708 47.9486 47.8389 47.6907 47.8389 47.3725V46.6105C47.8389 46.2924 47.5708 46.0344 47.2401 46.0344Z" fill="#273747"/>
<path d="M51.9655 49.8628H34.408C34.0773 49.8628 33.8092 50.1207 33.8092 50.4389V51.2009C33.8092 51.5191 34.0773 51.777 34.408 51.777H51.9655C52.2962 51.777 52.5643 51.5191 52.5643 51.2009V50.4389C52.5643 50.1207 52.2962 49.8628 51.9655 49.8628Z" fill="#E6E6E6"/>
<path d="M51.9655 53.6912H34.408C34.0773 53.6912 33.8092 53.9491 33.8092 54.2673V55.0293C33.8092 55.3474 34.0773 55.6054 34.408 55.6054H51.9655C52.2962 55.6054 52.5643 55.3474 52.5643 55.0293V54.2673C52.5643 53.9491 52.2962 53.6912 51.9655 53.6912Z" fill="#E6E6E6"/>
<path d="M53.4538 66.511L53.4936 66.6318L53.4957 66.6358L54.6927 70.1371L56.0697 74.1719L58.6605 81.7544L58.6856 82.9322V82.9362L58.8781 92.4112L58.3445 93.6957L58.9451 95.8017C58.9451 95.8017 58.6688 92.6183 57.1872 94.4465C56.348 95.4854 55.3665 96.5484 54.5608 97.5451C55.7349 98.0021 56.9277 98.4155 58.1394 98.7853C58.401 98.8659 58.6647 98.9424 58.9284 99.0189C58.9849 99.035 59.0414 99.0511 59.0979 99.0672C63.1144 100.21 67.2668 100.852 71.4533 100.978C71.6709 100.984 71.8844 100.988 72.0916 100.992C72.1648 100.994 72.236 100.996 72.3071 100.996C72.5415 100.998 72.7738 101 73.0082 101C73.4811 101 73.952 100.993 74.4207 100.98C77.8903 100.886 81.3397 100.437 84.7106 99.641C84.6876 98.3021 84.6248 96.7377 84.5349 95.0666C84.493 94.2471 83.5534 93.3592 83.4969 92.5015C83.4571 91.8573 84.3005 91.2512 84.2565 90.5969C83.9719 86.5681 83.6162 88.1146 83.3525 85.2617C83.3253 84.9818 83.3001 84.714 83.2771 84.4583C83.1076 82.6261 82.9904 81.4805 82.9904 81.4805L84.1163 74.6531L85.8847 63.9339L85.7486 63.7184L85.5959 63.646L76.2686 59.2044L75.7622 57.9561C75.6146 57.5965 75.3586 57.2876 75.0271 57.0691C74.6955 56.8506 74.3036 56.7325 73.9018 56.73L67.7575 56.7058C67.4387 56.7044 67.1241 56.7762 66.8398 56.9152C66.5556 57.0543 66.3099 57.2565 66.1231 57.5051L64.4594 59.7219L53.4538 66.511Z" fill="#0070C1"/>
<path d="M60.0773 80.0671L58.6856 82.9321L57.7355 84.8891L56.1011 93.1219L55.2828 93.9574L54.5818 90.9995L47.2443 92.5669C47.0036 91.2804 47.1798 92.6104 47.0312 91.1991C47.0731 91.1588 47.117 91.1185 47.161 91.0783C47.2782 90.9736 47.3766 90.8749 47.3745 90.7803C47.2907 85.9119 47.5419 77.6268 49.6388 72.6075C49.9672 71.7879 50.4002 71.0109 50.9279 70.2941C50.9697 70.2397 51.0095 70.1854 51.0493 70.131C52.0161 68.8284 52.6272 67.5458 53.4936 66.6338V66.6318C53.499 66.6276 53.5039 66.6229 53.5082 66.6177C53.5114 66.6162 53.5142 66.6141 53.5166 66.6116L59.4683 63.5754L59.7236 70.4773L59.9057 75.4383L60.0773 80.0671Z" fill="#0070C1"/>
<path d="M81.5379 80.8808L83.2763 84.4592L83.883 85.7054L85.517 93.9373L86.3325 94.7709L87.0352 91.8137L87.3654 91.7485L93.3198 90.562L95.0554 95.865C95.4465 95.238 95.6006 94.5002 95.4916 93.7765C95.3826 93.0527 95.0172 92.3874 94.4571 91.8929C94.3386 91.7898 94.2398 91.6893 94.2426 91.5943C94.3414 85.8683 93.9773 75.4127 90.6897 71.1094C89.6456 69.7437 89.0191 68.3835 88.1076 67.4332C88.1047 67.4305 88.1047 67.4278 88.1019 67.4278L85.8838 63.9335L85.7484 63.719L85.596 63.6458L81.5379 80.8808Z" fill="#0070C1"/>
<path d="M71.0071 55.0234C75.5216 55.0234 79.1812 51.5025 79.1812 47.1592C79.1812 42.8159 75.5216 39.2949 71.0071 39.2949C66.4927 39.2949 62.833 42.8159 62.833 47.1592C62.833 51.5025 66.4927 55.0234 71.0071 55.0234Z" fill="#FFB6B6"/>
<path d="M82.0554 41.6662C81.992 41.6011 81.9157 41.5489 81.8309 41.5128C81.7461 41.4767 81.6546 41.4575 81.5619 41.4562L81.6848 41.1279C81.725 41.0245 81.7358 40.9127 81.7162 40.8039C81.6966 40.6952 81.6474 40.5934 81.5735 40.509C81.4995 40.4246 81.4036 40.3606 81.2955 40.3236C81.1875 40.2866 81.0711 40.2779 80.9584 40.2984L80.5108 40.3813L80.553 40.0936C80.5691 39.9865 80.5561 39.8771 80.515 39.7763C80.4739 39.6755 80.4063 39.5867 80.3187 39.5187C80.2312 39.4507 80.1267 39.4058 80.0157 39.3883C79.9046 39.3709 79.7907 39.3816 79.6853 39.4194C79.5893 39.4557 79.4861 39.471 79.3833 39.4639C79.2804 39.4569 79.1805 39.4278 79.0909 39.3788C79.0009 39.3313 78.9227 39.2655 78.8619 39.1859C78.8011 39.1064 78.759 39.015 78.7387 38.9182L78.5827 38.1945L78.5662 38.1557C77.8067 36.9379 76.3465 36.0519 74.5597 35.7272C72.9692 35.4359 71.3384 35.5842 69.7662 35.7236C69.1425 35.7801 68.438 35.8436 67.851 36.1896C67.352 36.4861 66.9301 37.0791 67.0163 37.6774C65.4662 37.2203 63.8041 38.1328 62.9805 39.2835C62.0045 40.6531 61.8449 42.3686 61.8192 43.71C61.7495 46.8833 62.4301 49.4796 63.8372 51.4281C63.9399 51.5693 63.9656 51.864 64.1692 51.9628L64.127 51.8975C64.3545 52.007 64.5856 52.1834 64.4994 52.3723C64.2518 52.9159 65.8973 54.1178 67.0567 54.5149C69.1718 55.2403 71.9841 55.1786 73.9617 54.9173L74.0314 54.4673C74.745 54.3737 75.2476 54.1955 75.3889 53.9166C75.6384 53.7119 75.8512 53.5283 76.0365 53.3589L76.0383 53.3571C76.042 53.3536 76.0493 53.3483 76.053 53.3448C76.9464 52.5206 77.1537 52.0511 77.2472 51.3363C77.3371 50.6356 77.1775 49.9243 77.0143 49.2837C80.4521 49.7955 75.6604 45.7608 78.8634 44.9807C78.9001 44.9698 78.9375 44.961 78.9753 44.9543C79.0689 44.9331 79.1624 44.9119 79.2523 44.8872C79.6856 44.774 80.1005 44.6036 80.4851 44.3807C81.3803 43.8565 81.6757 43.1611 82.138 42.3775C82.2047 42.2659 82.2326 42.1367 82.2178 42.0088C82.2029 41.8809 82.1461 41.7609 82.0554 41.6662Z" fill="#2F2E41"/>
<path d="M99.9178 81.4407C99.9159 81.7495 99.9123 82.1819 99.8976 82.7167C99.8957 82.7909 99.8939 82.8667 99.8921 82.9444C99.8682 83.9275 99.8444 84.7517 99.8059 85.6677C99.804 85.7312 99.8022 85.793 99.7985 85.8565C99.7471 87.1344 99.6664 88.6222 99.527 90.9784C99.2683 95.3307 98.8171 91.5767 98.3639 93.1034C98.3419 93.1793 98.3181 93.2693 98.2961 93.3752C98.2275 93.7594 98.1117 94.1344 97.9512 94.4924C97.7109 94.6301 97.4632 94.7624 97.2192 94.8948C96.524 95.2672 95.8177 95.6255 95.1059 95.9661C94.706 96.1567 94.3043 96.3438 93.9007 96.5238C93.8365 96.5521 93.7741 96.5803 93.7117 96.6068C91.645 97.5265 89.515 98.3084 87.3369 98.9471C86.9113 99.0707 86.4875 99.1907 86.0583 99.3019C85.6106 99.4219 85.163 99.5348 84.7099 99.6407C81.3391 100.437 77.8898 100.886 74.4203 100.98C73.9525 100.994 73.481 101 73.0077 101C72.7729 101 72.5418 100.998 72.307 100.996C72.2354 100.996 72.1639 100.994 72.0923 100.993C71.885 100.987 71.6704 100.984 71.4539 100.979C67.2675 100.853 63.1151 100.211 59.0987 99.0671L58.9281 99.0195C58.6639 98.9418 58.4016 98.8659 58.1393 98.7847C56.9285 98.4159 55.7355 98.0029 54.5602 97.5458C53.6631 97.1981 52.7765 96.8251 51.9002 96.4268C51.8922 96.4247 51.8847 96.4211 51.8782 96.4162C51.6947 96.335 51.5094 96.2503 51.326 96.1638C51.3022 96.1514 51.2765 96.1391 51.2508 96.1267C50.5665 95.8055 49.8896 95.469 49.22 95.1172C48.6568 93.8729 47.8643 93.6346 47.3727 92.5404C47.2296 92.2153 47.1262 91.8753 47.0645 91.5273C47.0645 91.5238 47.0627 91.5202 47.0627 91.5149C47.114 92.1715 46.8444 90.3501 47.0608 91.5079C47.059 91.4867 47.0572 91.4638 47.0553 91.4373C47.0498 91.3737 47.0425 91.2961 47.0315 91.199C46.4023 85.2882 46.4426 78.5285 46.1693 72.9584C46.1509 72.5983 46.132 72.2536 46.1124 71.9241C46.1069 71.8147 46.0996 71.707 46.0922 71.6011C46.1051 71.5694 46.1197 71.5358 46.1362 71.5041C46.1398 71.4949 46.1441 71.4861 46.1491 71.4776C46.1545 71.4666 46.1606 71.456 46.1674 71.4458C46.1711 71.4405 46.1766 71.4335 46.1803 71.4282C46.183 71.4221 46.186 71.4162 46.1895 71.4105C46.206 71.3858 46.2243 71.3593 46.2445 71.3346C46.2537 71.324 46.261 71.3152 46.2702 71.3064C46.2765 71.2974 46.2839 71.2891 46.2922 71.2817C46.2978 71.2732 46.3046 71.2655 46.3124 71.2587C46.3197 71.2517 46.327 71.2429 46.3362 71.234C46.3401 71.2285 46.3451 71.2237 46.3509 71.2199C46.3654 71.2039 46.3814 71.1891 46.3986 71.1758C46.464 71.1178 46.5339 71.0647 46.6077 71.0169C46.6334 71.0011 46.6609 70.9852 46.6866 70.9675C46.8715 70.8611 47.0661 70.7713 47.2681 70.6993C47.3378 70.6745 47.4075 70.6516 47.4828 70.6269C47.5103 70.6198 47.536 70.611 47.5635 70.6022C47.6038 70.5898 47.6442 70.5775 47.6864 70.5687C47.8955 70.5086 48.1212 70.4575 48.3651 70.4098C48.3945 70.4045 48.4257 70.3992 48.4569 70.3922C48.5009 70.3833 48.5468 70.3763 48.5926 70.3692C48.655 70.3586 48.7192 70.348 48.7834 70.3374C49.3282 70.2545 49.9465 70.1927 50.6289 70.1521C50.6931 70.1486 50.7573 70.1451 50.8215 70.1415C50.8967 70.138 50.9719 70.1345 51.049 70.1309C51.1132 70.1274 51.1792 70.1256 51.2453 70.1239C51.3095 70.1204 51.3755 70.1186 51.4434 70.1168C51.6287 70.1115 51.8195 70.1062 52.0139 70.1027C52.5679 70.0921 53.1513 70.0956 53.764 70.108C54.0484 70.1151 54.3382 70.1221 54.6354 70.1345C54.6556 70.1345 54.6739 70.1362 54.6923 70.1362C54.9509 70.1451 55.2114 70.1557 55.4793 70.1698C55.6664 70.1786 55.8553 70.1874 56.0443 70.198C56.2222 70.2086 56.402 70.2192 56.5836 70.2316C56.7249 70.2386 56.8661 70.2492 57.0092 70.258C57.1303 70.2668 57.2514 70.2757 57.3724 70.2827L57.5375 70.2933C57.6274 70.3004 57.7173 70.3057 57.8091 70.3145C58.0108 70.3304 58.2126 70.3463 58.4181 70.3622C58.6217 70.3798 58.829 70.3975 59.0363 70.4151C59.2436 70.4328 59.4527 70.4522 59.6619 70.4716C59.6839 70.4733 59.7041 70.4751 59.7243 70.4769C59.915 70.4963 60.1058 70.5139 60.2984 70.5333C60.3425 70.5369 60.3883 70.5404 60.4324 70.5457C60.616 70.5635 60.8032 70.5842 60.9886 70.6032C61.0455 70.6091 61.102 70.6148 61.1591 70.6208C61.3043 70.636 61.4474 70.6492 61.5936 70.6657C61.7862 70.6869 61.9825 70.7063 62.1733 70.731C62.3219 70.7469 62.4705 70.7628 62.6191 70.7804C62.852 70.8069 63.0887 70.8352 63.3253 70.8652C63.4152 70.8757 63.5051 70.8863 63.595 70.8987C64.2701 70.9799 64.9525 71.0699 65.6459 71.1634C66.6971 71.3064 67.7648 71.4617 68.8398 71.6294C69.9166 71.7971 70.9996 71.9741 72.0886 72.1606C72.3638 72.2083 72.639 72.2559 72.916 72.3053C73.0407 72.3283 73.1655 72.3512 73.2902 72.3742C73.503 72.4112 73.7158 72.4501 73.9286 72.4889C74.1414 72.5277 74.3542 72.5665 74.567 72.6071C74.8202 72.6548 75.0752 72.7024 75.3283 72.7501C76.9959 73.0678 78.6542 73.4067 80.2723 73.7614C80.5383 73.8197 80.8043 73.8797 81.0684 73.9379C81.5968 74.0562 82.1202 74.1762 82.6388 74.298C82.7818 74.3297 82.9231 74.3633 83.0644 74.3968C83.4166 74.4815 83.7688 74.5662 84.1155 74.6527L84.1761 74.6686C84.431 74.7286 84.6805 74.7904 84.93 74.8539C85.5189 75.0022 86.098 75.1522 86.6673 75.304C87.0452 75.4046 87.4188 75.5064 87.7882 75.6093C88.3403 75.7629 88.8815 75.9182 89.408 76.0753C89.5382 76.1141 89.6685 76.1529 89.7969 76.19C90.1821 76.3047 90.5619 76.4212 90.9306 76.5377C91.2241 76.6294 91.5103 76.723 91.7928 76.8165C92.0753 76.9101 92.3523 77.0036 92.6238 77.0971C92.7981 77.1572 92.9706 77.2207 93.143 77.2807C93.3906 77.369 93.6346 77.4572 93.8731 77.5455C93.9465 77.5719 94.018 77.6002 94.0896 77.6266C94.1355 77.646 94.1795 77.6619 94.2235 77.6796C94.3097 77.7131 94.3978 77.7449 94.4822 77.7784C94.5684 77.8102 94.6528 77.8437 94.7372 77.879C94.8197 77.9108 94.9041 77.9443 94.9848 77.9779C95.0674 78.0096 95.1481 78.0432 95.2288 78.0785C95.2967 78.1049 95.3627 78.1332 95.4269 78.1614C95.5572 78.2161 95.6874 78.2708 95.814 78.3273C95.8764 78.3556 95.9387 78.382 96.0011 78.4103L96.1442 78.4738C96.1644 78.4844 96.1846 78.4932 96.2047 78.502C96.2506 78.5232 96.2983 78.5462 96.3442 78.5673C96.4506 78.615 96.5551 78.6662 96.6579 78.7138C96.7955 78.7809 96.9294 78.848 97.0578 78.9133C97.188 78.9803 97.3146 79.0474 97.4357 79.1127C97.4559 79.1233 97.4742 79.1339 97.4944 79.1445C97.5219 79.1586 97.5494 79.1745 97.5769 79.1886C97.6705 79.2398 97.7604 79.2927 97.8503 79.3439C98.0264 79.448 98.1933 79.5504 98.3493 79.6528C98.3841 79.6757 98.4171 79.6987 98.452 79.7198C98.5676 79.7993 98.6776 79.8769 98.7804 79.9563C98.7804 79.9581 98.7804 79.9581 98.7822 79.9581C98.8171 79.9828 98.8501 80.0093 98.8831 80.034C98.9106 80.0587 98.94 80.0799 98.9675 80.1046C99.0629 80.184 99.1509 80.2599 99.2316 80.3376C99.2587 80.3615 99.2844 80.3869 99.3087 80.4135C99.3194 80.422 99.3292 80.4314 99.338 80.4417C99.3747 80.477 99.4078 80.5123 99.4389 80.5476C99.4438 80.5524 99.4481 80.5578 99.4518 80.5635C99.4958 80.6129 99.5362 80.6623 99.5747 80.7117C99.593 80.7365 99.6132 80.7612 99.6297 80.7859C99.6517 80.8159 99.6738 80.8476 99.6921 80.8776C99.7086 80.9024 99.7233 80.9288 99.738 80.9535C99.7769 81.0172 99.81 81.0839 99.837 81.153C99.8576 81.1998 99.8742 81.2482 99.8866 81.2977C99.9005 81.3446 99.9109 81.3924 99.9178 81.4407Z" fill="#2F2E41"/>
<path opacity="0.2" d="M99.9178 81.4408C99.9159 81.7497 99.9123 82.1821 99.8976 82.7168C99.8958 82.791 99.8921 82.8669 99.8902 82.9445C99.8719 83.6946 99.8444 84.6212 99.8059 85.6678C99.804 85.7313 99.8022 85.7931 99.7985 85.8567C99.7472 87.1345 99.6664 88.6223 99.527 90.9785C99.2684 95.3309 98.8171 91.5768 98.364 93.1035C97.1055 92.3587 95.726 91.5786 94.251 90.7773C93.985 90.6326 93.7166 90.4873 93.4457 90.3414C90.4959 88.7582 87.2011 87.0992 83.7615 85.456C83.6257 85.3907 83.4881 85.3254 83.3524 85.2619C75.4733 81.5149 66.8732 77.8703 59.9059 75.4382C58.5612 74.9688 57.2771 74.5452 56.07 74.1728C53.5274 73.3909 51.3297 72.8438 49.6383 72.6073C47.8772 72.3602 46.6609 72.4484 46.1693 72.9585C46.1509 72.5984 46.132 72.2537 46.1124 71.9242C46.105 71.8148 46.0977 71.7071 46.0904 71.6012C46.1017 71.5722 46.1164 71.5445 46.1307 71.5165C46.1327 71.5124 46.1341 71.5082 46.1362 71.5042C46.1398 71.495 46.1441 71.4862 46.1491 71.4777C46.1545 71.4667 46.1606 71.4561 46.1674 71.4459C46.1734 71.4334 46.1808 71.4216 46.1894 71.4106C46.206 71.3859 46.2243 71.3594 46.2445 71.3347C46.2593 71.3162 46.2752 71.2985 46.2922 71.2818C46.2978 71.2733 46.3046 71.2656 46.3124 71.2588C46.3197 71.2518 46.327 71.2429 46.3362 71.2341C46.3401 71.2286 46.3451 71.2238 46.3509 71.22C46.3654 71.204 46.3813 71.1892 46.3986 71.1759C46.464 71.1179 46.5339 71.0648 46.6077 71.017C46.6334 71.0012 46.6609 70.9853 46.6866 70.9676C46.8715 70.8612 47.0661 70.7714 47.2681 70.6994C47.3378 70.6746 47.4075 70.6517 47.4827 70.627C47.5103 70.6199 47.5359 70.6111 47.5635 70.6023C47.6038 70.5899 47.6442 70.5776 47.6864 70.5688C47.8955 70.5087 48.1211 70.4576 48.3651 70.4099C48.4385 70.3958 48.5156 70.3817 48.5926 70.3693C48.655 70.3587 48.7192 70.3481 48.7834 70.3375C49.3282 70.2546 49.9465 70.1928 50.6289 70.1522C50.6931 70.1487 50.7573 70.1452 50.8215 70.1416C50.8967 70.1381 50.9719 70.1346 51.049 70.131C51.1132 70.1275 51.1792 70.1257 51.2453 70.124C51.3095 70.1205 51.3755 70.1187 51.4434 70.1169C51.6287 70.1116 51.8195 70.1063 52.0139 70.1028C52.5679 70.094 53.1513 70.0975 53.764 70.1099C54.0484 70.1152 54.3382 70.124 54.6354 70.1363C54.6537 70.1363 54.6739 70.1381 54.6923 70.1381C54.9509 70.1452 55.2133 70.1575 55.4793 70.1699C55.6664 70.1787 55.8553 70.1875 56.0443 70.1981C56.2222 70.2087 56.402 70.2193 56.5836 70.2316C56.7249 70.2387 56.8661 70.2493 57.0092 70.2581C57.1303 70.2669 57.2514 70.2758 57.3724 70.2828C57.5174 70.2934 57.6623 70.304 57.809 70.3146C58.0108 70.3305 58.2126 70.3464 58.4181 70.3622C58.6217 70.3799 58.829 70.3975 59.0363 70.4152C59.2436 70.4328 59.4527 70.4523 59.6619 70.4717C59.6839 70.4734 59.7041 70.4752 59.7242 70.477C59.915 70.4964 60.1058 70.514 60.2984 70.5334C61.3661 70.6376 62.465 70.7594 63.595 70.8988C64.2701 70.9817 64.9537 71.0706 65.646 71.1653C66.6971 71.3083 67.7648 71.4636 68.8398 71.6295C69.9166 71.7971 70.9996 71.9742 72.0887 72.1607C72.3638 72.2084 72.639 72.256 72.916 72.3054C73.2536 72.3654 73.5911 72.4266 73.9286 72.489C74.1414 72.5278 74.3542 72.5667 74.567 72.6073C74.8202 72.6549 75.0752 72.7026 75.3284 72.7502C76.9959 73.0679 78.6543 73.4068 80.2723 73.7615C80.5383 73.8198 80.8043 73.8798 81.0684 73.938C81.5968 74.0563 82.1202 74.1763 82.6388 74.2981C82.7819 74.3316 82.9231 74.3651 83.0644 74.3987C83.4184 74.4834 83.7688 74.5681 84.1155 74.6528V74.6546C84.1357 74.6581 84.1559 74.6634 84.1761 74.6687C84.4292 74.7305 84.6805 74.7922 84.93 74.8558C85.5189 75.004 86.098 75.1535 86.6673 75.3041C87.0452 75.4064 87.4194 75.5071 87.7882 75.6094C88.3403 75.7647 88.8815 75.92 89.408 76.0754C89.5383 76.1142 89.6685 76.153 89.7969 76.1901C90.1822 76.3066 90.5601 76.4225 90.9306 76.5378C91.2241 76.6295 91.5103 76.7231 91.7928 76.8166C92.0753 76.9102 92.3523 77.0037 92.6239 77.0973C92.8 77.1573 92.9724 77.219 93.143 77.279C93.3925 77.3673 93.6347 77.4555 93.8731 77.5456C93.9465 77.572 94.0181 77.6003 94.0896 77.6267C94.2235 77.6762 94.3538 77.7273 94.4822 77.7785C94.5684 77.8103 94.6528 77.8438 94.7372 77.8791C94.8197 77.9109 94.9041 77.9444 94.9848 77.978C95.0674 78.0097 95.1481 78.0433 95.2288 78.0786C95.2967 78.105 95.3627 78.1333 95.4269 78.1615C95.5572 78.2162 95.6874 78.2709 95.814 78.3274C95.8764 78.3557 95.9388 78.3821 96.0011 78.4104L96.1442 78.4739C96.1644 78.4845 96.1846 78.4933 96.2048 78.5021C96.3607 78.5727 96.5111 78.6433 96.6579 78.7139C96.7955 78.781 96.9294 78.8481 97.0578 78.9134C97.2101 78.991 97.355 79.0669 97.4944 79.1446C97.5219 79.1587 97.5494 79.1746 97.577 79.1887C97.6705 79.2399 97.7604 79.2928 97.8503 79.344C98.0264 79.4481 98.1933 79.5505 98.3493 79.6529C98.5034 79.7552 98.6465 79.8559 98.7804 79.9565C98.7804 79.9582 98.7804 79.9582 98.7822 79.9582C98.8464 80.0076 98.9088 80.0571 98.9675 80.1047C99.0629 80.1841 99.1509 80.26 99.2317 80.3377C99.2587 80.3616 99.2844 80.387 99.3087 80.4136C99.3194 80.4221 99.3292 80.4315 99.3381 80.4418C99.3766 80.4824 99.4151 80.523 99.4518 80.5636C99.4958 80.613 99.5362 80.6624 99.5747 80.7118C99.5931 80.7366 99.6132 80.7613 99.6298 80.786C99.6518 80.816 99.6738 80.8477 99.6921 80.8778C99.7086 80.9025 99.7233 80.9289 99.738 80.9537C99.7769 81.0173 99.8101 81.084 99.8371 81.1531C99.8571 81.2001 99.8737 81.2485 99.8866 81.2978C99.9005 81.3447 99.9109 81.3925 99.9178 81.4408Z" fill="black"/>
</g>
<defs>
<clipPath id="clip0_143_598">
<rect width="144.341" height="101" fill="white" transform="translate(0.123337)"/>
</clipPath>
</defs>
</svg>
