<svg width="145" height="91" viewBox="0 0 145 91" fill="none" xmlns="http://www.w3.org/2000/svg">
<g clip-path="url(#clip0_143_439)">
<path d="M71.8347 15.4701C74.253 15.4701 76.2134 13.5823 76.2134 11.2537C76.2134 8.92508 74.253 7.03735 71.8347 7.03735C69.4164 7.03735 67.4559 8.92508 67.4559 11.2537C67.4559 13.5823 69.4164 15.4701 71.8347 15.4701Z" fill="#FD6584"/>
<path d="M81.6347 9.25721C81.5112 8.86731 81.272 8.5207 80.9465 8.26005C80.621 7.9994 80.2235 7.83608 79.8029 7.79021C79.7931 7.78942 79.7832 7.78942 79.7734 7.79021C79.7616 7.78666 79.7495 7.78402 79.7373 7.78231C78.2712 7.59914 76.6411 8.04445 75.544 9.01402C75.1367 9.36828 74.811 9.80077 74.5879 10.2836C74.3845 10.0161 74.1165 9.80041 73.807 9.65513C73.4975 9.50985 73.1559 9.43939 72.8118 9.44986C72.368 9.47811 71.9441 9.63747 71.5978 9.90622C71.2515 10.175 70.9997 10.54 70.8767 10.9516C70.8632 11.0019 70.8669 11.055 70.8873 11.1031C70.9077 11.1512 70.9437 11.1917 70.9899 11.2185C71.1217 11.3271 71.2786 11.404 71.4474 11.4427C71.8098 11.5169 72.1755 11.5848 72.5412 11.6464C73.2563 11.7664 73.9751 11.8638 74.6978 11.9385C75.175 11.9875 75.6533 12.0265 76.1327 12.0554C77.1232 12.1154 78.1187 12.1296 79.1108 12.0996C79.6028 12.0838 80.0751 12.068 80.5245 11.8596C80.8519 11.7045 81.1317 11.47 81.3362 11.179C81.5288 10.8991 81.6553 10.582 81.7069 10.25C81.7584 9.91796 81.7338 9.57908 81.6347 9.25721Z" fill="#E6E6E6"/>
<path d="M72.6265 15.3999C72.6182 15.2232 72.5874 15.0482 72.5347 14.8788C72.4106 14.4889 72.171 14.1424 71.8453 13.8818C71.5196 13.6212 71.122 13.4578 70.7012 13.4118C70.6919 13.411 70.6826 13.411 70.6733 13.4118C70.661 13.4084 70.6483 13.4058 70.6356 13.4039C69.8242 13.3082 69.0008 13.3897 68.2265 13.6423C67.036 14.026 65.9913 14.7998 65.4879 15.9052C65.2843 15.6375 65.016 15.4217 64.7062 15.2764C64.3964 15.1311 64.0545 15.0608 63.7102 15.0714C63.2664 15.0997 62.8424 15.259 62.4961 15.5278C62.1498 15.7965 61.898 16.1616 61.775 16.5732C61.7623 16.6234 61.7664 16.6763 61.7867 16.7243C61.807 16.7722 61.8425 16.8127 61.8882 16.84C62.0203 16.9483 62.177 17.0252 62.3457 17.0643C62.7098 17.1385 63.0739 17.2064 63.4412 17.268C64.1562 17.388 64.8745 17.4854 65.5961 17.5601C67.0621 17.7116 68.5371 17.7655 70.0108 17.7212C70.5011 17.7054 70.9751 17.6896 71.4244 17.4811C71.7514 17.326 72.0306 17.0914 72.2346 16.8005C72.522 16.388 72.6598 15.8956 72.6265 15.3999Z" fill="#E6E6E6"/>
<path d="M129.655 66.5615C129.718 69.4363 129.306 72.3026 128.435 75.0529C128.404 75.1527 128.368 75.2526 128.331 75.3526H110.365C110.621 74.1347 111.029 72.951 111.579 71.8267C113.074 68.771 115.515 66.156 117.926 63.5587C121.246 59.98 124.486 56.4307 124.999 51.7766C126.315 53.7083 127.365 55.7962 128.123 57.9879C127.195 58.3191 126.343 58.8222 125.615 59.4687C125.414 59.6509 125.2 59.9154 125.304 60.168C125.402 60.3796 125.67 60.4501 125.908 60.4971C126.482 60.6029 127.056 60.7086 127.629 60.8086C128.081 60.8967 128.538 60.979 128.996 61.0612C129.398 62.8701 129.619 64.712 129.655 66.5615Z" fill="#F2F2F2"/>
<path d="M144.747 64.6576C141.867 66.3441 140.036 68.9532 138.541 71.8738C137.24 72.1593 136.038 72.767 135.056 73.6367C134.849 73.8189 134.635 74.0833 134.745 74.336C134.836 74.5476 135.111 74.6181 135.349 74.6651C135.917 74.7709 136.496 74.8766 137.064 74.9765C137.009 75.0999 136.954 75.2292 136.899 75.3526H117.859C118.723 74.2301 119.68 73.1768 120.721 72.2029C120.947 71.9854 121.179 71.7798 121.417 71.5682C123.844 69.4561 126.631 67.7624 129.655 66.5616C134.42 64.6436 139.63 63.9863 144.747 64.6576Z" fill="#F2F2F2"/>
<path d="M121.032 75.3526H104.079C103.986 74.0453 103.994 72.7333 104.103 71.4272C104.781 63.3589 109.339 55.6727 116.217 51.0186C115.338 54.0331 115.79 57.0301 116.705 60.0388C116.577 60.0799 116.449 60.1152 116.333 60.1622C115.405 60.4934 114.552 60.9964 113.825 61.643C113.623 61.8252 113.41 62.0896 113.514 62.3423C113.605 62.5538 113.88 62.6244 114.118 62.6714C114.691 62.7771 115.265 62.8829 115.833 62.9828C116.29 63.071 116.748 63.1532 117.206 63.2414C117.419 63.2767 117.633 63.3178 117.846 63.3589C117.877 63.4294 117.895 63.4941 117.926 63.5587C119 66.4087 120.172 69.2823 120.721 72.2028C120.857 72.9357 120.951 73.6753 121.002 74.4182C121.02 74.7297 121.032 75.0411 121.032 75.3526Z" fill="#F2F2F2"/>
<path d="M28.6351 66.5615C28.698 69.4363 28.286 72.3026 27.4145 75.0529C27.384 75.1527 27.3474 75.2526 27.3108 75.3526H9.34442C9.60125 74.1347 10.009 72.951 10.5589 71.8267C12.054 68.771 14.4951 66.156 16.9057 63.5587C20.2255 59.98 23.4661 56.4307 23.9787 51.7766C25.2946 53.7083 26.3449 55.7962 27.1033 57.9879C26.1748 58.3191 25.3227 58.8222 24.5951 59.4687C24.3937 59.6509 24.1801 59.9154 24.2839 60.168C24.3815 60.3796 24.65 60.4501 24.888 60.4971C25.4617 60.6029 26.0353 60.7086 26.609 60.8086C27.0606 60.8967 27.5183 60.979 27.976 61.0612C28.3783 62.8701 28.599 64.712 28.6351 66.5615Z" fill="#F2F2F2"/>
<path d="M43.727 64.6576C40.8465 66.3441 39.0157 68.9532 37.5206 71.8738C36.2195 72.1593 35.0183 72.767 34.036 73.6367C33.8284 73.8189 33.6149 74.0833 33.7247 74.336C33.8163 74.5476 34.0909 74.6181 34.3289 74.6651C34.8964 74.7709 35.4762 74.8766 36.0437 74.9765C35.9888 75.0999 35.9339 75.2292 35.879 75.3526H16.8386C17.7029 74.2301 18.6601 73.1768 19.7007 72.2029C19.9265 71.9854 20.1584 71.7798 20.3964 71.5682C22.8236 69.4561 25.6106 67.7624 28.6351 66.5616C33.3997 64.6436 38.6101 63.9863 43.727 64.6576Z" fill="#F2F2F2"/>
<path d="M20.012 75.3526H3.05869C2.96611 74.0453 2.97427 72.7333 3.08312 71.4272C3.76051 63.3589 8.31921 55.6727 15.197 51.0186C14.3182 54.0331 14.7698 57.0301 15.6852 60.0388C15.557 60.0799 15.4289 60.1152 15.3129 60.1622C14.3845 60.4934 13.5324 60.9964 12.8047 61.643C12.6033 61.8252 12.3897 62.0896 12.4935 62.3423C12.585 62.5538 12.8596 62.6244 13.0976 62.6714C13.6713 62.7771 14.2449 62.8829 14.8125 62.9828C15.2702 63.071 15.7279 63.1532 16.1856 63.2414C16.3992 63.2767 16.6128 63.3178 16.8264 63.3589C16.8569 63.4294 16.8752 63.4941 16.9057 63.5587C17.9798 66.4087 19.1515 69.2823 19.7007 72.2028C19.8367 72.9357 19.9304 73.6753 19.9815 74.4182C19.9998 74.7297 20.012 75.0411 20.012 75.3526Z" fill="#F2F2F2"/>
<path d="M83.1265 68.4988L98.2746 69.7936L98.437 69.8079V7.56862C98.3828 7.5323 98.3287 7.49598 98.2746 7.45966C95.1176 5.33334 91.7025 3.58652 88.1054 2.25806L87.3313 12.5381L87.2608 13.4792L86.4949 23.674L86.2588 26.8101L83.1544 68.1356L83.1265 68.4988Z" fill="#E6E6E6"/>
<path d="M45.6654 6.40964C45.5572 6.47596 45.4489 6.54228 45.3407 6.61177V69.8079L45.6654 69.7795L60.6495 68.4989L60.6216 68.1357L57.5172 26.8102L57.2811 23.6741L56.5152 13.4793L56.4447 12.5382L55.6329 1.75757C52.1323 2.92601 48.7867 4.48746 45.6654 6.40964Z" fill="#E6E6E6"/>
<path d="M45.3407 6.61179C45.1226 6.7476 44.9045 6.88656 44.6896 7.0271V70.6702C44.6896 72.2603 45.6687 73.5931 46.9774 73.9326C47.1912 73.9884 47.4118 74.0165 47.6333 74.0163H96.3067C96.5277 74.0166 96.7477 73.9885 96.961 73.9326C97.4474 73.8027 97.8883 73.5484 98.2369 73.1968C98.9016 72.5126 99.2649 71.6069 99.2503 70.6702V8.13406C98.9814 7.94299 98.7108 7.75349 98.4369 7.56874C98.3828 7.53242 98.3287 7.4961 98.2746 7.45978V70.6702C98.275 70.875 98.2496 71.0792 98.1991 71.2781C97.9679 72.2177 97.2053 72.9062 96.3067 72.9062H47.6333C46.5477 72.9062 45.6654 71.9035 45.6654 70.6702V6.40967C45.5572 6.47599 45.4489 6.54231 45.3407 6.61179Z" fill="#E6E6E6"/>
<path d="M98.7624 12.5388H45.1771V13.4798H98.7624V12.5388Z" fill="#E6E6E6"/>
<path d="M82.3508 0.535301C82.0261 0.457925 81.7014 0.385285 81.3734 0.317383V25.869H82.3508V0.535301Z" fill="#E6E6E6"/>
<path d="M62.5666 0C62.2403 0.0584272 61.9139 0.118434 61.5892 0.183178V25.8691H62.5666V0Z" fill="#E6E6E6"/>
<path d="M34.6713 72.3693C34.671 72.9093 34.7785 73.4443 34.9878 73.9453C35.0682 74.1396 35.1641 74.3275 35.2748 74.5075C35.4177 74.7422 35.5835 74.9632 35.77 75.1675C36.182 75.6196 36.6895 75.9818 37.2585 76.2299C37.8275 76.478 38.445 76.6062 39.0696 76.6061H103.242C104.409 76.6061 105.527 76.1599 106.352 75.3657C107.177 74.5714 107.64 73.4942 107.64 72.3709C107.64 71.2477 107.177 70.1705 106.352 69.3762C105.527 68.5819 104.409 68.1357 103.242 68.1357H39.0696C37.9037 68.1368 36.7859 68.5832 35.9614 69.3769C35.1368 70.1705 34.6728 71.2467 34.6713 72.3693Z" fill="#E6E6E6"/>
<path d="M45.1772 26.8105L98.4367 26.8105V23.6739L45.1772 23.6739V26.8105Z" fill="#E6E6E6"/>
<path d="M74.0872 24.458H69.5267C69.5267 24.0005 69.7155 23.5617 70.0515 23.2381C70.3874 22.9146 70.8432 22.7329 71.3183 22.7328H72.2955C72.5308 22.7328 72.7638 22.7775 72.9812 22.8642C73.1985 22.9509 73.396 23.0779 73.5624 23.2381C73.7288 23.3983 73.8607 23.5885 73.9508 23.7978C74.0408 24.0071 74.0871 24.2315 74.0871 24.458H74.0872Z" fill="#E6E6E6"/>
<path d="M0.406433 74.7886C1.83109 76.414 3.37201 77.9416 5.01794 79.3601H137.292C138.938 77.9416 140.479 76.414 141.904 74.7886H0.406433Z" fill="#0070C1"/>
<path d="M65.4611 59.501V75.6964H77.2441V59.501C77.2443 59.3845 77.2057 59.271 77.134 59.1773C77.0622 59.0835 76.9612 59.0143 76.8456 58.9799C76.7911 58.9626 76.734 58.954 76.6767 58.9546H66.0302C65.9555 58.9545 65.8816 58.9685 65.8126 58.9959C65.7436 59.0233 65.6809 59.0635 65.628 59.1142C65.5752 59.165 65.5333 59.2253 65.5046 59.2916C65.476 59.358 65.4612 59.4291 65.4611 59.501ZM70.0595 65.0658C70.0626 64.7465 70.1965 64.4414 70.4321 64.2167C70.6676 63.992 70.9858 63.866 71.3173 63.866C71.6489 63.866 71.9671 63.992 72.2026 64.2167C72.4382 64.4414 72.5721 64.7465 72.5752 65.0658V66.9449C72.5735 67.2651 72.4402 67.5716 72.2045 67.7974C71.9688 68.0232 71.6498 68.1499 71.3173 68.1499C70.9849 68.1499 70.6659 68.0232 70.4302 67.7974C70.1945 67.5716 70.0612 67.2651 70.0595 66.9449V65.0658Z" fill="#2F2E41"/>
<path d="M65.425 75.1785V76.7402C65.4253 76.8211 65.4587 76.8986 65.5179 76.956C65.5772 77.0134 65.6575 77.0459 65.7416 77.0466H76.9636C77.0477 77.0462 77.1283 77.0137 77.1876 76.9563C77.2469 76.8989 77.2802 76.8212 77.2802 76.7402V75.1785H65.425Z" fill="#0070C1"/>
<path d="M46.9249 35.1005V64.671C46.9252 65.0479 47.0808 65.4092 47.3575 65.6756C47.6342 65.9421 48.0095 66.0919 48.4008 66.0922H93.9091C94.3004 66.0919 94.6756 65.9421 94.9524 65.6756C95.2291 65.4092 95.3847 65.0479 95.385 64.671V35.1005C95.3841 34.724 95.2282 34.3632 94.9516 34.0971C94.675 33.8311 94.3001 33.6814 93.9091 33.6809H48.4008C48.0098 33.6814 47.6349 33.8311 47.3583 34.0971C47.0817 34.3632 46.9258 34.724 46.9249 35.1005Z" fill="#0070C1"/>
<path d="M47.9925 35.4684V64.3062C47.9929 64.5075 48.0761 64.7005 48.2239 64.8429C48.3718 64.9853 48.5722 65.0654 48.7813 65.0658H93.5303C93.7394 65.0654 93.9398 64.9853 94.0877 64.8429C94.2355 64.7005 94.3187 64.5075 94.3191 64.3062V35.4684C94.3191 35.2668 94.236 35.0735 94.0881 34.9308C93.9402 34.7881 93.7396 34.7077 93.5303 34.7073H48.7813C48.572 34.7077 48.3713 34.7881 48.2235 34.9308C48.0756 35.0735 47.9925 35.2668 47.9925 35.4684Z" fill="#273747"/>
<path d="M57.1171 77.4145C57.1626 77.4695 57.2205 77.5138 57.2864 77.5442C57.3523 77.5745 57.4245 77.5901 57.4976 77.5898H84.1203C84.1931 77.5897 84.265 77.574 84.3307 77.5438C84.3964 77.5136 84.4543 77.4697 84.5002 77.4152C84.546 77.3608 84.5787 77.2972 84.5958 77.229C84.613 77.1609 84.6141 77.0899 84.5992 77.0213L84.1859 75.1311C84.1688 75.054 84.1319 74.9823 84.0786 74.9224C84.0253 74.8626 83.9574 74.8165 83.8809 74.7884C83.8255 74.7675 83.7665 74.7568 83.707 74.7568H57.9092C57.8497 74.7568 57.7907 74.7675 57.7354 74.7884C57.6589 74.8165 57.5909 74.8626 57.5376 74.9224C57.4843 74.9823 57.4475 75.054 57.4303 75.1311L57.0171 77.0213C57.0024 77.0899 57.0037 77.1607 57.021 77.2288C57.0383 77.2968 57.0711 77.3602 57.1171 77.4145Z" fill="#2F2E41"/>
<path d="M82.778 75.571H83.4379C83.4821 75.571 83.5179 75.5365 83.5179 75.494V75.1744C83.5179 75.1318 83.4821 75.0973 83.4379 75.0973H82.778C82.7338 75.0973 82.698 75.1318 82.698 75.1744V75.494C82.698 75.5365 82.7338 75.571 82.778 75.571Z" fill="#0070C1"/>
<path d="M81.1381 75.571H81.798C81.8422 75.571 81.8781 75.5365 81.8781 75.494V75.1744C81.8781 75.1318 81.8422 75.0973 81.798 75.0973H81.1381C81.0939 75.0973 81.058 75.1318 81.058 75.1744V75.494C81.058 75.5365 81.0939 75.571 81.1381 75.571Z" fill="#0070C1"/>
<path d="M79.4982 75.571H80.158C80.2022 75.571 80.2381 75.5365 80.2381 75.494V75.1744C80.2381 75.1318 80.2022 75.0973 80.158 75.0973H79.4982C79.454 75.0973 79.4181 75.1318 79.4181 75.1744V75.494C79.4181 75.5365 79.454 75.571 79.4982 75.571Z" fill="#0070C1"/>
<path d="M77.8582 75.571H78.5181C78.5623 75.571 78.5981 75.5365 78.5981 75.494V75.1744C78.5981 75.1318 78.5623 75.0973 78.5181 75.0973H77.8582C77.814 75.0973 77.7781 75.1318 77.7781 75.1744V75.494C77.7781 75.5365 77.814 75.571 77.8582 75.571Z" fill="#0070C1"/>
<path d="M76.2183 75.571H76.8781C76.9223 75.571 76.9582 75.5365 76.9582 75.494V75.1744C76.9582 75.1318 76.9223 75.0973 76.8781 75.0973H76.2183C76.1741 75.0973 76.1382 75.1318 76.1382 75.1744V75.494C76.1382 75.5365 76.1741 75.571 76.2183 75.571Z" fill="#0070C1"/>
<path d="M74.5783 75.571H75.2382C75.2824 75.571 75.3183 75.5365 75.3183 75.494V75.1744C75.3183 75.1318 75.2824 75.0973 75.2382 75.0973H74.5783C74.5341 75.0973 74.4983 75.1318 74.4983 75.1744V75.494C74.4983 75.5365 74.5341 75.571 74.5783 75.571Z" fill="#0070C1"/>
<path d="M72.9384 75.571H73.5983C73.6425 75.571 73.6783 75.5365 73.6783 75.494V75.1744C73.6783 75.1318 73.6425 75.0973 73.5983 75.0973H72.9384C72.8942 75.0973 72.8584 75.1318 72.8584 75.1744V75.494C72.8584 75.5365 72.8942 75.571 72.9384 75.571Z" fill="#0070C1"/>
<path d="M71.2985 75.571H71.9583C72.0025 75.571 72.0384 75.5365 72.0384 75.494V75.1744C72.0384 75.1318 72.0025 75.0973 71.9583 75.0973H71.2985C71.2543 75.0973 71.2184 75.1318 71.2184 75.1744V75.494C71.2184 75.5365 71.2543 75.571 71.2985 75.571Z" fill="#0070C1"/>
<path d="M69.6585 75.571H70.3184C70.3626 75.571 70.3984 75.5365 70.3984 75.494V75.1744C70.3984 75.1318 70.3626 75.0973 70.3184 75.0973H69.6585C69.6143 75.0973 69.5785 75.1318 69.5785 75.1744V75.494C69.5785 75.5365 69.6143 75.571 69.6585 75.571Z" fill="#0070C1"/>
<path d="M68.0186 75.571H68.6785C68.7227 75.571 68.7585 75.5365 68.7585 75.494V75.1744C68.7585 75.1318 68.7227 75.0973 68.6785 75.0973H68.0186C67.9744 75.0973 67.9386 75.1318 67.9386 75.1744V75.494C67.9386 75.5365 67.9744 75.571 68.0186 75.571Z" fill="#0070C1"/>
<path d="M66.3787 75.571H67.0385C67.0827 75.571 67.1186 75.5365 67.1186 75.494V75.1744C67.1186 75.1318 67.0827 75.0973 67.0385 75.0973H66.3787C66.3345 75.0973 66.2986 75.1318 66.2986 75.1744V75.494C66.2986 75.5365 66.3345 75.571 66.3787 75.571Z" fill="#0070C1"/>
<path d="M64.7387 75.571H65.3986C65.4428 75.571 65.4786 75.5365 65.4786 75.494V75.1744C65.4786 75.1318 65.4428 75.0973 65.3986 75.0973H64.7387C64.6945 75.0973 64.6587 75.1318 64.6587 75.1744V75.494C64.6587 75.5365 64.6945 75.571 64.7387 75.571Z" fill="#0070C1"/>
<path d="M63.0988 75.571H63.7587C63.8029 75.571 63.8387 75.5365 63.8387 75.494V75.1744C63.8387 75.1318 63.8029 75.0973 63.7587 75.0973H63.0988C63.0546 75.0973 63.0188 75.1318 63.0188 75.1744V75.494C63.0188 75.5365 63.0546 75.571 63.0988 75.571Z" fill="#0070C1"/>
<path d="M61.4589 75.571H62.1187C62.1629 75.571 62.1988 75.5365 62.1988 75.494V75.1744C62.1988 75.1318 62.1629 75.0973 62.1187 75.0973H61.4589C61.4147 75.0973 61.3788 75.1318 61.3788 75.1744V75.494C61.3788 75.5365 61.4147 75.571 61.4589 75.571Z" fill="#0070C1"/>
<path d="M59.8189 75.571H60.4788C60.523 75.571 60.5588 75.5365 60.5588 75.494V75.1744C60.5588 75.1318 60.523 75.0973 60.4788 75.0973H59.8189C59.7747 75.0973 59.7389 75.1318 59.7389 75.1744V75.494C59.7389 75.5365 59.7747 75.571 59.8189 75.571Z" fill="#0070C1"/>
<path d="M58.179 75.571H58.8388C58.883 75.571 58.9189 75.5365 58.9189 75.494V75.1744C58.9189 75.1318 58.883 75.0973 58.8388 75.0973H58.179C58.1348 75.0973 58.0989 75.1318 58.0989 75.1744V75.494C58.0989 75.5365 58.1348 75.571 58.179 75.571Z" fill="#0070C1"/>
<path d="M82.7974 76.3606H83.4573C83.5015 76.3606 83.5374 76.3261 83.5374 76.2835V75.964C83.5374 75.9214 83.5015 75.8869 83.4573 75.8869H82.7974C82.7532 75.8869 82.7174 75.9214 82.7174 75.964V76.2835C82.7174 76.3261 82.7532 76.3606 82.7974 76.3606Z" fill="#0070C1"/>
<path d="M81.1575 76.3606H81.8173C81.8615 76.3606 81.8974 76.3261 81.8974 76.2835V75.964C81.8974 75.9214 81.8615 75.8869 81.8173 75.8869H81.1575C81.1132 75.8869 81.0774 75.9214 81.0774 75.964V76.2835C81.0774 76.3261 81.1132 76.3606 81.1575 76.3606Z" fill="#0070C1"/>
<path d="M79.5175 76.3606H80.1774C80.2216 76.3606 80.2574 76.3261 80.2574 76.2835V75.964C80.2574 75.9214 80.2216 75.8869 80.1774 75.8869H79.5175C79.4733 75.8869 79.4375 75.9214 79.4375 75.964V76.2835C79.4375 76.3261 79.4733 76.3606 79.5175 76.3606Z" fill="#0070C1"/>
<path d="M77.8776 76.3606H78.5375C78.5817 76.3606 78.6176 76.3261 78.6176 76.2835V75.964C78.6176 75.9214 78.5817 75.8869 78.5375 75.8869H77.8776C77.8334 75.8869 77.7975 75.9214 77.7975 75.964V76.2835C77.7975 76.3261 77.8334 76.3606 77.8776 76.3606Z" fill="#0070C1"/>
<path d="M76.2377 76.3606H76.8975C76.9418 76.3606 76.9776 76.3261 76.9776 76.2835V75.964C76.9776 75.9214 76.9418 75.8869 76.8975 75.8869H76.2377C76.1935 75.8869 76.1576 75.9214 76.1576 75.964V76.2835C76.1576 76.3261 76.1935 76.3606 76.2377 76.3606Z" fill="#0070C1"/>
<path d="M74.5978 76.3606H75.2576C75.3019 76.3606 75.3377 76.3261 75.3377 76.2835V75.964C75.3377 75.9214 75.3019 75.8869 75.2576 75.8869H74.5978C74.5535 75.8869 74.5177 75.9214 74.5177 75.964V76.2835C74.5177 76.3261 74.5535 76.3606 74.5978 76.3606Z" fill="#0070C1"/>
<path d="M72.9578 76.3606H73.6177C73.6619 76.3606 73.6978 76.3261 73.6978 76.2835V75.964C73.6978 75.9214 73.6619 75.8869 73.6177 75.8869H72.9578C72.9136 75.8869 72.8778 75.9214 72.8778 75.964V76.2835C72.8778 76.3261 72.9136 76.3606 72.9578 76.3606Z" fill="#0070C1"/>
<path d="M71.3179 76.3606H71.9777C72.022 76.3606 72.0578 76.3261 72.0578 76.2835V75.964C72.0578 75.9214 72.022 75.8869 71.9777 75.8869H71.3179C71.2737 75.8869 71.2378 75.9214 71.2378 75.964V76.2835C71.2378 76.3261 71.2737 76.3606 71.3179 76.3606Z" fill="#0070C1"/>
<path d="M69.6779 76.3606H70.3378C70.382 76.3606 70.4178 76.3261 70.4178 76.2835V75.964C70.4178 75.9214 70.382 75.8869 70.3378 75.8869H69.6779C69.6337 75.8869 69.5979 75.9214 69.5979 75.964V76.2835C69.5979 76.3261 69.6337 76.3606 69.6779 76.3606Z" fill="#0070C1"/>
<path d="M68.038 76.3606H68.6978C68.742 76.3606 68.7779 76.3261 68.7779 76.2835V75.964C68.7779 75.9214 68.742 75.8869 68.6978 75.8869H68.038C67.9938 75.8869 67.9579 75.9214 67.9579 75.964V76.2835C67.9579 76.3261 67.9938 76.3606 68.038 76.3606Z" fill="#0070C1"/>
<path d="M66.3981 76.3606H67.0579C67.1022 76.3606 67.138 76.3261 67.138 76.2835V75.964C67.138 75.9214 67.1022 75.8869 67.0579 75.8869H66.3981C66.3539 75.8869 66.318 75.9214 66.318 75.964V76.2835C66.318 76.3261 66.3539 76.3606 66.3981 76.3606Z" fill="#0070C1"/>
<path d="M64.7581 76.3606H65.418C65.4622 76.3606 65.498 76.3261 65.498 76.2835V75.964C65.498 75.9214 65.4622 75.8869 65.418 75.8869H64.7581C64.7139 75.8869 64.6781 75.9214 64.6781 75.964V76.2835C64.6781 76.3261 64.7139 76.3606 64.7581 76.3606Z" fill="#0070C1"/>
<path d="M63.1182 76.3606H63.778C63.8222 76.3606 63.8581 76.3261 63.8581 76.2835V75.964C63.8581 75.9214 63.8222 75.8869 63.778 75.8869H63.1182C63.074 75.8869 63.0381 75.9214 63.0381 75.964V76.2835C63.0381 76.3261 63.074 76.3606 63.1182 76.3606Z" fill="#0070C1"/>
<path d="M61.4782 76.3606H62.1381C62.1823 76.3606 62.2181 76.3261 62.2181 76.2835V75.964C62.2181 75.9214 62.1823 75.8869 62.1381 75.8869H61.4782C61.434 75.8869 61.3982 75.9214 61.3982 75.964V76.2835C61.3982 76.3261 61.434 76.3606 61.4782 76.3606Z" fill="#0070C1"/>
<path d="M59.8383 76.3606H60.4982C60.5424 76.3606 60.5782 76.3261 60.5782 76.2835V75.964C60.5782 75.9214 60.5424 75.8869 60.4982 75.8869H59.8383C59.7941 75.8869 59.7583 75.9214 59.7583 75.964V76.2835C59.7583 76.3261 59.7941 76.3606 59.8383 76.3606Z" fill="#0070C1"/>
<path d="M58.1984 76.3606H58.8582C58.9024 76.3606 58.9383 76.3261 58.9383 76.2835V75.964C58.9383 75.9214 58.9024 75.8869 58.8582 75.8869H58.1984C58.1542 75.8869 58.1183 75.9214 58.1183 75.964V76.2835C58.1183 76.3261 58.1542 76.3606 58.1984 76.3606Z" fill="#0070C1"/>
<path d="M69.1859 77.3081H75.5856C75.6298 77.3081 75.6656 77.2736 75.6656 77.231V76.9115C75.6656 76.8689 75.6298 76.8344 75.5856 76.8344H69.1859C69.1417 76.8344 69.1059 76.8689 69.1059 76.9115V77.231C69.1059 77.2736 69.1417 77.3081 69.1859 77.3081Z" fill="#0070C1"/>
<path d="M51.03 38.6798H92.9014C92.9449 38.6789 92.9863 38.6616 93.0168 38.6316C93.0472 38.6016 93.0643 38.5614 93.0643 38.5195C93.0643 38.4775 93.0472 38.4373 93.0168 38.4073C92.9863 38.3773 92.9449 38.3601 92.9014 38.3591H51.03C50.9864 38.3601 50.945 38.3773 50.9146 38.4073C50.8841 38.4373 50.8671 38.4775 50.8671 38.5195C50.8671 38.5614 50.8841 38.6016 50.9146 38.6316C50.945 38.6616 50.9864 38.6789 51.03 38.6798Z" fill="#0070C1"/>
<path d="M90.0511 37.5406C90.5901 37.5406 91.027 37.1105 91.027 36.58C91.027 36.0495 90.5901 35.6194 90.0511 35.6194C89.5122 35.6194 89.0753 36.0495 89.0753 36.58C89.0753 37.1105 89.5122 37.5406 90.0511 37.5406Z" fill="#0070C1"/>
<path d="M86.6801 37.5406C87.2191 37.5406 87.656 37.1105 87.656 36.58C87.656 36.0495 87.2191 35.6194 86.6801 35.6194C86.1412 35.6194 85.7043 36.0495 85.7043 36.58C85.7043 37.1105 86.1412 37.5406 86.6801 37.5406Z" fill="#0070C1"/>
<path d="M83.309 37.5406C83.8479 37.5406 84.2848 37.1105 84.2848 36.58C84.2848 36.0495 83.8479 35.6194 83.309 35.6194C82.7701 35.6194 82.3332 36.0495 82.3332 36.58C82.3332 37.1105 82.7701 37.5406 83.309 37.5406Z" fill="#0070C1"/>
<path d="M52.8812 36.0322C52.8811 36.0549 52.8856 36.0774 52.8945 36.0985C52.9034 36.1195 52.9166 36.1386 52.9332 36.1547C52.9498 36.1709 52.9695 36.1837 52.9913 36.1925C53.013 36.2013 53.0363 36.2058 53.0599 36.2059H55.4542C55.5016 36.2049 55.5466 36.186 55.5797 36.1534C55.6128 36.1208 55.6313 36.077 55.6313 36.0314C55.6313 35.9858 55.6128 35.9421 55.5797 35.9095C55.5466 35.8768 55.5016 35.858 55.4542 35.8569H53.0599C53.0121 35.8575 52.9665 35.8762 52.933 35.9091C52.8995 35.9419 52.8809 35.9862 52.8812 36.0322Z" fill="#0070C1"/>
<path d="M52.8812 36.6875C52.8811 36.7102 52.8856 36.7327 52.8945 36.7537C52.9034 36.7747 52.9166 36.7939 52.9332 36.81C52.9498 36.8261 52.9695 36.839 52.9913 36.8477C53.013 36.8565 53.0363 36.8611 53.0599 36.8612H55.4542C55.5016 36.8602 55.5467 36.8414 55.5798 36.8087C55.6129 36.7761 55.6315 36.7323 55.6315 36.6867C55.6315 36.6411 55.6129 36.5973 55.5798 36.5647C55.5467 36.532 55.5016 36.5132 55.4542 36.5122H53.0599C53.0121 36.5128 52.9665 36.5315 52.933 36.5643C52.8995 36.5972 52.8809 36.6415 52.8812 36.6875Z" fill="#0070C1"/>
<path d="M52.8812 37.3414C52.8809 37.3875 52.8995 37.4317 52.933 37.4646C52.9665 37.4974 53.0121 37.5161 53.0599 37.5167H55.4542C55.5016 37.5156 55.5466 37.4968 55.5797 37.4642C55.6128 37.4316 55.6313 37.3878 55.6313 37.3422C55.6313 37.2966 55.6128 37.2529 55.5797 37.2202C55.5466 37.1876 55.5016 37.1688 55.4542 37.1677H53.0599C53.0363 37.1678 53.013 37.1724 52.9913 37.1812C52.9695 37.19 52.9498 37.2028 52.9332 37.2189C52.9166 37.235 52.9034 37.2542 52.8945 37.2752C52.8856 37.2962 52.8811 37.3187 52.8812 37.3414Z" fill="#0070C1"/>
<path d="M53.6211 42.406H52.7607C52.4999 42.406 52.2885 42.6096 52.2885 42.8608C52.2885 43.1119 52.4999 43.3156 52.7607 43.3156H53.6211C53.8819 43.3156 54.0934 43.1119 54.0934 42.8608C54.0934 42.6096 53.8819 42.406 53.6211 42.406Z" fill="#E6E6E6"/>
<path d="M63.4607 42.406H62.6004C62.3396 42.406 62.1281 42.6096 62.1281 42.8608C62.1281 43.1119 62.3396 43.3156 62.6004 43.3156H63.4607C63.7216 43.3156 63.933 43.1119 63.933 42.8608C63.933 42.6096 63.7216 42.406 63.4607 42.406Z" fill="#E6E6E6"/>
<path d="M66.2486 42.406H65.3883C65.1275 42.406 64.916 42.6096 64.916 42.8608C64.916 43.1119 65.1275 43.3156 65.3883 43.3156H66.2486C66.5095 43.3156 66.7209 43.1119 66.7209 42.8608C66.7209 42.6096 66.5095 42.406 66.2486 42.406Z" fill="#E6E6E6"/>
<path d="M60.7843 42.3303H55.4372C55.1764 42.3303 54.9649 42.5339 54.9649 42.7851C54.9649 43.0363 55.1764 43.2399 55.4372 43.2399H60.7843C61.0452 43.2399 61.2566 43.0363 61.2566 42.7851C61.2566 42.5339 61.0452 42.3303 60.7843 42.3303Z" fill="#E6E6E6"/>
<path d="M73.9038 42.3303H68.5566C68.2958 42.3303 68.0844 42.5339 68.0844 42.7851C68.0844 43.0363 68.2958 43.2399 68.5566 43.2399H73.9038C74.1646 43.2399 74.3761 43.0363 74.3761 42.7851C74.3761 42.5339 74.1646 42.3303 73.9038 42.3303Z" fill="#E6E6E6"/>
<path d="M56.245 44.459H55.3846C55.1238 44.459 54.9124 44.6626 54.9124 44.9138C54.9124 45.1649 55.1238 45.3685 55.3846 45.3685H56.245C56.5058 45.3685 56.7173 45.1649 56.7173 44.9138C56.7173 44.6626 56.5058 44.459 56.245 44.459Z" fill="#E6E6E6"/>
<path d="M66.0847 44.459H65.2243C64.9635 44.459 64.752 44.6626 64.752 44.9138C64.752 45.1649 64.9635 45.3685 65.2243 45.3685H66.0847C66.3455 45.3685 66.5569 45.1649 66.5569 44.9138C66.5569 44.6626 66.3455 44.459 66.0847 44.459Z" fill="#E6E6E6"/>
<path d="M68.8725 44.459H68.0122C67.7514 44.459 67.5399 44.6626 67.5399 44.9138C67.5399 45.1649 67.7514 45.3685 68.0122 45.3685H68.8725C69.1334 45.3685 69.3448 45.1649 69.3448 44.9138C69.3448 44.6626 69.1334 44.459 68.8725 44.459Z" fill="#E6E6E6"/>
<path d="M63.4082 44.3831H58.0611C57.8003 44.3831 57.5888 44.5867 57.5888 44.8378C57.5888 45.089 57.8003 45.2926 58.0611 45.2926H63.4082C63.6691 45.2926 63.8805 45.089 63.8805 44.8378C63.8805 44.5867 63.6691 44.3831 63.4082 44.3831Z" fill="#E6E6E6"/>
<path d="M76.5277 44.3831H71.1805C70.9197 44.3831 70.7083 44.5867 70.7083 44.8378C70.7083 45.089 70.9197 45.2926 71.1805 45.2926H76.5277C76.7886 45.2926 77 45.089 77 44.8378C77 44.5867 76.7886 44.3831 76.5277 44.3831Z" fill="#E6E6E6"/>
<path d="M58.8689 46.5117H58.0085C57.7477 46.5117 57.5363 46.7153 57.5363 46.9665C57.5363 47.2177 57.7477 47.4213 58.0085 47.4213H58.8689C59.1297 47.4213 59.3412 47.2177 59.3412 46.9665C59.3412 46.7153 59.1297 46.5117 58.8689 46.5117Z" fill="#E6E6E6"/>
<path d="M68.7085 46.5117H67.8482C67.5874 46.5117 67.3759 46.7153 67.3759 46.9665C67.3759 47.2177 67.5874 47.4213 67.8482 47.4213H68.7085C68.9694 47.4213 69.1808 47.2177 69.1808 46.9665C69.1808 46.7153 68.9694 46.5117 68.7085 46.5117Z" fill="#E6E6E6"/>
<path d="M71.4965 46.5117H70.6361C70.3753 46.5117 70.1638 46.7153 70.1638 46.9665C70.1638 47.2177 70.3753 47.4213 70.6361 47.4213H71.4965C71.7573 47.4213 71.9687 47.2177 71.9687 46.9665C71.9687 46.7153 71.7573 46.5117 71.4965 46.5117Z" fill="#E6E6E6"/>
<path d="M66.0321 46.436H60.6849C60.4241 46.436 60.2126 46.6396 60.2126 46.8908C60.2126 47.142 60.4241 47.3456 60.6849 47.3456H66.0321C66.2929 47.3456 66.5044 47.142 66.5044 46.8908C66.5044 46.6396 66.2929 46.436 66.0321 46.436Z" fill="#E6E6E6"/>
<path d="M79.1516 46.436H73.8044C73.5436 46.436 73.3322 46.6396 73.3322 46.8908C73.3322 47.142 73.5436 47.3456 73.8044 47.3456H79.1516C79.4124 47.3456 79.6239 47.142 79.6239 46.8908C79.6239 46.6396 79.4124 46.436 79.1516 46.436Z" fill="#E6E6E6"/>
<path d="M61.4928 48.5647H60.6324C60.3716 48.5647 60.1602 48.7683 60.1602 49.0195C60.1602 49.2707 60.3716 49.4743 60.6324 49.4743H61.4928C61.7536 49.4743 61.9651 49.2707 61.9651 49.0195C61.9651 48.7683 61.7536 48.5647 61.4928 48.5647Z" fill="#E6E6E6"/>
<path d="M71.3324 48.5647H70.4721C70.2113 48.5647 69.9998 48.7683 69.9998 49.0195C69.9998 49.2707 70.2113 49.4743 70.4721 49.4743H71.3324C71.5933 49.4743 71.8047 49.2707 71.8047 49.0195C71.8047 48.7683 71.5933 48.5647 71.3324 48.5647Z" fill="#E6E6E6"/>
<path d="M74.1203 48.5647H73.26C72.9991 48.5647 72.7877 48.7683 72.7877 49.0195C72.7877 49.2707 72.9991 49.4743 73.26 49.4743H74.1203C74.3812 49.4743 74.5926 49.2707 74.5926 49.0195C74.5926 48.7683 74.3812 48.5647 74.1203 48.5647Z" fill="#E6E6E6"/>
<path d="M68.656 48.4888H63.3089C63.0481 48.4888 62.8366 48.6924 62.8366 48.9435C62.8366 49.1947 63.0481 49.3983 63.3089 49.3983H68.656C68.9169 49.3983 69.1283 49.1947 69.1283 48.9435C69.1283 48.6924 68.9169 48.4888 68.656 48.4888Z" fill="#E6E6E6"/>
<path d="M63.4607 56.7275H62.6004C62.3396 56.7275 62.1281 56.9312 62.1281 57.1823C62.1281 57.4335 62.3396 57.6371 62.6004 57.6371H63.4607C63.7216 57.6371 63.933 57.4335 63.933 57.1823C63.933 56.9312 63.7216 56.7275 63.4607 56.7275Z" fill="#E6E6E6"/>
<path d="M66.2486 56.7275H65.3883C65.1275 56.7275 64.916 56.9312 64.916 57.1823C64.916 57.4335 65.1275 57.6371 65.3883 57.6371H66.2486C66.5095 57.6371 66.7209 57.4335 66.7209 57.1823C66.7209 56.9312 66.5095 56.7275 66.2486 56.7275Z" fill="#E6E6E6"/>
<path d="M73.9038 56.8035H68.5566C68.2958 56.8035 68.0844 57.0071 68.0844 57.2583C68.0844 57.5094 68.2958 57.713 68.5566 57.713H73.9038C74.1646 57.713 74.3761 57.5094 74.3761 57.2583C74.3761 57.0071 74.1646 56.8035 73.9038 56.8035Z" fill="#E6E6E6"/>
<path d="M53.6211 56.7275H52.7607C52.4999 56.7275 52.2885 56.9312 52.2885 57.1823C52.2885 57.4335 52.4999 57.6371 52.7607 57.6371H53.6211C53.8819 57.6371 54.0934 57.4335 54.0934 57.1823C54.0934 56.9312 53.8819 56.7275 53.6211 56.7275Z" fill="#E6E6E6"/>
<path d="M60.7843 56.8035H55.4372C55.1764 56.8035 54.9649 57.0071 54.9649 57.2583C54.9649 57.5094 55.1764 57.713 55.4372 57.713H60.7843C61.0452 57.713 61.2566 57.5094 61.2566 57.2583C61.2566 57.0071 61.0452 56.8035 60.7843 56.8035Z" fill="#E6E6E6"/>
<path d="M56.245 54.6748H55.3846C55.1238 54.6748 54.9124 54.8784 54.9124 55.1296C54.9124 55.3808 55.1238 55.5844 55.3846 55.5844H56.245C56.5058 55.5844 56.7173 55.3808 56.7173 55.1296C56.7173 54.8784 56.5058 54.6748 56.245 54.6748Z" fill="#E6E6E6"/>
<path d="M66.0847 54.6748H65.2243C64.9635 54.6748 64.752 54.8784 64.752 55.1296C64.752 55.3808 64.9635 55.5844 65.2243 55.5844H66.0847C66.3455 55.5844 66.5569 55.3808 66.5569 55.1296C66.5569 54.8784 66.3455 54.6748 66.0847 54.6748Z" fill="#E6E6E6"/>
<path d="M68.8725 54.6748H68.0122C67.7514 54.6748 67.5399 54.8784 67.5399 55.1296C67.5399 55.3808 67.7514 55.5844 68.0122 55.5844H68.8725C69.1334 55.5844 69.3448 55.3808 69.3448 55.1296C69.3448 54.8784 69.1334 54.6748 68.8725 54.6748Z" fill="#E6E6E6"/>
<path d="M63.4082 54.7505H58.0611C57.8003 54.7505 57.5888 54.9541 57.5888 55.2053C57.5888 55.4565 57.8003 55.6601 58.0611 55.6601H63.4082C63.6691 55.6601 63.8805 55.4565 63.8805 55.2053C63.8805 54.9541 63.6691 54.7505 63.4082 54.7505Z" fill="#E6E6E6"/>
<path d="M58.8689 52.6218H58.0085C57.7477 52.6218 57.5363 52.8254 57.5363 53.0766C57.5363 53.3278 57.7477 53.5314 58.0085 53.5314H58.8689C59.1297 53.5314 59.3412 53.3278 59.3412 53.0766C59.3412 52.8254 59.1297 52.6218 58.8689 52.6218Z" fill="#E6E6E6"/>
<path d="M68.7085 52.6218H67.8482C67.5874 52.6218 67.3759 52.8254 67.3759 53.0766C67.3759 53.3278 67.5874 53.5314 67.8482 53.5314H68.7085C68.9694 53.5314 69.1808 53.3278 69.1808 53.0766C69.1808 52.8254 68.9694 52.6218 68.7085 52.6218Z" fill="#E6E6E6"/>
<path d="M71.4965 52.6218H70.6361C70.3753 52.6218 70.1638 52.8254 70.1638 53.0766C70.1638 53.3278 70.3753 53.5314 70.6361 53.5314H71.4965C71.7573 53.5314 71.9687 53.3278 71.9687 53.0766C71.9687 52.8254 71.7573 52.6218 71.4965 52.6218Z" fill="#E6E6E6"/>
<path d="M66.0321 52.6978H60.6849C60.4241 52.6978 60.2126 52.9014 60.2126 53.1525C60.2126 53.4037 60.4241 53.6073 60.6849 53.6073H66.0321C66.2929 53.6073 66.5044 53.4037 66.5044 53.1525C66.5044 52.9014 66.2929 52.6978 66.0321 52.6978Z" fill="#E6E6E6"/>
<path d="M61.4928 50.5691H60.6324C60.3716 50.5691 60.1602 50.7727 60.1602 51.0239C60.1602 51.275 60.3716 51.4787 60.6324 51.4787H61.4928C61.7536 51.4787 61.9651 51.275 61.9651 51.0239C61.9651 50.7727 61.7536 50.5691 61.4928 50.5691Z" fill="#E6E6E6"/>
<path d="M71.3324 50.5691H70.4721C70.2113 50.5691 69.9998 50.7727 69.9998 51.0239C69.9998 51.275 70.2113 51.4787 70.4721 51.4787H71.3324C71.5933 51.4787 71.8047 51.275 71.8047 51.0239C71.8047 50.7727 71.5933 50.5691 71.3324 50.5691Z" fill="#E6E6E6"/>
<path d="M74.1203 50.5691H73.26C72.9991 50.5691 72.7877 50.7727 72.7877 51.0239C72.7877 51.275 72.9991 51.4787 73.26 51.4787H74.1203C74.3812 51.4787 74.5926 51.275 74.5926 51.0239C74.5926 50.7727 74.3812 50.5691 74.1203 50.5691Z" fill="#E6E6E6"/>
<path d="M68.656 50.6448H63.3089C63.0481 50.6448 62.8366 50.8484 62.8366 51.0996C62.8366 51.3507 63.0481 51.5543 63.3089 51.5543H68.656C68.9169 51.5543 69.1283 51.3507 69.1283 51.0996C69.1283 50.8484 68.9169 50.6448 68.656 50.6448Z" fill="#E6E6E6"/>
<path d="M57.7898 86.2122C57.7537 86.2295 57.7176 86.2469 57.6816 86.2627C57.4536 86.3717 57.224 86.479 56.9928 86.5848C56.3007 86.9022 55.5999 87.2038 54.8904 87.4897C53.0234 88.2416 51.1078 88.8761 49.1555 89.3893C48.8275 87.4202 48.5094 82.776 48.2044 79.3604C48.147 78.7177 48.0896 78.1192 48.0322 77.5902C47.9777 76.8957 47.8741 76.2056 47.7222 75.5247C47.7074 75.4714 47.6859 75.4199 47.6583 75.3715C47.6894 75.6447 47.7222 76.4595 47.7534 77.5902C47.7698 78.1192 47.7845 78.7177 47.8009 79.3604C47.878 82.6481 47.9584 87.1217 48.0387 89.6688C47.8108 89.7225 47.5812 89.7762 47.3516 89.8268C47.2073 89.8599 47.0613 89.8915 46.9154 89.9215C46.7383 89.9594 46.5611 89.9973 46.384 90.032C46.1987 90.0699 46.0134 90.1063 45.8281 90.141C42.7998 90.7138 39.7208 91.0015 36.6346 91C36.4296 91 36.2263 90.9984 36.0213 90.9969C35.9589 90.9969 35.8966 90.9953 35.8327 90.9937C35.6523 90.9906 35.4653 90.9874 35.2751 90.9827C31.628 90.8856 28.0048 90.3827 24.4778 89.4841L24.6204 79.3604L24.645 77.5902L24.6549 76.9191C24.5736 77.135 24.525 77.361 24.5105 77.5902C24.4531 78.0213 24.3941 78.6324 24.3351 79.3604C24.1104 82.1649 23.8792 86.689 23.6397 89.263C20.8043 88.4861 18.7314 87.7771 16.1403 86.5296C16.0403 86.4822 15.9386 86.4332 15.8386 86.3843C15.8566 86.2627 15.8763 86.1411 15.8943 86.0163C16.1879 84.0519 15.8418 81.4953 16.1666 79.3604C16.4142 77.7133 16.67 76.1311 16.9275 74.7888C17.2391 73.1734 17.5556 71.9038 17.8688 71.2863C18.2296 70.5742 18.5904 69.873 18.9397 69.2019C19.0906 68.9129 19.2387 68.6292 19.3841 68.3508C19.4628 68.2008 19.5415 68.0523 19.6186 67.907C19.9696 67.2454 20.3008 66.6343 20.6042 66.0926C20.8174 65.7121 21.0142 65.3678 21.1946 65.0662C21.4062 64.7109 21.5931 64.4172 21.7473 64.1945C22.8859 62.5326 24.58 61.2952 26.549 60.6873L26.5982 60.6747L26.6457 60.6936L26.6999 60.7173L29.8256 59.6167L31.2212 56.3811L38.3893 55.9563L39.5471 56.8043L40.1391 57.2385L40.7705 57.7012L41.9316 58.5524L42.2612 58.6503L42.7516 58.7955L46.1052 59.7872L46.1397 59.773L46.1889 59.7857C47.9806 60.3379 49.549 61.4143 50.6757 62.8649C50.7872 63.0039 50.8906 63.1476 50.9906 63.2929C51.2628 63.6813 51.6302 64.2956 52.0631 65.0662C52.2419 65.3836 52.4305 65.7279 52.6289 66.0926C52.7486 66.3121 53.7818 69.4167 54.7871 72.5875C55.7267 75.5563 56.6418 78.5834 56.7615 79.3604C56.7829 79.5041 56.8058 79.6493 56.8271 79.7931C56.9633 80.6916 57.0977 81.5964 57.2273 82.4791C57.4192 83.7882 57.6061 85.0515 57.7849 86.1806C57.7865 86.1916 57.7881 86.2011 57.7898 86.2122Z" fill="#0070C1"/>
<path opacity="0.2" d="M50.1933 74.7815L48.7998 69.6033L47.5694 74.0715L50.1933 74.7815Z" fill="black"/>
<path d="M3.00233 74.7214C3.07458 74.924 3.21164 75.0993 3.39382 75.2222C3.576 75.3451 3.79393 75.4092 4.01632 75.4054L8.36081 75.2977C8.58483 75.2935 8.80143 75.2196 8.97822 75.087C9.15501 74.9545 9.2825 74.7704 9.34163 74.5623L9.95643 68.2321C10.1746 68.3272 10.412 68.3742 10.6514 68.3696C11.0715 68.3594 11.4702 68.189 11.7598 67.8958C12.0493 67.6026 12.2061 67.2106 12.1956 66.8061C12.185 66.4016 12.008 66.0177 11.7035 65.7389C11.399 65.46 10.992 65.3091 10.5719 65.3193C10.4762 65.319 10.3808 65.3285 10.2872 65.3478C10.1854 65.2417 10.0617 65.1574 9.92404 65.1002C9.78637 65.043 9.63779 65.0142 9.48787 65.0157L2.80504 65.1818C2.7496 65.1838 2.69444 65.1904 2.64019 65.2015C2.49364 65.2279 2.35464 65.2841 2.23254 65.3665C2.11045 65.4488 2.0081 65.5554 1.93238 65.6791C1.85666 65.8027 1.80933 65.9406 1.79357 66.0833C1.77781 66.2261 1.79399 66.3704 1.84102 66.5066L3.00233 74.7214ZM10.0825 67.8022L10.52 66.2938C10.5697 66.1195 10.5709 65.9357 10.5233 65.7609C10.5445 65.7608 10.5633 65.7511 10.5845 65.7511C10.8845 65.7451 11.1746 65.8539 11.3914 66.0536C11.6082 66.2534 11.7339 66.5277 11.7409 66.8166C11.7479 67.1054 11.6357 67.3851 11.4289 67.5944C11.2221 67.8037 10.9375 67.9254 10.6376 67.933C10.4436 67.9388 10.2517 67.8936 10.0825 67.8022Z" fill="#2F2E41"/>
<path d="M2.6402 65.2015C2.78257 65.9854 4.3833 66.5364 6.30806 66.4407C8.07799 66.3621 9.5252 65.7637 9.79033 65.0544C9.69221 65.0265 9.59017 65.0134 9.48787 65.0156L2.80504 65.1818C2.74961 65.1838 2.69445 65.1903 2.6402 65.2015Z" fill="#0070C1"/>
<path d="M6.66084 71.243C6.66964 71.2409 6.67801 71.2373 6.68559 71.2325L7.62907 70.6379C7.64048 70.6307 7.64985 70.621 7.65634 70.6094C7.66283 70.5979 7.66623 70.585 7.66623 70.5719C7.66624 70.5588 7.66285 70.5459 7.65637 70.5343C7.64989 70.5228 7.64052 70.513 7.62912 70.5059L6.64848 69.8874C6.63948 69.8816 6.62939 69.8777 6.61879 69.8757C6.6082 69.8737 6.5973 69.8738 6.58673 69.8759C6.57616 69.878 6.56612 69.8821 6.5572 69.8879C6.54827 69.8937 6.54063 69.9012 6.53471 69.9099C6.5288 69.9186 6.52472 69.9283 6.52272 69.9386C6.52072 69.9488 6.52083 69.9593 6.52306 69.9694C6.52528 69.9796 6.52956 69.9892 6.53566 69.9978C6.54177 70.0064 6.54957 70.0137 6.55862 70.0194L7.4345 70.5718L6.59583 71.1004C6.57959 71.1107 6.56765 71.1261 6.56212 71.144C6.55659 71.1619 6.55783 71.1811 6.56563 71.1982C6.57343 71.2153 6.58727 71.2292 6.60471 71.2374C6.62214 71.2456 6.64203 71.2476 6.66083 71.243H6.66084Z" fill="#273747"/>
<path d="M5.17062 71.3092C5.18645 71.3054 5.20073 71.2971 5.21162 71.2853C5.2225 71.2736 5.22951 71.259 5.23173 71.2434C5.23395 71.2279 5.23129 71.212 5.22408 71.1979C5.21688 71.1838 5.20546 71.172 5.19129 71.1642L4.32162 70.6841L5.16219 70.0829C5.17083 70.0767 5.17812 70.069 5.18364 70.0601C5.18916 70.0512 5.19281 70.0413 5.19438 70.0311C5.19595 70.0208 5.19541 70.0104 5.19278 70.0003C5.19016 69.9903 5.1855 69.9808 5.17909 69.9725C5.17267 69.9642 5.16461 69.9572 5.15538 69.9519C5.14615 69.9465 5.13591 69.943 5.12527 69.9415C5.11462 69.94 5.10377 69.9405 5.09334 69.9431C5.0829 69.9456 5.07309 69.9501 5.06445 69.9562L4.12335 70.6294C4.11242 70.6372 4.10367 70.6475 4.09791 70.6594C4.09215 70.6712 4.08955 70.6843 4.09035 70.6974C4.09115 70.7105 4.09533 70.7231 4.1025 70.7343C4.10967 70.7454 4.1196 70.7547 4.13142 70.7612L5.10968 71.3012C5.12814 71.3114 5.14999 71.3143 5.17062 71.3092Z" fill="#273747"/>
<path d="M6.56698 71.764C6.57492 71.7621 6.5825 71.759 6.58945 71.7549C6.59866 71.7495 6.60668 71.7424 6.61304 71.7341C6.61941 71.7257 6.62399 71.7162 6.62655 71.7061C6.6291 71.696 6.62956 71.6856 6.62791 71.6753C6.62626 71.6651 6.62252 71.6552 6.61692 71.6464L5.27947 69.529C5.2681 69.5113 5.24987 69.4985 5.22878 69.4936C5.20769 69.4888 5.18544 69.4921 5.16692 69.503C5.14839 69.5139 5.13509 69.5313 5.12992 69.5516C5.12476 69.5719 5.12815 69.5934 5.13935 69.6113L6.4768 71.7286C6.48592 71.743 6.49961 71.7542 6.51584 71.7606C6.53207 71.767 6.54999 71.7682 6.56698 71.764Z" fill="#273747"/>
<path d="M129.166 86.384C129.066 86.433 128.964 86.4819 128.864 86.5293C126.273 87.7768 124.2 88.4858 121.365 89.2627C121.125 86.6888 120.894 82.1646 120.669 79.3601C120.61 78.6322 120.551 78.021 120.494 77.5899C120.479 77.3607 120.431 77.1347 120.35 76.9188L120.359 77.5899L120.384 79.3601L120.527 89.4838C117 90.3824 113.376 90.8853 109.729 90.9824C109.539 90.9871 109.352 90.9903 109.172 90.9935C109.108 90.995 109.046 90.9966 108.983 90.9966C108.778 90.9982 108.575 90.9998 108.37 90.9998C104.527 91.0025 100.697 90.5555 96.9658 89.6686C97.0461 87.1215 97.1265 82.6478 97.2036 79.3601C97.22 78.7174 97.2347 78.1189 97.2511 77.5899C97.2823 76.4593 97.3151 75.6445 97.3462 75.3713C97.3186 75.4197 97.2972 75.4711 97.2823 75.5244C97.1304 76.2054 97.0269 76.8955 96.9723 77.5899C96.9149 78.1189 96.8575 78.7174 96.8001 79.3601C96.4951 82.7757 96.177 87.4199 95.849 89.3891C93.8967 88.8759 91.9811 88.2413 90.1141 87.4894C89.1302 87.0946 88.1637 86.6688 87.2147 86.2119C87.3951 85.0749 87.5837 83.8006 87.7772 82.4789C87.9281 81.454 88.0839 80.4008 88.243 79.3601C88.4889 77.7526 96.8461 60.3934 98.8156 59.7854L98.8648 59.7728L98.8993 59.787L102.253 58.7953L102.743 58.65L103.073 58.5521L104.234 57.701L104.865 57.2383L105.457 56.804L106.615 55.9561L113.783 56.3808L115.179 59.6164L118.305 60.7171L118.359 60.6934L118.406 60.6745L118.456 60.6871C120.424 61.2949 122.119 62.5324 123.257 64.1943C123.411 64.417 123.598 64.7107 123.81 65.066C123.99 65.3676 124.187 65.7118 124.4 66.0924C124.704 66.634 125.035 67.2452 125.386 67.9068C125.463 68.0521 125.542 68.2005 125.62 68.3505C125.766 68.6284 125.914 68.9122 126.065 69.2017C126.414 69.8728 126.775 70.5739 127.136 71.2861C127.449 71.9035 127.765 73.1731 128.077 74.7886C128.334 76.1308 128.59 77.7131 128.838 79.3601C129.163 81.4951 128.817 84.0517 129.11 86.0161C129.128 86.1408 129.148 86.2624 129.166 86.384Z" fill="#0070C1"/>
<path d="M108.143 54.7943C112.747 54.7943 116.48 51.2002 116.48 46.7667C116.48 42.3331 112.747 38.739 108.143 38.739C103.538 38.739 99.8059 42.3331 99.8059 46.7667C99.8059 51.2002 103.538 54.7943 108.143 54.7943Z" fill="#FFB6B6"/>
<path opacity="0.2" d="M94.8109 74.7815L96.2044 69.6033L97.4348 74.0715L94.8109 74.7815Z" fill="black"/>
<path d="M131.892 71.4077C131.393 78.021 131.91 80.9329 129.158 86.3856C126.654 87.5656 124.046 88.5284 121.365 89.2627C121.086 89.3385 120.807 89.4122 120.527 89.4838C117 90.3824 113.377 90.8853 109.729 90.9824C109.539 90.9871 109.352 90.9902 109.172 90.9934C109.108 90.995 109.046 90.9966 108.983 90.9966C108.778 90.9981 108.575 90.9997 108.37 90.9997C104.527 91.0025 100.697 90.5555 96.9658 89.6685C96.5919 89.5801 96.2196 89.4869 95.849 89.389C93.8967 88.8758 91.9811 88.2413 90.1141 87.4894C89.1302 87.0946 88.1637 86.6687 87.2147 86.2119C86.9999 86.1076 86.7851 86.0034 86.5735 85.896C85.4862 84.0548 84.868 81.8156 84.8549 79.1248C85.6076 74.4885 130.229 67.4093 131.892 71.4077Z" fill="#2F2E41"/>
<path opacity="0.2" d="M131.89 72.54C131.916 72.1306 131.944 71.7077 131.977 71.2673C130.314 67.269 85.6934 74.3481 84.9407 78.9844C84.9427 79.4095 84.9616 79.822 84.9934 80.2247C86.8163 75.6487 129.207 68.9204 131.89 72.54Z" fill="black"/>
<path d="M83.7452 71.7195L87.4078 69.9561L84.3556 62.021L83.5512 58.0192C83.4467 57.4993 83.2023 57.0149 82.8425 56.6144C82.4827 56.2139 82.02 55.9114 81.5007 55.7371C80.9814 55.5627 80.4237 55.5226 79.8833 55.6209C79.3429 55.7191 78.8387 55.9522 78.4211 56.2968C77.8024 56.8075 77.4139 57.5297 77.3376 58.311C77.2613 59.0923 77.5033 59.8716 78.0124 60.4843L80.9982 64.0782L83.7452 71.7195Z" fill="#FFB6B6"/>
<path d="M87.4077 68.4865L82.5243 70.8377L86.2303 82.0192C86.4964 82.8222 86.9735 83.5453 87.6153 84.1185C88.257 84.6916 89.0417 85.0954 89.8932 85.2906C90.9432 85.5313 92.0454 85.4438 93.0402 85.0407C94.035 84.6376 94.8707 83.9399 95.426 83.0487L105.253 66.829C105.95 65.7114 106.165 64.3758 105.852 63.1076C105.54 61.8394 104.725 60.7391 103.581 60.0417C102.966 59.6666 102.276 59.4204 101.556 59.3192C100.835 59.218 100.101 59.2639 99.4001 59.454C98.6994 59.6442 98.0481 59.9743 97.4887 60.4228C96.9292 60.8714 96.4741 61.4283 96.153 62.0574L90.1547 74.3645L87.4077 68.4865Z" fill="#0070C1"/>
<path d="M34.7644 54.2405C39.8305 54.2405 43.9374 50.2859 43.9374 45.4077C43.9374 40.5295 39.8305 36.575 34.7644 36.575C29.6983 36.575 25.5914 40.5295 25.5914 45.4077C25.5914 50.2859 29.6983 54.2405 34.7644 54.2405Z" fill="#A0616A"/>
<path d="M25.7015 39.321C26.4474 38.353 27.5194 37.6648 28.3393 36.7542C28.7892 36.2545 29.1628 35.6883 29.6686 35.241C30.6083 34.4099 31.9226 34.0694 33.1978 34.027C34.5953 33.9924 35.9817 34.2752 37.2447 34.8523C38.5077 35.4295 39.6119 36.2849 40.4678 37.3492C41.1344 36.9729 41.8009 36.5966 42.4675 36.2203C42.7308 36.8877 42.9942 37.5551 43.2575 38.2225C43.4736 38.0416 43.7493 37.9403 44.0356 37.9364C44.3219 37.9325 44.6004 38.0264 44.8217 38.2014C45.043 38.3763 45.1929 38.6211 45.2447 38.8923C45.2965 39.1635 45.2469 39.4435 45.1047 39.6829C45.2633 39.2109 45.9901 39.1107 46.3908 39.4225C46.7915 39.7344 46.8988 40.2892 46.8334 40.7812C46.7514 41.3211 46.5035 41.825 46.1217 42.2281C45.7399 42.6312 45.2416 42.9152 44.6909 43.0435C43.8211 43.2301 42.8087 43.034 42.1125 43.5697C41.5543 43.9992 41.3858 44.7811 40.8162 45.1964C40.1143 45.7081 39.1223 45.4714 38.2498 45.5845C36.7233 45.7824 35.5146 47.2857 35.6981 48.7583C35.56 48.2936 35.4148 47.8155 35.1014 47.4381C34.7879 47.0606 34.26 46.8054 33.7792 46.9441C32.9845 47.1735 32.8545 48.2165 33.0471 48.9935C33.5579 51.0543 35.4938 54.3853 35.4938 54.3853C32.9801 55.34 29.9854 54.4372 28.046 52.6255C26.1065 50.8138 25.0965 48.2484 24.6564 45.6812C24.2833 43.5043 24.3362 41.093 25.7015 39.321Z" fill="#2F2E41"/>
<path d="M118.59 51.1921C120.336 47.3394 119.347 43.794 117.219 41.9133V41.9117C116.383 40.1067 115.271 38.714 113.999 38.3871C113.384 38.0065 112.787 37.5596 112.124 37.3322C111.816 37.221 111.487 37.1711 111.158 37.1854C110.828 37.1998 110.506 37.2782 110.209 37.4159L109.871 37.3291C109.584 36.6232 109.248 36.609 108.874 37.0733C107.434 36.4274 106.137 36.1384 104.982 36.1384C101.217 36.1384 98.9899 39.2082 98.3995 42.9191L101.547 43.7261L102.64 42.0475L102.135 43.8777L103.872 44.3214C106.516 47.636 103.352 55.282 99.3425 59.5362C100.297 59.2819 101.248 59.0672 102.194 58.8919L105.635 54.0345L103.503 58.4561C104.61 58.2997 106.022 58.4497 107.565 58.7514C108.085 58.0976 108.359 57.2259 108.09 56.449C108.53 57.2684 108.833 58.1492 108.989 59.0593C112.246 59.8252 116.688 60.2184 119.082 60.5089C121.017 59.9009 121.022 53.0334 118.59 51.1921Z" fill="#2F2E41"/>
<path d="M119.726 38.0866C121.004 40.8427 118.425 42.0282 116.062 41.9947C113.927 41.9644 112.112 40.5201 112.003 38.4667C111.951 37.4806 112.308 36.5149 112.995 35.782C113.682 35.0491 114.643 34.6091 115.667 34.5587C117.8 34.4537 118.855 36.2093 119.726 38.0866Z" fill="#2F2E41"/>
<path d="M60.4252 82.9522L58.3196 79.5704L65.3207 74.456L68.2316 71.4966C68.6097 71.1121 69.0861 70.8299 69.613 70.6783C70.1399 70.5266 70.6989 70.5107 71.2342 70.6323C71.7695 70.7538 72.2623 71.0085 72.6633 71.3709C73.0643 71.7332 73.3596 72.1906 73.5195 72.6973C73.7565 73.4481 73.6814 74.2582 73.3098 74.9567C72.9383 75.6551 72.2995 76.1873 71.5283 76.4408L67.0049 77.9278L60.4252 82.9522Z" fill="#A0616A"/>
<path d="M61.947 82.8407L58.6688 85.4715L57.7849 86.1805L57.6816 86.2626C57.4536 86.3716 57.224 86.479 56.9928 86.5848C56.3007 86.9022 55.5999 87.2038 54.8904 87.4896C53.0234 88.2415 51.1078 88.8761 49.1555 89.3893C48.7849 89.4872 48.4127 89.5804 48.0387 89.6688C47.8108 89.7225 47.5812 89.7762 47.3516 89.8267C47.2073 89.8599 47.0613 89.8914 46.9154 89.9214C46.7383 89.9593 46.5612 89.9972 46.384 90.032C46.1987 90.0699 46.0134 90.1062 45.8281 90.1409C45.3295 89.6841 44.9325 89.1344 44.6613 88.5252C44.3901 87.9161 44.2503 87.2602 44.2505 86.5974C44.2505 86.5548 44.2505 86.5105 44.2521 86.4663L44.7785 73.4655L45.0114 67.7033C45.0473 66.4002 45.611 65.1623 46.5821 64.2541C47.5532 63.3459 48.8546 62.8394 50.2084 62.8428C50.3658 62.8428 50.5216 62.8507 50.6758 62.8649C50.7873 63.0039 50.8906 63.1476 50.9906 63.2928C51.2629 63.6813 51.6302 64.2956 52.0632 65.0662C52.2419 65.3836 52.4305 65.7278 52.6289 66.0926C52.7487 66.3121 53.7818 69.4166 54.7871 72.5875L54.3443 75.8989L53.544 81.868L56.8272 79.793L59.1395 78.3308L59.4134 78.7713L60.1267 79.9178L61.5043 82.1285L61.947 82.8407Z" fill="#0070C1"/>
<path d="M60.1497 79.1251C60.148 79.3935 60.1415 79.6573 60.1267 79.9178C60.0925 80.6365 60.006 81.3521 59.8676 82.0591C59.6413 83.2464 59.2375 84.3958 58.6688 85.4716C58.5934 85.6153 58.513 85.7574 58.431 85.8963C58.2195 86.0037 58.0046 86.1079 57.7898 86.2122C57.7537 86.2295 57.7176 86.2469 57.6816 86.2627C56.7681 86.7001 55.8377 87.1091 54.8904 87.4897C53.0234 88.2416 51.1078 88.8761 49.1555 89.3893C48.7849 89.4872 48.4126 89.5804 48.0387 89.6688C47.309 89.8425 46.5721 89.9999 45.8281 90.141C42.7998 90.7138 39.7208 91.0015 36.6346 91C36.4296 91 36.2263 90.9985 36.0213 90.9969C35.959 90.9969 35.8966 90.9953 35.8327 90.9937C35.6523 90.9906 35.4653 90.9874 35.2751 90.9827C31.628 90.8856 28.0048 90.3827 24.4777 89.4841C24.1973 89.413 23.918 89.3393 23.6397 89.263C20.9585 88.5287 18.3505 87.5659 15.8468 86.3859C13.0949 80.9332 13.6115 78.0213 13.113 71.408C14.1363 68.9461 31.4491 70.6847 44.7785 73.4655C48.3962 74.2204 51.7188 75.0525 54.3443 75.899C57.0568 76.7722 59.023 77.6597 59.7938 78.4935C59.9739 78.666 60.0976 78.8856 60.1497 79.1251Z" fill="#2F2E41"/>
<path opacity="0.2" d="M13.1139 72.54C13.0885 72.1306 13.06 71.7077 13.0268 71.2673C14.6897 67.269 59.3107 74.3481 60.0635 78.9844C60.0614 79.4095 60.0425 79.822 60.0108 80.2247C58.1879 75.6487 15.7973 68.9204 13.1139 72.54Z" fill="black"/>
</g>
<defs>
<clipPath id="clip0_143_439">
<rect width="144.341" height="91" fill="white" transform="translate(0.406433)"/>
</clipPath>
</defs>
</svg>
