<svg width="145" height="151" viewBox="0 0 145 151" fill="none" xmlns="http://www.w3.org/2000/svg">
<g clip-path="url(#clip0_143_360)">
<path d="M62.9476 140.886L62.4887 142.819L62.5991 142.935C62.5746 142.994 62.5501 143.053 62.5206 143.112C62.2768 143.642 61.9981 144.157 61.6862 144.653C61.2739 145.312 60.8125 145.948 60.3339 146.572C60.0713 146.917 59.8014 147.26 59.5314 147.6C59.5241 147.611 59.5158 147.623 59.5069 147.633C59.5098 147.621 59.5139 147.609 59.5191 147.598L59.4308 147.579L58.9228 145.456L58.7682 145.792V145.794L58.5178 146.35C58.5375 146.451 58.5571 146.551 58.5816 146.65C58.5792 146.647 58.5792 146.643 58.5767 146.64C58.5743 146.638 58.5743 146.638 58.5743 146.636C58.5424 146.569 58.508 146.506 58.4761 146.439L58.0933 147.286L57.3177 147.115C56.9103 146.912 56.5029 146.707 56.098 146.494C50.5663 143.603 45.4444 139.914 41.9962 134.892C40.6256 132.891 39.5896 130.696 38.926 128.386C37.618 123.796 37.8437 118.856 40.2243 114.756C40.2243 114.756 40.2244 114.755 40.2245 114.755C40.2246 114.755 40.2248 114.755 40.225 114.754C40.2252 114.754 40.2255 114.754 40.2258 114.754C40.2261 114.754 40.2264 114.754 40.2268 114.754C40.2857 114.65 40.347 114.546 40.4108 114.442C40.4575 114.56 40.5016 114.678 40.5507 114.796V114.799C41.1906 116.403 41.9628 117.956 42.8601 119.443C42.9288 119.558 42.9975 119.674 43.0712 119.788C45.2631 123.331 48.1191 126.451 51.4939 128.991C51.5031 128.999 51.513 129.007 51.5234 129.014C51.5351 129.024 51.5474 129.032 51.5602 129.04C52.3112 129.607 53.0875 130.141 53.8892 130.64V130.643C54.515 131.035 55.158 131.406 55.8108 131.758C57.2024 132.505 58.7166 133.223 60.0173 134.119C61.2812 134.987 62.3463 136.019 62.9133 137.402C62.9574 137.513 62.9992 137.624 63.036 137.735L62.0249 140.739L62.9476 140.886Z" fill="#F0F0F0"/>
<path d="M58.7682 160.738V160.741L58.5178 161.296C58.1399 159.273 58.589 157.134 58.2773 155.085C58.243 154.856 58.1988 154.626 58.1424 154.4C57.8233 153.104 57.0944 151.892 55.7986 151.313C55.4204 151.147 55.0234 151.024 54.6157 150.947C53.8107 150.781 52.9714 150.746 52.1591 150.654C51.9554 150.63 51.7541 150.604 51.5578 150.569C50.5074 150.412 49.5045 150.039 48.6177 149.474C47.5319 148.731 46.5858 147.815 45.8199 146.766C45.3138 146.107 44.8428 145.424 44.4087 144.719C44.3498 144.629 44.2958 144.537 44.2394 144.445C43.2237 142.751 42.3907 140.961 41.7533 139.104C41.425 138.154 41.1497 137.189 40.9287 136.211C40.4368 134.074 40.2005 131.891 40.2243 129.702C40.2243 129.702 40.2244 129.702 40.2245 129.701C40.2246 129.701 40.2248 129.701 40.225 129.701C40.2253 129.7 40.2255 129.7 40.2258 129.7C40.2261 129.7 40.2265 129.7 40.2268 129.7C40.2243 129.601 40.2268 129.501 40.2293 129.402C40.2342 129.199 40.5606 129.244 40.5557 129.447C40.5532 129.546 40.5507 129.643 40.5507 129.742V129.745C40.5308 131.841 40.7505 133.934 41.206 135.984C41.2306 136.088 41.2551 136.192 41.2772 136.296C41.9407 139.137 43.0558 141.863 44.583 144.376C44.6002 144.405 44.6173 144.433 44.637 144.462C44.9928 145.045 45.3757 145.613 45.7782 146.168C46.5177 147.237 47.427 148.188 48.4729 148.985C49.3529 149.619 50.375 150.046 51.4572 150.231C51.5651 150.249 51.6731 150.268 51.7836 150.285C51.8695 150.299 51.9578 150.311 52.0462 150.32C52.8732 150.42 53.7224 150.457 54.5445 150.609C54.9183 150.677 55.2854 150.776 55.6415 150.904C56.2246 151.129 56.7517 151.47 57.1882 151.905C57.6247 152.34 57.9608 152.859 58.1743 153.428C58.3931 153.98 58.543 154.556 58.6209 155.142C58.6479 155.333 58.6675 155.525 58.6847 155.718V155.721C58.7093 156.033 58.7215 156.347 58.7264 156.661C58.7314 157.054 58.724 157.446 58.7142 157.836C58.6597 158.803 58.6778 159.773 58.7682 160.738Z" fill="white"/>
<path d="M44.5483 144.653C43.6132 145.11 42.5396 145.233 41.5194 144.998C40.4991 144.764 39.5986 144.188 38.9787 143.373C38.8539 143.208 39.1147 143.013 39.2397 143.179C39.8155 143.938 40.6544 144.475 41.6049 144.691C42.5554 144.908 43.555 144.79 44.4232 144.359C44.6119 144.266 44.736 144.56 44.5483 144.653H44.5483Z" fill="white"/>
<path d="M51.4252 150.325C52.1086 148.368 52.0008 146.235 51.1234 144.351C51.0364 144.164 51.3417 144.044 51.4286 144.23C52.3378 146.192 52.4453 148.412 51.7295 150.448C51.6611 150.641 51.3572 150.518 51.4252 150.325H51.4252Z" fill="white"/>
<path d="M41.1107 136.013C41.5108 135.909 41.8777 135.711 42.1786 135.436C42.4794 135.161 42.7046 134.819 42.8341 134.44C42.8999 134.245 43.2037 134.369 43.1384 134.562C42.9933 134.981 42.7441 135.358 42.4124 135.663C42.0808 135.967 41.6768 136.188 41.2358 136.307C41.1953 136.322 41.1504 136.321 41.1105 136.305C41.0705 136.289 41.0384 136.259 41.0207 136.221C41.0043 136.182 41.0046 136.138 41.0214 136.099C41.0383 136.06 41.0703 136.03 41.1107 136.013H41.1107Z" fill="white"/>
<path d="M66.7884 133.103L66.4448 134.261L64.3342 133.88L63.6348 135.958L63.5145 136.315L63.036 137.735L62.0248 140.739L62.9476 140.886L62.4887 142.819L62.5991 142.935L62.6335 142.97L62.8617 143.211L64.2508 144.672L60.4517 147.803L59.8431 147.668L59.5314 147.6C59.524 147.611 59.5158 147.623 59.5068 147.633C59.5098 147.621 59.5139 147.609 59.5191 147.598L59.4308 147.579L58.9227 145.456L58.7681 145.792V145.794L58.5178 146.35C58.5374 146.451 58.5571 146.551 58.5816 146.65C58.5791 146.647 58.5792 146.643 58.5767 146.64C58.5742 146.638 58.5742 146.638 58.5742 146.636C58.5423 146.569 58.508 146.506 58.4761 146.439C57.9901 145.463 57.5263 144.473 57.0968 143.471C56.0384 141.058 55.208 138.557 54.6156 136C54.5911 135.889 54.5641 135.778 54.5445 135.665V135.662C54.1845 134.009 53.9653 132.33 53.8892 130.643V130.64C53.85 129.716 53.8598 128.791 53.9186 127.868C54.0739 125.482 54.618 123.135 55.531 120.913C55.536 120.901 55.5409 120.891 55.5458 120.88C57.2956 116.64 60.3756 112.962 64.5625 111.003C64.7367 110.918 64.9159 110.838 65.095 110.762H65.0999L65.1024 110.76C65.2153 110.712 65.3257 110.667 65.4386 110.62C65.4018 110.743 65.3625 110.866 65.3282 110.991C64.8329 112.643 64.4783 114.33 64.268 116.037V116.039C64.2483 116.169 64.2311 116.304 64.2164 116.436V116.439C63.7534 120.556 64.0879 124.72 65.203 128.719C65.2054 128.731 65.2103 128.74 65.2128 128.752C65.6292 130.237 66.1558 131.691 66.7884 133.103Z" fill="#F0F0F0"/>
<path d="M65.5196 125.699C65.4558 125.777 65.3895 125.857 65.3282 125.938C64.8496 126.535 64.3972 127.152 63.971 127.788C63.2119 128.91 62.5378 130.083 61.9537 131.298C61.907 131.392 61.8604 131.489 61.8162 131.586C60.5664 134.241 59.7517 137.066 59.4013 139.962C59.3964 139.99 59.394 140.016 59.3915 140.045C59.3105 140.72 59.2582 141.399 59.2344 142.079C59.1562 143.361 59.2878 144.647 59.6246 145.889C59.6737 146.052 59.7277 146.213 59.7866 146.369C59.9343 146.751 60.1192 147.119 60.3388 147.468C60.4966 147.722 60.6721 147.966 60.864 148.198C60.9794 148.34 61.0996 148.479 61.2272 148.614C61.3009 148.692 61.3769 148.77 61.453 148.848C61.5168 148.907 61.5782 148.969 61.642 149.028C62.3046 149.647 63.036 150.221 63.6348 150.904L63.5145 151.261C62.9378 150.557 62.1942 149.973 61.5242 149.359C61.1036 148.978 60.7207 148.56 60.3805 148.111C60.3364 148.049 60.2897 147.988 60.248 147.924C60.0206 147.604 59.8243 147.265 59.6615 146.91C59.578 146.733 59.502 146.551 59.4332 146.362C59.0323 145.14 58.8497 143.861 58.8933 142.58C58.9012 141.76 58.952 140.94 59.0455 140.125C59.0553 140.019 59.0676 139.915 59.0823 139.808C59.3311 137.867 59.7851 135.955 60.437 134.103C61.2621 131.753 62.397 129.515 63.8139 127.443C64.2189 126.85 64.6484 126.271 65.1024 125.706C65.1613 125.628 65.2226 125.552 65.2865 125.474C65.4165 125.314 65.6497 125.538 65.5196 125.699Z" fill="white"/>
<path d="M59.1992 140.155C58.1665 139.978 57.2328 139.453 56.5648 138.674C55.8967 137.895 55.5379 136.913 55.5524 135.903C55.5534 135.862 55.5709 135.823 55.6013 135.794C55.6317 135.765 55.6726 135.749 55.7154 135.748C55.7582 135.748 55.7995 135.763 55.8306 135.791C55.8617 135.82 55.8803 135.858 55.8823 135.9C55.867 136.84 56.2014 137.755 56.825 138.479C57.4486 139.203 58.3203 139.688 59.283 139.847C59.4921 139.882 59.4071 140.189 59.1992 140.155Z" fill="white"/>
<path d="M61.1437 148.67C62.9129 147.504 64.1606 145.738 64.638 143.725C64.6851 143.526 65.0041 143.607 64.957 143.806C64.4562 145.9 63.1539 147.735 61.31 148.945C61.1342 149.06 60.9688 148.785 61.1437 148.67H61.1437Z" fill="white"/>
<path d="M61.8559 131.263C62.2406 131.412 62.6577 131.466 63.0696 131.421C63.4815 131.376 63.8754 131.234 64.2159 131.006C64.3901 130.889 64.5553 131.164 64.3823 131.28C64.0049 131.53 63.5697 131.687 63.1147 131.738C62.6597 131.788 62.1987 131.731 61.7721 131.57C61.7306 131.559 61.6953 131.532 61.6734 131.496C61.6516 131.46 61.6448 131.417 61.6545 131.376C61.6658 131.336 61.6933 131.301 61.731 131.28C61.7687 131.259 61.8136 131.253 61.8559 131.263Z" fill="white"/>
<path d="M96.8423 26.4527C94.9842 16.8762 97.9095 5.98143 106.04 0.184814C105.579 10.7698 109.021 21.1706 115.757 29.547C118.367 32.7684 121.618 36.0896 121.517 40.1743C121.454 42.7158 120.027 45.0836 118.146 46.8673C116.265 48.6511 113.948 49.9372 111.658 51.2032L111.302 51.7371C104.591 44.4473 98.7003 36.0291 96.8423 26.4527Z" fill="#F0F0F0"/>
<path d="M106.188 0.331261C102.772 7.69349 101.852 15.9051 103.558 23.7996C103.935 25.4888 104.469 27.1708 105.375 28.6715C106.27 30.1278 107.554 31.3267 109.092 32.1437C110.511 32.9333 112.058 33.5826 113.252 34.6906C114.512 35.8584 115.073 37.4523 115.026 39.1176C114.969 41.1551 114.155 43.0513 113.292 44.879C112.334 46.9083 111.305 49.0015 111.367 51.2831C111.375 51.5595 110.929 51.5546 110.921 51.2786C110.813 47.3091 113.793 44.1212 114.457 40.3124C114.767 38.5351 114.523 36.6572 113.225 35.2795C112.09 34.0748 110.496 33.4039 109.053 32.6164C107.537 31.7896 106.246 30.768 105.287 29.3518C104.305 27.903 103.701 26.2376 103.282 24.5651C102.36 20.7657 102.065 16.8503 102.406 12.9624C102.77 8.52317 103.92 4.17656 105.806 0.110678C105.923 -0.140927 106.304 0.0812979 106.188 0.331261H106.188Z" fill="white"/>
<path d="M102.854 21.2887C101.439 21.3845 100.036 20.9931 98.8934 20.1844C97.7511 19.3756 96.9445 18.2022 96.6177 16.8737C96.5525 16.6046 96.9836 16.4945 97.0489 16.7639C97.3508 18.0015 98.1022 19.0945 99.1675 19.8455C100.233 20.5965 101.542 20.9561 102.858 20.8593C103.144 20.8386 103.138 21.2681 102.854 21.2887Z" fill="white"/>
<path d="M108.318 31.8348C110.238 29.744 111.269 27.0332 111.206 24.2428C111.199 23.9664 111.645 23.9712 111.652 24.2473C111.712 27.1511 110.633 29.9701 108.63 32.1415C108.439 32.3484 108.128 32.0405 108.318 31.8348V31.8348Z" fill="white"/>
<path d="M103.292 8.7897C103.848 8.86242 104.413 8.8012 104.937 8.61152C105.462 8.42185 105.93 8.10967 106.298 7.70302C106.486 7.49395 106.797 7.80209 106.61 8.00979C106.201 8.45725 105.684 8.80141 105.105 9.0122C104.526 9.22299 103.902 9.29401 103.288 9.21904C103.229 9.21664 103.174 9.19289 103.133 9.1526C103.092 9.1123 103.068 9.0585 103.067 9.00211C103.068 8.94527 103.092 8.89107 103.134 8.85129C103.176 8.81152 103.233 8.78938 103.292 8.78969V8.7897Z" fill="white"/>
<path d="M139.29 8.10608C139.177 8.23985 139.063 8.37362 138.95 8.5109C137.431 10.317 136.068 12.2389 134.872 14.2576C134.777 14.4123 134.683 14.5704 134.593 14.7274C131.767 19.6206 129.908 24.9766 129.112 30.5231C128.798 32.7305 128.658 34.9577 128.694 37.1855C128.744 40.2622 129.053 43.5943 128.074 46.424C127.975 46.7203 127.857 47.0104 127.721 47.2927L112.006 52.1145C111.965 52.1082 111.924 52.1053 111.883 52.0991L111.264 52.3192C111.254 52.2045 111.246 52.0852 111.236 51.9705C111.23 51.9039 111.227 51.8363 111.221 51.7697C111.218 51.725 111.215 51.6802 111.209 51.6401C111.208 51.6252 111.207 51.6102 111.208 51.5988C111.202 51.5586 111.202 51.5207 111.197 51.484C111.151 50.8176 111.107 50.15 111.071 49.4803C111.07 49.4768 111.07 49.4768 111.073 49.4723C110.803 44.3711 110.973 39.2035 111.952 34.225C111.982 34.0752 112.01 33.922 112.047 33.77C112.501 31.5283 113.145 29.3261 113.972 27.1854C114.428 26.0146 114.946 24.8668 115.523 23.7465C117.021 20.8544 118.981 18.2072 121.332 15.9017C126.021 11.3065 132.183 8.20638 138.786 8.10876C138.955 8.10639 139.12 8.10501 139.29 8.10608Z" fill="#F0F0F0"/>
<path d="M139.318 8.30884C131.988 12.2066 126.119 18.2295 122.546 25.5222C121.79 27.089 121.165 28.7418 120.951 30.4654C120.755 32.147 121.03 33.8485 121.748 35.393C122.387 36.8461 123.216 38.2611 123.477 39.8385C123.753 41.5012 123.204 43.099 122.126 44.4015C120.806 45.9952 118.971 47.0373 117.139 47.9962C115.105 49.061 112.975 50.1359 111.598 51.9936C111.431 52.2187 111.078 51.9562 111.245 51.7315C113.64 48.4994 118.013 47.6819 120.924 45.0257C122.283 43.7863 123.262 42.1451 123.087 40.2929C122.934 38.6732 122.081 37.2133 121.421 35.7474C120.727 34.2082 120.335 32.6442 120.455 30.9572C120.577 29.2315 121.136 27.5517 121.847 25.9731C123.486 22.4051 125.698 19.1075 128.401 16.2011C131.467 12.8676 135.103 10.0638 139.151 7.91087C139.401 7.77772 139.567 8.17655 139.318 8.30883V8.30884Z" fill="white"/>
<path d="M123.553 23.1089C122.364 22.3655 121.488 21.2392 121.081 19.9312C120.675 18.6231 120.765 17.2186 121.334 15.9683C121.451 15.7157 121.864 15.8777 121.747 16.1306C121.215 17.2939 121.131 18.6023 121.512 19.8196C121.893 21.0369 122.714 22.0829 123.825 22.7688C124.067 22.9182 123.793 23.2574 123.553 23.1089H123.553Z" fill="white"/>
<path d="M121.323 34.6973C124.163 34.1411 126.681 32.5745 128.375 30.3098C128.543 30.0853 128.896 30.3477 128.728 30.5719C126.961 32.9254 124.337 34.5506 121.38 35.1232C121.098 35.1776 121.043 34.7514 121.323 34.6973H121.323Z" fill="white"/>
<path d="M131.718 13.3835C132.116 13.7635 132.605 14.0424 133.143 14.1951C133.68 14.3478 134.249 14.3696 134.797 14.2585C135.078 14.2007 135.133 14.6269 134.854 14.6843C134.248 14.8044 133.62 14.7796 133.026 14.6121C132.432 14.4447 131.889 14.1396 131.446 13.7237C131.4 13.6878 131.371 13.6367 131.364 13.5808C131.356 13.5249 131.371 13.4683 131.405 13.4226C131.441 13.3777 131.495 13.3484 131.553 13.3411C131.612 13.3338 131.671 13.3491 131.718 13.3836V13.3835Z" fill="white"/>
<path d="M38.3039 15.0125C37.4355 14.4222 36.4855 13.8067 35.4229 13.8313C32.8511 13.8908 31.4645 17.5215 28.8953 17.3938C27.2569 17.3124 26.1693 15.7096 24.6437 15.1284C22.6576 14.3718 20.1301 15.8515 19.9134 17.8977L20.1685 17.6729C27.8889 19.4854 35.9007 19.8418 43.7617 18.7225C41.9425 17.4859 40.1232 16.2492 38.3039 15.0125Z" fill="#F0F0F0"/>
<path d="M43.116 19.3796C48.0446 19.3796 52.0401 15.532 52.0401 10.7858C52.0401 6.0395 48.0446 2.19189 43.116 2.19189C38.1874 2.19189 34.1919 6.0395 34.1919 10.7858C34.1919 15.532 38.1874 19.3796 43.116 19.3796Z" fill="#FF6582"/>
<path d="M64.005 9.14419C62.8983 8.39193 61.6876 7.60749 60.3334 7.63885C57.0558 7.71475 55.2887 12.3417 52.0146 12.179C49.9265 12.0752 48.5404 10.0326 46.5962 9.29189C44.0651 8.32767 40.844 10.2135 40.5679 12.8212L40.893 12.5347C50.732 14.8445 60.9423 15.2988 70.9605 13.8723C68.642 12.2963 66.3235 10.7202 64.005 9.14419Z" fill="#F0F0F0"/>
<path d="M144.277 95.4142L134.807 46.5822C134.645 45.7772 134.204 45.0492 133.556 44.5174C132.907 43.9856 132.091 43.6816 131.24 43.6553C131.163 43.6536 131.087 43.6536 131.01 43.6553L124.559 43.8782L123.864 43.9027L120.645 44.0142L119.95 44.0371L117.879 44.1092L76.1173 45.553C76.0544 45.5563 75.9897 45.5563 75.9267 45.5547L66.5686 45.3662L63.1055 45.2974L62.9948 45.2957L60.4387 45.2433L38.1657 44.7975L32.2605 44.6779L29.3488 44.6206L28.651 44.6058L25.3309 44.5402L24.6348 44.5255L21.2381 44.4583L20.542 44.4436L16.81 44.3682L16.2246 44.3567L12.8959 44.2895L12.37 44.2797H12.2935C11.4098 44.2831 10.5558 44.5874 9.88251 45.1386C9.20922 45.6898 8.75998 46.4525 8.61421 47.2918L0.0490946 97.9642C-0.0378851 98.4775 -0.00794435 99.0028 0.136843 99.5039C0.28163 100.005 0.537796 100.47 0.887606 100.866C1.23742 101.262 1.6725 101.581 2.16272 101.799C2.65294 102.017 3.18657 102.13 3.72665 102.13H52.9151C53.6391 102.132 54.3437 102.356 54.9267 102.769L55.8592 103.435C56.502 103.89 57.2786 104.137 58.0767 104.139H87.0649C87.5547 104.14 88.0399 104.048 88.4924 103.867C88.9449 103.687 89.3557 103.422 89.701 103.087C90.2915 102.519 91.0795 102.181 91.9133 102.138L140.809 99.6571C141.339 99.6304 141.858 99.4949 142.329 99.2597C142.8 99.0244 143.214 98.6949 143.543 98.2931C143.871 97.8914 144.106 97.4267 144.233 96.9301C144.36 96.4336 144.375 95.9168 144.277 95.4142V95.4142Z" fill="#CCCCCC"/>
<path d="M136.527 94.0867L131.248 43.7208C131.247 43.6996 131.243 43.6766 131.24 43.6553C131.141 42.8506 130.729 42.112 130.086 41.5888L118.73 32.4786C118.236 32.0794 117.622 31.8433 116.979 31.805C111.783 31.4838 85.37 30.294 75.6204 38.4439C75.3246 38.6918 74.976 38.8742 74.5991 38.9784C74.2221 39.0826 73.8261 39.106 73.4387 39.0469C73.0505 38.9863 72.6805 38.8457 72.3539 38.6347C72.0273 38.4237 71.7519 38.1473 71.5464 37.8244C70.7173 36.5801 69.6312 35.5135 68.3555 34.691C67.7827 34.308 67.186 33.9593 66.5686 33.647C66.0224 33.3701 65.4284 33.1013 64.7818 32.8424C64.2253 32.6195 63.6313 32.4048 62.9949 32.1999C59.6951 31.138 55.2841 30.3448 49.3891 30.0793C46.9436 29.9679 44.2854 29.9531 41.4894 30.0334C38.9367 30.1055 36.224 30.2547 33.428 30.4775L33.3872 30.4792L14.4684 41.6019C14.0443 41.8565 13.6858 42.2007 13.4202 42.6084C13.1545 43.0161 12.9887 43.4767 12.9351 43.9552L12.8959 44.2895L6.88863 95.9796C6.83674 96.4188 6.87867 96.8635 7.01182 97.2866C7.14498 97.7096 7.36656 98.1019 7.66294 98.4394C7.95145 98.7685 8.31071 99.0333 8.71589 99.2155C9.12108 99.3977 9.56252 99.493 10.0097 99.4948H56.6251C57.2449 99.4979 57.8453 99.703 58.3286 100.077L60.3639 101.647C60.8942 102.057 61.5507 102.286 62.2308 102.299L82.7271 102.622H82.7765C83.294 102.621 83.8029 102.493 84.2553 102.251L88.2085 100.137C88.5692 99.9439 88.9707 99.8318 89.3828 99.8095L133.561 97.5627C133.992 97.5405 134.413 97.4313 134.796 97.2421C135.18 97.0529 135.518 96.788 135.789 96.4647C136.07 96.1355 136.28 95.7556 136.407 95.3473C136.534 94.939 136.575 94.5105 136.527 94.0867Z" fill="#E6E6E6"/>
<path d="M121.107 85.0037L120.489 77.1643L117.88 44.1101L117.492 39.2203C117.394 37.9359 116.803 36.7327 115.834 35.8453C114.864 34.9579 113.587 34.4499 112.25 34.4202C102.691 34.1839 85.3814 34.5999 76.8875 40.0805C75.9427 40.699 74.7968 40.9656 73.6631 40.8309C72.5293 40.6961 71.4852 40.169 70.725 39.3479C69.5497 38.1053 68.1385 37.0906 66.5676 36.3582C65.418 35.803 64.2228 35.3398 62.9943 34.9733C59.3989 33.8672 54.8619 33.1952 49.3834 32.9573L36.3811 32.884H36.359C35.4583 32.8848 34.5917 33.2158 33.9353 33.8098C33.2789 34.4037 32.8819 35.216 32.825 36.0817L32.2605 44.6773L29.7941 82.3732C29.7479 83.0755 29.8504 83.7794 30.0954 84.4423C30.3404 85.1053 30.7227 85.7133 31.2191 86.2296C31.7156 86.7459 32.3158 87.1597 32.9833 87.4458C33.6509 87.7319 34.3718 87.8845 35.1025 87.8941C56.9275 88.2061 66.4621 92.6421 70.6195 96.3054C71.5035 97.0864 72.6327 97.5611 73.8285 97.6544C75.0243 97.7477 76.2182 97.4543 77.2212 96.8206C84.7678 92.0607 97.3137 90.7372 107.3 90.5316C110.358 90.4702 113.175 90.5103 115.536 90.5907C116.295 90.617 117.051 90.4887 117.755 90.2142C118.458 89.9397 119.094 89.5252 119.62 88.9978C120.146 88.4704 120.55 87.842 120.806 87.1537C121.063 86.4654 121.165 85.7327 121.107 85.0037Z" fill="white"/>
<path d="M12.7581 95.9374C12.7499 95.9374 12.7414 95.9371 12.7333 95.9364C12.6878 95.9333 12.6433 95.9216 12.6025 95.902C12.5617 95.8824 12.5252 95.8552 12.4953 95.822C12.4654 95.7888 12.4426 95.7503 12.4281 95.7086C12.4137 95.6669 12.4079 95.6229 12.4111 95.5791L16.1663 44.5176C16.169 44.4736 16.1808 44.4306 16.201 44.391C16.2212 44.3515 16.2494 44.3162 16.284 44.2873C16.3185 44.2584 16.3588 44.2364 16.4023 44.2227C16.4458 44.209 16.4917 44.2038 16.5373 44.2074C16.5829 44.2105 16.6273 44.2222 16.6681 44.2418C16.7089 44.2614 16.7454 44.2886 16.7753 44.3218C16.8052 44.355 16.828 44.3935 16.8425 44.4352C16.8569 44.4769 16.8627 44.5209 16.8595 44.5647L13.1043 95.6262C13.0982 95.7106 13.0591 95.7897 12.9948 95.8474C12.9306 95.9052 12.846 95.9373 12.7581 95.9374Z" fill="white"/>
<path d="M17.277 93.9288C17.2689 93.9288 17.2604 93.9285 17.2523 93.9279C17.2067 93.9248 17.1623 93.9131 17.1215 93.8935C17.0806 93.8738 17.0442 93.8467 17.0143 93.8135C16.9844 93.7803 16.9616 93.7418 16.9471 93.7001C16.9327 93.6584 16.9269 93.6144 16.9301 93.5706L20.6853 42.5091C20.688 42.4651 20.6997 42.422 20.72 42.3825C20.7402 42.3429 20.7684 42.3076 20.8029 42.2787C20.8375 42.2498 20.8777 42.2279 20.9213 42.2142C20.9648 42.2004 21.0107 42.1952 21.0563 42.1989C21.1018 42.202 21.1463 42.2136 21.1871 42.2333C21.2279 42.2529 21.2643 42.2801 21.2943 42.3133C21.3242 42.3464 21.347 42.385 21.3615 42.4267C21.3759 42.4683 21.3817 42.5123 21.3785 42.5562L17.6233 93.6176C17.6172 93.7021 17.5781 93.7811 17.5138 93.8389C17.4495 93.8966 17.3649 93.9288 17.277 93.9288Z" fill="white"/>
<path d="M21.4484 92.9247C21.4402 92.9247 21.4317 92.9243 21.4236 92.9237C21.3781 92.9206 21.3336 92.9089 21.2928 92.8893C21.252 92.8697 21.2156 92.8425 21.1856 92.8093C21.1557 92.7761 21.1329 92.7376 21.1184 92.6959C21.104 92.6542 21.0982 92.6102 21.1014 92.5664L24.8566 41.505C24.8593 41.4609 24.8711 41.4179 24.8913 41.3783C24.9115 41.3388 24.9397 41.3035 24.9743 41.2746C25.0089 41.2457 25.0491 41.2237 25.0926 41.21C25.1361 41.1963 25.182 41.1911 25.2276 41.1947C25.2732 41.1978 25.3176 41.2095 25.3584 41.2291C25.3993 41.2488 25.4357 41.2759 25.4656 41.3091C25.4955 41.3423 25.5183 41.3808 25.5328 41.4225C25.5472 41.4642 25.553 41.5082 25.5498 41.552L21.7946 92.6135C21.7885 92.6979 21.7494 92.777 21.6851 92.8347C21.6209 92.8925 21.5363 92.9246 21.4484 92.9247Z" fill="white"/>
<path d="M25.6198 90.9161C25.6117 90.9161 25.6032 90.9158 25.595 90.9151C25.5495 90.9121 25.505 90.9004 25.4642 90.8808C25.4234 90.8611 25.387 90.8339 25.3571 90.8008C25.3271 90.7676 25.3043 90.7291 25.2899 90.6874C25.2754 90.6457 25.2696 90.6017 25.2729 90.5578L29.028 39.4964C29.0307 39.4524 29.0425 39.4093 29.0627 39.3698C29.0829 39.3302 29.1111 39.295 29.1457 39.266C29.1803 39.2371 29.2205 39.2152 29.264 39.2015C29.3075 39.1878 29.3534 39.1826 29.3991 39.1862C29.4446 39.1893 29.489 39.201 29.5299 39.2206C29.5707 39.2402 29.6071 39.2674 29.637 39.3006C29.6669 39.3337 29.6898 39.3723 29.7042 39.414C29.7187 39.4556 29.7244 39.4997 29.7212 39.5435L25.9661 90.6049C25.9599 90.6894 25.9208 90.7684 25.8566 90.8262C25.7923 90.8839 25.7077 90.9161 25.6198 90.9161Z" fill="white"/>
<path d="M132.337 96.2721C132.345 96.2721 132.353 96.2718 132.361 96.2711C132.407 96.268 132.451 96.2563 132.492 96.2367C132.533 96.2171 132.569 96.1899 132.599 96.1567C132.629 96.1235 132.652 96.085 132.667 96.0433C132.681 96.0016 132.687 95.9576 132.684 95.9138L128.928 44.8524C128.926 44.8084 128.914 44.7653 128.894 44.7257C128.873 44.6862 128.845 44.6509 128.811 44.622C128.776 44.5931 128.736 44.5711 128.692 44.5574C128.649 44.5437 128.603 44.5385 128.557 44.5421C128.512 44.5452 128.467 44.5569 128.426 44.5765C128.386 44.5962 128.349 44.6233 128.319 44.6565C128.289 44.6897 128.267 44.7282 128.252 44.7699C128.238 44.8116 128.232 44.8556 128.235 44.8994L131.99 95.9609C131.996 96.0453 132.036 96.1244 132.1 96.1821C132.164 96.2399 132.249 96.272 132.337 96.2721Z" fill="white"/>
<path d="M127.818 93.2594C127.826 93.2594 127.834 93.2591 127.842 93.2584C127.888 93.2553 127.932 93.2436 127.973 93.224C128.014 93.2044 128.05 93.1772 128.08 93.144C128.11 93.1109 128.133 93.0723 128.147 93.0306C128.162 92.989 128.168 92.9449 128.164 92.9011L124.409 41.8397C124.407 41.7957 124.395 41.7526 124.375 41.713C124.354 41.6735 124.326 41.6382 124.292 41.6093C124.257 41.5804 124.217 41.5584 124.173 41.5447C124.13 41.531 124.084 41.5258 124.038 41.5294C123.993 41.5325 123.948 41.5442 123.907 41.5638C123.867 41.5835 123.83 41.6106 123.8 41.6438C123.77 41.677 123.748 41.7155 123.733 41.7572C123.719 41.7989 123.713 41.8429 123.716 41.8867L127.471 92.9482C127.477 93.0326 127.517 93.1117 127.581 93.1694C127.645 93.2272 127.73 93.2593 127.818 93.2594Z" fill="white"/>
<path d="M123.646 89.9118C123.654 89.9118 123.663 89.9114 123.671 89.9108C123.717 89.9077 123.761 89.896 123.802 89.8764C123.843 89.8568 123.879 89.8296 123.909 89.7964C123.939 89.7632 123.962 89.7247 123.976 89.683C123.991 89.6413 123.996 89.5973 123.993 89.5535L120.238 38.492C120.235 38.448 120.224 38.405 120.203 38.3654C120.183 38.3258 120.155 38.2906 120.12 38.2617C120.086 38.2327 120.046 38.2108 120.002 38.1971C119.958 38.1834 119.913 38.1782 119.867 38.1818C119.821 38.1849 119.777 38.1966 119.736 38.2162C119.695 38.2358 119.659 38.263 119.629 38.2962C119.599 38.3294 119.576 38.3679 119.562 38.4096C119.547 38.4512 119.542 38.4953 119.545 38.5391L123.3 89.6005C123.306 89.685 123.345 89.764 123.409 89.8218C123.474 89.8796 123.558 89.9117 123.646 89.9118Z" fill="white"/>
<path d="M38.3383 44.4189C46.1738 42.0115 54.9154 42.6489 62.3384 46.0404C64.4564 47.0031 66.4567 48.1895 68.3025 49.5778C68.8246 49.9724 69.5676 49.2666 69.0399 48.8677C62.222 43.7752 53.6554 41.356 45.0613 42.0962C42.6837 42.3011 40.3364 42.7552 38.0611 43.4505C37.4242 43.6462 37.6964 44.6161 38.3383 44.4189H38.3383Z" fill="#1E6BDD"/>
<path d="M81.4545 49.9674C88.7395 46.28 97.4631 45.4759 105.384 47.569C107.642 48.1643 109.824 48.9999 111.89 50.0603C112.482 50.3645 113.01 49.4979 112.417 49.1932C104.868 45.3141 95.8057 44.4211 87.5621 46.5835C85.2624 47.1878 83.038 48.0317 80.9282 49.1003C80.3339 49.4011 80.8604 50.2681 81.4545 49.9674Z" fill="#1E6BDD"/>
<path d="M81.4545 56.6625C88.7395 52.9751 97.4631 52.171 105.384 54.2641C107.642 54.8594 109.824 55.695 111.89 56.7554C112.482 57.0595 113.01 56.1929 112.417 55.8882C104.868 52.0092 95.8057 51.1162 87.5621 53.2785C85.2624 53.8828 83.038 54.7268 80.9282 55.7953C80.3339 56.0961 80.8604 56.9632 81.4545 56.6625V56.6625Z" fill="#1E6BDD"/>
<path d="M112.672 62.9983C112.677 62.9121 112.656 62.8263 112.61 62.7521C112.564 62.6779 112.496 62.6186 112.415 62.5821C106.367 59.5326 99.5104 58.2957 92.7268 59.0307C92.6843 59.034 92.6451 59.0406 92.5992 59.0438H92.5975C92.5557 59.0474 92.5142 59.0535 92.4732 59.0619C88.4385 59.509 84.5243 60.6708 80.9283 62.4886C80.8499 62.5336 80.785 62.5974 80.7399 62.6739C80.6949 62.7503 80.6712 62.8367 80.6713 62.9246V75.414C80.6726 75.4909 80.692 75.5664 80.7281 75.635C80.7642 75.7036 80.8161 75.7633 80.8797 75.8097C80.9433 75.8561 81.017 75.888 81.0953 75.9029C81.1736 75.9179 81.2544 75.9154 81.3316 75.8958C81.4916 75.8516 81.6516 75.809 81.8149 75.768C85.4503 74.8204 89.1824 74.2582 92.9446 74.0915C93.0246 74.0882 93.1046 74.0849 93.188 74.0817C96.2523 73.9549 99.3222 74.0612 102.369 74.3996C102.433 74.4031 102.497 74.4096 102.56 74.4192C102.716 74.4356 102.876 74.4537 103.033 74.4733C103.096 74.4799 103.155 74.4864 103.213 74.4963C103.822 74.57 104.427 74.6536 105.032 74.7437C105.907 74.8781 106.782 75.0278 107.657 75.1928C107.711 75.2026 107.767 75.2157 107.823 75.2256C109.227 75.4943 110.625 75.8057 112.015 76.1498C112.092 76.1691 112.173 76.1712 112.252 76.1559C112.33 76.1406 112.404 76.1084 112.467 76.0617C112.531 76.015 112.583 75.955 112.619 75.8863C112.655 75.8175 112.674 75.7418 112.675 75.6648V63.018C112.676 63.0113 112.675 63.0045 112.672 62.9983Z" fill="#1E6BDD"/>
<path d="M93.5443 59.7116C93.1623 59.5314 92.7244 59.4943 92.3156 59.6076C92.135 59.6728 91.9696 59.7719 91.8291 59.8992C91.6886 60.0264 91.5758 60.1793 91.4971 60.3489C91.3555 60.674 91.2647 61.0176 91.2277 61.3684C91.2061 61.5064 91.2048 61.6806 91.3488 61.745C91.4011 61.7633 91.4576 61.7674 91.5121 61.757C91.5667 61.7466 91.6173 61.722 91.6584 61.686C91.7328 61.6154 91.7941 61.533 91.8396 61.4425C92.0897 61.0678 92.4339 60.7598 92.8402 60.547C93.2466 60.3343 93.7021 60.2236 94.1647 60.2251L94.5497 60.3729C94.2468 60.1102 93.9086 59.8878 93.5443 59.7116Z" fill="#FF6582"/>
<path d="M97.7113 62.5904C97.4125 62.1668 97.0585 61.7146 96.504 61.5763C95.8619 61.4161 95.2023 61.7343 94.6429 62.0483C92.9791 62.9813 91.368 63.9988 89.8163 65.0965L89.818 65.1129L93.4196 64.9C94.287 64.8488 95.1842 64.7904 95.9508 64.4387C96.226 64.2725 96.5337 64.1622 96.8548 64.1145C97.054 64.1249 97.2491 64.1732 97.4288 64.2566C97.6085 64.34 97.7694 64.4568 97.9019 64.6004C99.5618 66.1155 100.042 68.4324 101.904 69.7635C100.719 67.2628 99.3166 64.8632 97.7113 62.5904Z" fill="white"/>
<path d="M93.1886 74.0813C93.1052 74.0846 93.0252 74.088 92.9453 74.0914C92.3648 73.8905 91.7704 73.7131 91.169 73.5591C90.7796 73.4587 90.3834 73.3683 89.9871 73.2913C89.5386 73.1976 89.0868 73.1239 88.6349 73.0603C87.7745 72.9398 86.9074 72.8694 86.0382 72.8494C86.0316 72.8501 86.025 72.8495 86.0187 72.8475C86.0124 72.8455 86.0065 72.8423 86.0016 72.8381C85.9967 72.8338 85.9928 72.8286 85.9901 72.8228C85.9874 72.8169 85.9859 72.8106 85.9859 72.8042C85.9859 72.7979 85.9874 72.7916 85.9901 72.7857C85.9928 72.7799 85.9967 72.7747 86.0016 72.7704C86.0065 72.7662 86.0124 72.7629 86.0187 72.761C86.025 72.759 86.0316 72.7584 86.0382 72.7591C86.1494 72.7591 86.2607 72.7624 86.3684 72.7691C87.2395 72.8001 88.1078 72.8817 88.9686 73.0135C89.417 73.0838 89.8654 73.1674 90.3104 73.2612C90.7136 73.3482 91.1168 73.4453 91.5131 73.5524C92.0797 73.7064 92.6382 73.8827 93.1886 74.0813Z" fill="white"/>
<path d="M103.214 74.4964C103.155 74.4863 103.096 74.4796 103.033 74.4729C102.793 74.2822 102.55 74.1014 102.296 73.9239C101.98 73.703 101.653 73.4955 101.319 73.3013C100.58 72.8693 99.8087 72.4911 99.0111 72.1699C97.7501 71.6642 96.4449 71.2676 95.1109 70.9848C93.5892 70.6638 92.0488 70.4313 90.4981 70.2885C88.9477 70.1345 87.3904 70.0408 85.8331 69.9471C85.7671 69.9437 85.7636 69.85 85.8331 69.8534C86.0278 69.8668 86.2225 69.8768 86.4205 69.8902C87.9952 69.9839 89.5699 70.0911 91.1342 70.2618C92.6852 70.4219 94.2238 70.6791 95.7401 71.0317C97.0345 71.3389 98.2979 71.7568 99.5152 72.2803C100.215 72.5832 100.893 72.931 101.545 73.3214C101.959 73.5724 102.359 73.8403 102.741 74.1248C102.901 74.2453 103.061 74.3658 103.214 74.4964Z" fill="white"/>
<path d="M102.56 74.4196C102.497 74.4097 102.433 74.403 102.369 74.3994C102.296 74.3426 102.22 74.289 102.143 74.2354C101.608 73.8666 101.05 73.53 100.471 73.2278C99.9457 72.9529 99.4062 72.7037 98.8547 72.4813C97.5942 71.9742 96.2889 71.5776 94.9544 71.2963C93.4327 70.9753 91.8923 70.7428 90.3416 70.6001C88.7912 70.4461 87.2339 70.3524 85.6766 70.2586C85.6106 70.2519 85.6106 70.1615 85.6766 70.1649C85.8748 70.1783 86.0694 70.1883 86.2641 70.2017C87.8388 70.2954 89.4135 70.4025 90.9777 70.5733C92.5288 70.7334 94.0673 70.9906 95.5836 71.3432C96.8782 71.6498 98.1416 72.0677 99.3587 72.5918C99.8175 72.7927 100.266 73.0103 100.704 73.2479C101.353 73.5913 101.974 73.9831 102.56 74.4196Z" fill="white"/>
<path d="M107.823 75.2263C107.768 75.2162 107.712 75.2029 107.656 75.1928C107.594 75.1292 107.535 75.0623 107.476 74.9953C107.177 74.6639 106.881 74.3291 106.589 73.991C105.439 72.6721 104.347 71.313 103.318 69.9272C102.435 68.7421 101.597 67.5337 100.805 66.3018C100.426 65.7193 100.061 65.1302 99.7029 64.5343C99.4248 64.0724 99.1536 63.6093 98.8895 63.1451C98.813 63.0112 98.74 62.8773 98.667 62.7434C98.4966 62.4287 98.3263 62.1107 98.1456 61.7994C97.9491 61.418 97.6606 61.0874 97.3043 60.8353C97.1263 60.7205 96.9202 60.6524 96.7064 60.6378C96.405 60.6389 96.1087 60.7125 95.8443 60.852C93.8996 61.7242 92.065 62.808 90.3764 64.0824C88.7272 65.3176 87.236 66.7368 85.9339 68.3103C85.8922 68.3572 85.8017 68.3136 85.84 68.2634C85.9964 68.076 86.1563 67.8885 86.3162 67.7044C87.5677 66.2789 88.9769 64.9892 90.5189 63.8581C90.5224 63.8547 90.5293 63.8514 90.5328 63.8481C90.6683 63.7443 90.804 63.6439 90.943 63.5468C91.8039 62.9363 92.6999 62.373 93.6266 61.8596C94.0993 61.5952 94.5825 61.3441 95.0761 61.1064C95.1978 61.0462 95.3229 60.9859 95.448 60.929C95.5732 60.8688 95.6984 60.8119 95.8235 60.7549C96.0712 60.6333 96.342 60.5616 96.6195 60.5441C97.5859 60.5307 98.083 61.468 98.4271 62.1006C98.5349 62.2982 98.6461 62.4957 98.7539 62.6932C99.171 63.4397 99.6056 64.1828 100.057 64.9159C100.332 65.3712 100.617 65.8231 100.906 66.2717C101.319 66.9111 101.743 67.5437 102.185 68.1731C102.185 68.1735 102.185 68.174 102.185 68.1744C102.185 68.1748 102.186 68.1752 102.186 68.1755C102.186 68.1758 102.187 68.176 102.187 68.1762C102.187 68.1764 102.188 68.1765 102.188 68.1764C102.699 68.9196 103.231 69.6493 103.78 70.3757C104.722 71.6177 105.71 72.8317 106.742 74.0178C107.097 74.4262 107.457 74.829 107.823 75.2263Z" fill="white"/>
<path d="M112.676 73.75V73.904C112.332 73.5157 111.981 73.1308 111.633 72.7458C111.487 72.5851 111.341 72.4244 111.195 72.2638C110.576 71.5875 109.954 70.9136 109.328 70.2418C108.699 69.5723 108.07 68.9028 107.434 68.2367C107.281 68.076 107.128 67.9153 106.972 67.7547C106.846 67.6196 106.71 67.4943 106.565 67.3797C106.418 67.262 106.249 67.1723 106.068 67.1152C105.859 67.0595 105.638 67.0572 105.428 67.1086C105.188 67.1621 104.959 67.2458 104.726 67.3161C104.486 67.3931 104.25 67.4667 104.01 67.5404C103.53 67.691 103.054 67.8417 102.574 67.9923C102.568 67.9946 102.562 67.9958 102.556 67.9957C102.549 67.9956 102.543 67.9942 102.537 67.9917C102.531 67.9892 102.526 67.9856 102.522 67.9811C102.517 67.9766 102.514 67.9713 102.512 67.9655C102.509 67.9592 102.508 67.9523 102.508 67.9455C102.508 67.9386 102.51 67.9319 102.514 67.9259C102.517 67.9198 102.522 67.9145 102.527 67.9104C102.533 67.9062 102.539 67.9034 102.546 67.9019C102.665 67.8651 102.786 67.8283 102.908 67.7914C103.391 67.6375 103.871 67.4869 104.354 67.3362C104.594 67.2592 104.834 67.1856 105.074 67.1119C105.296 67.0306 105.531 66.9853 105.769 66.978C106.157 67.0049 106.521 67.1695 106.791 67.44C106.94 67.5739 107.076 67.7145 107.211 67.8584C107.371 68.0258 107.531 68.1932 107.691 68.3605C108.334 69.0368 108.973 69.7152 109.606 70.3958C110.243 71.0787 110.873 71.7627 111.497 72.4479C111.543 72.4981 111.588 72.5483 111.633 72.5985C111.984 72.9801 112.328 73.3651 112.676 73.75Z" fill="white"/>
<path d="M95.4213 60.4421L95.3252 60.4826C95.1049 60.1244 94.7962 59.8242 94.4264 59.6087C94.0567 59.3931 93.6373 59.2688 93.2057 59.2469C91.7825 59.1496 90.5324 60.0629 90.4187 61.2827C90.3726 61.785 90.5236 62.2857 90.8419 62.6861L90.7527 62.7369C90.4211 62.3199 90.2639 61.7985 90.3119 61.2754C90.4302 60.0051 91.7322 59.054 93.2142 59.1554C93.6637 59.1782 94.1004 59.3076 94.4854 59.5321C94.8705 59.7565 95.192 60.0691 95.4213 60.4421Z" fill="#FF6582"/>
<path d="M88.3891 62.9099C88.0156 62.7535 87.6088 62.6849 87.2023 62.7098C86.7959 62.7347 86.4014 62.8525 86.0515 63.0532C87.3289 63.242 88.595 63.4953 89.8448 63.8121C89.3273 63.5522 88.9225 63.1449 88.3891 62.9099Z" fill="white"/>
<path d="M86.0425 63.0522L85.9037 63.149C85.9507 63.1151 85.9995 63.0834 86.0496 63.0533L86.0425 63.0522Z" fill="white"/>
<path d="M106.511 67.9965C106.38 67.8336 106.204 67.7084 106.005 67.6343L105.807 67.641C107.358 69.9659 109.391 71.9577 111.778 73.4921C110.022 71.6603 108.267 69.8284 106.511 67.9965Z" fill="white"/>
<path d="M90.28 63.6205C90.224 63.5669 90.1682 63.5133 90.1118 63.4598C89.6791 63.0063 89.158 62.6391 88.5783 62.3791C88.2831 62.2594 87.9665 62.1965 87.6462 62.1939C87.3153 62.2014 86.9881 62.2625 86.6784 62.3749C86.5327 62.4247 86.3902 62.4814 86.2498 62.5417C86.0895 62.6109 85.932 62.6846 85.7752 62.759C85.4809 62.8986 85.1905 63.0443 84.9038 63.1962C84.3335 63.4983 83.781 63.8235 83.2464 64.1718C82.9692 64.3524 82.6978 64.5389 82.4321 64.7314C82.185 64.9102 81.9428 65.0937 81.7057 65.2821C81.655 65.3222 81.5793 65.2573 81.63 65.2172C81.6925 65.1673 81.7557 65.1177 81.8189 65.0687C81.9975 64.9304 82.1789 64.7947 82.3632 64.6616C82.6992 64.4185 83.044 64.1849 83.3974 63.9606C83.9471 63.6116 84.5156 63.2863 85.1031 62.9846C85.3966 62.834 85.6943 62.6897 85.9959 62.5518C86.087 62.5102 86.1791 62.4694 86.2723 62.4309C86.4852 62.3389 86.7048 62.2623 86.9295 62.2016C87.2516 62.1127 87.5886 62.0843 87.9219 62.118C88.2411 62.1572 88.5508 62.2491 88.8376 62.3895C89.4059 62.6963 89.9187 63.09 90.3558 63.5553C90.4015 63.5993 90.3261 63.6645 90.28 63.6205Z" fill="white"/>
<path d="M38.3383 51.114C46.1738 48.7066 54.9154 49.3439 62.3384 52.7355C64.4564 53.6981 66.4567 54.8846 68.3025 56.2729C68.8246 56.6675 69.5676 55.9616 69.0399 55.5628C62.222 50.4702 53.6554 48.051 45.0613 48.7913C42.6837 48.9961 40.3364 49.4503 38.0611 50.1456C37.4242 50.3413 37.6964 51.3112 38.3383 51.114H38.3383Z" fill="#1E6BDD"/>
<path d="M38.3383 57.809C46.1738 55.4016 54.9154 56.039 62.3384 59.4305C64.4564 60.3932 66.4567 61.5796 68.3025 62.9679C68.8246 63.3626 69.5676 62.6567 69.0399 62.2578C62.222 57.1653 53.6554 54.7461 45.0613 55.4863C42.6837 55.6912 40.3364 56.1453 38.0611 56.8407C37.4242 57.0363 37.6964 58.0063 38.3383 57.809H38.3383Z" fill="#1E6BDD"/>
<path d="M38.3383 64.5039C46.1738 62.0965 54.9154 62.7338 62.3384 66.1253C64.4564 67.088 66.4567 68.2745 68.3025 69.6628C68.8246 70.0574 69.5676 69.3515 69.0399 68.9527C62.222 63.8601 53.6554 61.4409 45.0613 62.1812C42.6837 62.386 40.3364 62.8402 38.0611 63.5355C37.4242 63.7312 37.6964 64.7011 38.3383 64.5039H38.3383Z" fill="#1E6BDD"/>
<path d="M38.3383 71.1989C46.1738 68.7915 54.9154 69.4289 62.3384 72.8204C64.4564 73.7831 66.4567 74.9695 68.3025 76.3578C68.8246 76.7525 69.5676 76.0466 69.0399 75.6477C62.222 70.5552 53.6554 68.136 45.0613 68.8762C42.6837 69.0811 40.3364 69.5352 38.0611 70.2306C37.4242 70.4262 37.6964 71.3962 38.3383 71.1989H38.3383Z" fill="#1E6BDD"/>
<path d="M38.3383 77.894C46.1738 75.4866 54.9154 76.124 62.3384 79.5155C64.4564 80.4782 66.4567 81.6646 68.3025 83.0529C68.8246 83.4475 69.5676 82.7416 69.0399 82.3428C62.222 77.2503 53.6554 74.8311 45.0613 75.5713C42.6837 75.7762 40.3364 76.2303 38.0611 76.9256C37.4242 77.1213 37.6964 78.0912 38.3383 77.894L38.3383 77.894Z" fill="#1E6BDD"/>
<path d="M66.5686 33.647V52.4115C66.5686 52.7311 65.99 52.9982 65.2089 53.0704C65.0727 53.0835 64.9298 53.09 64.7817 53.09C64.3518 53.0979 63.924 53.0307 63.519 52.8917C63.4439 52.8636 63.3711 52.8302 63.3012 52.7917C63.1072 52.6819 62.9949 52.5525 62.9949 52.4115V32.2C63.6313 32.4048 64.2252 32.6195 64.7817 32.8424C65.4284 33.1013 66.0223 33.3701 66.5686 33.647Z" fill="#273747"/>
<path d="M74.0585 40.0811H73.5479V100.78H74.0585V40.0811Z" fill="#E6E6E6"/>
<path d="M119.622 88.9955C119.096 89.5231 118.46 89.9379 117.756 90.2127C117.052 90.4876 116.295 90.6164 115.536 90.5908C113.175 90.5104 110.358 90.4703 107.3 90.5317L107.283 90.5175L120.535 73.9739L121.107 85.0038C121.164 85.7322 121.062 86.4641 120.806 87.1518C120.55 87.8396 120.147 88.4678 119.622 88.9955Z" fill="#F2F2F2"/>
<path d="M86.6306 131.869L85.9238 137.395L85.3839 141.595L85.1679 143.289H82.0953V141.784L82.0928 136.802V131.869H86.6306Z" fill="#FFB6B6"/>
<path d="M65.2055 131.29L64.3343 133.881L63.6349 135.958L63.5146 136.315L63.036 137.735L62.0249 140.739L61.5218 142.235L58.7265 141.715L58.5032 141.675L58.6848 140.772L58.7952 140.222L60.0174 134.119L60.2162 133.136L60.2481 132.978L60.3389 132.522L60.7512 130.463L63.7306 131.016L64.0742 131.08L65.2055 131.29Z" fill="#FFB6B6"/>
<path d="M91.2469 98.9639C89.4897 108.264 89.0504 112.279 89.0504 112.279C89.0504 112.279 90.3683 113.759 89.4897 114.605C88.6111 115.451 89.4897 117.141 89.4897 117.141L87.5141 137.643L85.9237 137.395L82.0928 136.802L80.7111 136.587L81.5897 117.353C81.5897 117.353 80.7111 115.661 81.1504 115.238C81.5897 114.815 80.7111 112.279 80.7111 112.279L79.614 92.1999L72.8086 114.182C72.8086 114.182 73.4687 115.028 72.8086 115.661C72.1508 116.295 70.8354 119.466 70.8354 119.466L66.7885 133.103L66.4449 134.261L64.3343 133.88L62.0372 133.465L61.615 133.389L60.8641 133.252L60.3806 133.164L60.2161 133.136L59.421 132.992L59.6615 131.964L59.7867 131.423L63.2103 116.779L63.2888 116.441L63.3722 116.084C63.3722 116.084 62.9329 115.028 63.5907 114.392C63.7831 114.198 63.9236 113.962 64.0002 113.705C64.0767 113.447 64.0869 113.175 64.03 112.913C64.0084 112.89 63.9887 112.867 63.971 112.842C63.8934 112.739 63.8398 112.621 63.814 112.497C63.7551 112.232 63.8066 111.861 64.2508 111.433C64.3759 111.305 64.4809 111.16 64.5625 111.003C65.2301 109.786 65.5663 107.207 65.5663 107.207C65.5663 107.207 66.1602 86.7854 68.1039 83.6657C68.1807 83.5296 68.289 83.4123 68.4205 83.323C70.6145 82.0562 91.6837 83.323 91.6837 83.323C91.6837 83.323 91.7132 83.4695 91.7598 83.7484C92.0126 85.3153 92.7366 91.0749 91.2469 98.9639Z" fill="#2F2E41"/>
<path d="M90.5564 61.4457L91.1716 57.8767L102.501 59.7128L118.575 60.8203C118.924 60.4487 119.388 60.1955 119.898 60.0985C120.408 60.0014 120.937 60.0656 121.407 60.2816C121.876 60.4975 122.26 60.8537 122.503 61.297C122.745 61.7403 122.832 62.2471 122.751 62.7418C122.669 63.2366 122.425 63.6929 122.052 64.0429C121.68 64.3928 121.201 64.6176 120.685 64.6838C120.17 64.7501 119.646 64.6542 119.191 64.4105C118.737 64.1668 118.376 63.7882 118.163 63.3312L108.305 63.97L90.5564 61.4457Z" fill="#FFB6B6"/>
<path d="M79.5775 59.704L79.9913 56.4505C79.9913 56.4505 84.2144 55.2041 87.7139 55.5554L100.834 56.4952L100.694 64.0822L79.5775 59.704Z" fill="#273747"/>
<path d="M52.0992 85.21L59.3275 70.0882L64.6026 59.3894L69.1776 61.9823L54.9357 86.8741C55.0608 87.3179 55.0464 87.7874 54.8944 88.2233C54.7423 88.6592 54.4595 89.0419 54.0816 89.323C53.7037 89.6041 53.2478 89.771 52.7714 89.8025C52.295 89.8341 51.8197 89.7289 51.4054 89.5003C50.9911 89.2716 50.6565 88.9298 50.4439 88.5181C50.2313 88.1063 50.1503 87.6431 50.2111 87.187C50.2719 86.731 50.4718 86.3025 50.7855 85.9558C51.0992 85.6091 51.5125 85.3597 51.9734 85.2393C52.015 85.2284 52.057 85.2186 52.0993 85.2099L52.0992 85.21Z" fill="#FFB6B6"/>
<path d="M72.9458 54.8054L69.4372 53.2552C69.4372 53.2552 68.8152 53.0473 67.4735 54.8362C66.1319 56.625 54.5913 73.5046 54.5913 73.5046L61.9197 76.6948L72.9458 54.8054Z" fill="#273747"/>
<path d="M90.6014 146.579L86.0342 143.54V141.557L85.3838 141.595L82.0952 141.784L81.2289 141.833L80.6301 148.739L80.6227 148.836H82.78L82.7996 148.739L83.1653 146.874L84.1003 148.739L84.1494 148.836H89.8725C90.0444 148.836 90.2145 148.803 90.3732 148.739C90.5856 148.653 90.7699 148.513 90.907 148.334C91.044 148.156 91.1286 147.945 91.1519 147.724C91.1753 147.503 91.1365 147.281 91.0396 147.079C90.9428 146.878 90.7914 146.705 90.6014 146.579H90.6014Z" fill="#2F2E41"/>
<path d="M66.2411 146.761L64.2508 144.672L62.8617 143.211L62.6335 142.97L62.5991 142.935L62.4887 142.819L62.9476 140.886L62.0248 140.739L58.7951 140.221L58.6209 140.196L58.2773 140.139L58.1987 140.127L57.0968 143.471L56.098 146.494L55.99 146.825L57.3177 147.115L58.0932 147.286L58.4761 146.44L58.5178 146.35L58.7681 145.794V145.792L58.9227 145.456L59.4307 147.579L59.5191 147.598L59.5314 147.6L59.8431 147.669L60.4517 147.803L64.7073 148.739L65.0091 148.805C65.3416 148.877 65.6899 148.818 65.9781 148.644C66.2663 148.469 66.4711 148.191 66.5479 147.872C66.5941 147.677 66.5903 147.473 66.5369 147.28C66.4834 147.086 66.3819 146.908 66.2411 146.761Z" fill="#2F2E41"/>
<path d="M85.9384 45.055C85.442 45.9321 84.753 46.6945 83.9192 47.2888C83.0855 47.8831 82.1271 48.2951 81.111 48.496C80.9981 48.5197 80.8852 48.5386 80.7698 48.5551C79.1755 48.7951 77.5437 48.5085 76.1399 47.7419C74.7362 46.9753 73.6431 45.7738 73.0386 44.333C72.4341 42.8921 72.3537 41.2966 72.8104 39.8061C73.2672 38.3156 74.2343 37.0179 75.5543 36.1239C76.8743 35.23 78.4696 34.7925 80.0806 34.8827C81.6917 34.9729 83.2236 35.5854 84.4272 36.6205C85.6308 37.6557 86.4352 39.0527 86.7096 40.5841C86.984 42.1155 86.7122 43.6912 85.9384 45.055Z" fill="#FFB6B6"/>
<path d="M83.0965 35.7126C80.7577 34.1636 78.6981 33.9277 77.0063 34.367C76.787 34.0403 76.4794 33.7773 76.1166 33.6062C74.7972 30.4045 70.7817 28.4817 67.3356 29.4164C63.8673 30.3572 61.4742 34.0569 62.1268 37.4695C62.5313 39.5848 63.9137 41.4165 64.4697 43.4996C65.546 47.5322 62.9204 52.1515 58.8128 53.4514C62.7019 54.2034 66.9828 51.9158 68.378 48.3399C69.0557 46.603 69.0966 44.7067 69.1827 42.8531C69.2054 41.5737 69.3682 40.3002 69.6683 39.0537C69.8173 38.4945 70.0278 37.9522 70.2962 37.4359C70.8809 36.3012 71.852 35.3939 73.0475 34.8654C72.9404 35.1843 72.9137 35.5231 72.9694 35.8539C73.0251 36.1846 73.1617 36.4979 73.3679 36.7678C72.4559 37.8681 71.9594 39.0579 71.9594 39.7705C70.0647 43.1053 72.7741 45.9697 76.2371 47.7942C77.6183 48.5258 79.2131 48.7935 80.7699 48.5552L80.9148 47.9596L81.1111 48.4961L81.7663 50.2947C82.5222 50.6468 83.2716 51.0328 84.0144 51.4527C83.7322 50.1765 83.5039 48.9026 83.3468 47.6571C83.1293 45.9619 83.8875 43.4382 84.4344 41.9035C84.7735 40.9576 84.9475 39.9641 84.9494 38.9635V38.9197L85.482 40.567L87.4208 39.7705C87.0601 37.7782 87.4208 35.5164 83.0965 35.7126Z" fill="#2F2E41"/>
<path d="M68.2002 81.4211C68.4551 80.4501 68.4551 79.4332 68.2002 78.4621C67.7613 76.9826 68.6392 76.3486 68.6392 76.3486L68.8587 53.5219C69.7859 52.629 72.2703 52.6144 73.6601 52.6839V51.6787C73.6601 51.3085 73.8128 50.9535 74.0846 50.6917C74.3564 50.43 74.7251 50.283 75.1095 50.283H81.5367C81.9211 50.283 82.2898 50.43 82.5616 50.6917C82.8334 50.9535 82.9861 51.3085 82.9861 51.6787V52.8836L84.8712 52.9122C88.1539 53.1476 91.026 56.2696 91.026 56.2696L88.1728 66.8375C88.1728 66.8375 89.0507 75.5031 90.1481 76.5599C91.2455 77.6167 90.8065 78.2508 90.8065 78.2508C90.8065 78.2508 90.1481 80.5757 91.465 81.4211C92.7818 82.2666 91.9039 83.7461 91.9039 83.7461C91.9039 83.7461 68.2002 84.1688 67.5418 83.5347C66.8834 82.9007 68.2002 81.4211 68.2002 81.4211Z" fill="#273747"/>
<path d="M111.874 149.02C111.874 149.057 111.867 149.094 111.852 149.128C111.838 149.162 111.816 149.193 111.789 149.219C111.762 149.246 111.73 149.266 111.694 149.28C111.659 149.294 111.621 149.302 111.582 149.302H42.7938C42.7164 149.302 42.6421 149.272 42.5873 149.219C42.5326 149.166 42.5018 149.095 42.5018 149.02C42.5018 148.946 42.5326 148.874 42.5873 148.821C42.6421 148.769 42.7164 148.739 42.7938 148.739H111.582C111.621 148.739 111.659 148.746 111.694 148.76C111.73 148.774 111.762 148.795 111.789 148.821C111.816 148.847 111.838 148.878 111.852 148.913C111.867 148.947 111.874 148.983 111.874 149.02Z" fill="#CCCCCC"/>
</g>
<defs>
<clipPath id="clip0_143_360">
<rect width="144.341" height="150.957" fill="white"/>
</clipPath>
</defs>
</svg>
