<svg width="37" height="37" viewBox="0 0 37 37" fill="none" xmlns="http://www.w3.org/2000/svg">
<path d="M15.3334 0.905041C15.8834 0.856707 16.4384 0.833374 17 0.833374C27.585 0.833374 36.1667 9.41504 36.1667 20C36.1667 20.5617 36.1434 21.1167 36.095 21.6667H33.585C32.7484 30.0884 25.6417 36.6667 17 36.6667C7.79504 36.6667 0.333374 29.205 0.333374 20C0.333374 11.3584 6.91171 4.25171 15.3334 3.41671V0.903374V0.905041ZM15.3334 21.6667V6.77004C11.9712 7.19785 8.89813 8.88982 6.73869 11.5021C4.57925 14.1143 3.49551 17.4508 3.70774 20.8334C3.91998 24.216 5.41226 27.3909 7.88128 29.7127C10.3503 32.0346 13.6108 33.3292 17 33.3334C20.2477 33.3333 23.3838 32.1481 25.8196 30C28.2555 27.852 29.8237 24.8889 30.23 21.6667H15.3334ZM32.7467 18.3334C32.3646 14.7299 30.7584 11.3664 28.1961 8.80402C25.6337 6.24168 22.2702 4.63547 18.6667 4.25337V18.3334H32.7467Z" fill="#1C69DC"/>
</svg>
