<svg width="481" height="406" viewBox="0 0 481 406" fill="none" xmlns="http://www.w3.org/2000/svg">
<g clip-path="url(#clip0_270_1151)">
<path d="M474.524 138.915C475.089 141.119 475.618 143.335 476.112 145.561H308.181V138.915H474.524Z" fill="#E6E6E6"/>
<path d="M469.172 121.396C466.468 113.767 463.316 106.303 459.731 99.0455C458.628 96.8078 457.482 94.5924 456.294 92.3995C456.099 92.0232 455.891 91.6468 455.682 91.2705V140.729H470.194V124.339L469.172 121.396Z" fill="#E6E6E6"/>
<path d="M459.73 99.0456H455.682V92.3995H456.294C457.485 94.5902 458.63 96.8056 459.73 99.0456Z" fill="#CCCCCC"/>
<path d="M469.172 121.396H455.682V128.042H470.194V124.339L469.172 121.396Z" fill="#CCCCCC"/>
<path d="M447.824 83.339H433.316V140.73H447.824V83.339Z" fill="#E6E6E6"/>
<path d="M447.824 92.4008H433.316V99.0461H447.824V92.4008Z" fill="#CCCCCC"/>
<path d="M447.824 121.398H433.316V128.044H447.824V121.398Z" fill="#CCCCCC"/>
<path d="M381.659 83.005H329.612C328.809 83.0062 328.04 83.3252 327.473 83.892C326.906 84.4589 326.587 85.2273 326.586 86.029V138.041C326.587 138.337 326.63 138.631 326.713 138.915C326.902 139.537 327.286 140.081 327.807 140.468C328.329 140.855 328.962 141.065 329.612 141.065H381.659C382.309 141.065 382.942 140.855 383.463 140.468C383.985 140.081 384.369 139.537 384.557 138.915C384.641 138.631 384.684 138.337 384.685 138.041V86.029C384.684 85.2273 384.365 84.4589 383.798 83.892C383.23 83.3252 382.461 83.0062 381.659 83.005Z" fill="#E6E6E6"/>
<path d="M377.961 86.7009H333.31C332.508 86.7021 331.739 87.0211 331.172 87.588C330.605 88.1548 330.285 88.9233 330.284 89.7249V134.345C330.285 135.147 330.605 135.916 331.172 136.482C331.739 137.049 332.508 137.368 333.31 137.369H377.961C378.763 137.368 379.532 137.049 380.099 136.482C380.666 135.916 380.986 135.147 380.987 134.345V89.7249C380.986 88.9233 380.666 88.1548 380.099 87.588C379.532 87.0211 378.763 86.7021 377.961 86.7009Z" fill="white"/>
<path d="M370.174 94.4827H341.097C340.295 94.4839 339.526 94.8029 338.959 95.3697C338.392 95.9366 338.072 96.705 338.071 97.5066V126.564C338.072 127.365 338.392 128.134 338.959 128.701C339.526 129.268 340.295 129.587 341.097 129.588H370.174C370.975 129.584 371.743 129.264 372.309 128.697C372.876 128.131 373.196 127.364 373.2 126.564V97.5066C373.199 96.705 372.88 95.9366 372.312 95.3697C371.745 94.8029 370.976 94.4839 370.174 94.4827Z" fill="#CCCCCC"/>
<path d="M368.381 121.439L362.24 110.808C362.122 110.604 361.952 110.434 361.747 110.316C361.543 110.198 361.311 110.136 361.075 110.136C360.839 110.136 360.607 110.198 360.403 110.316C360.198 110.434 360.028 110.604 359.91 110.808L355.426 118.571L349.544 108.392C349.426 108.187 349.257 108.018 349.052 107.9C348.848 107.782 348.616 107.72 348.38 107.72C348.144 107.72 347.912 107.782 347.707 107.9C347.503 108.018 347.333 108.187 347.215 108.392L341.073 119.022L333.767 131.668H347.859L346.463 134.085H375.688L368.381 121.439Z" fill="white"/>
<path d="M366.213 105.087C368.551 105.087 370.445 103.194 370.445 100.858C370.445 98.5229 368.551 96.6296 366.213 96.6296C363.876 96.6296 361.982 98.5229 361.982 100.858C361.982 103.194 363.876 105.087 366.213 105.087Z" fill="white"/>
<path d="M480.947 185.874C480.899 183.267 480.796 180.673 480.637 178.092C480.57 176.856 480.489 175.626 480.388 174.396H451.997C451.195 174.398 450.426 174.717 449.859 175.284C449.292 175.85 448.973 176.619 448.971 177.42V229.433C448.97 229.671 448.999 229.908 449.059 230.139C449.218 230.798 449.594 231.385 450.127 231.806C450.66 232.226 451.318 232.456 451.997 232.457H478.169C478.304 231.691 478.431 230.911 478.546 230.139C478.62 229.682 478.694 229.218 478.761 228.761C478.922 227.666 479.077 226.57 479.218 225.475C479.42 223.983 479.602 222.485 479.763 220.979C480.355 215.583 480.736 210.129 480.906 204.616V204.609C480.967 202.533 480.998 200.448 481 198.353V190.289C481 188.811 480.987 187.339 480.947 185.874Z" fill="#E6E6E6"/>
<path d="M480.946 185.874C480.899 183.267 480.796 180.673 480.637 178.092H455.696C454.894 178.094 454.125 178.413 453.557 178.979C452.99 179.546 452.671 180.315 452.67 181.116V225.737C452.671 226.539 452.99 227.307 453.557 227.874C454.125 228.441 454.894 228.76 455.696 228.761H478.761C478.922 227.666 479.077 226.57 479.218 225.475C479.42 223.983 479.602 222.485 479.763 220.979C480.354 215.583 480.736 210.129 480.906 204.616V204.609C480.967 202.533 480.998 200.447 481 198.353V190.289C481 188.811 480.987 187.339 480.946 185.874Z" fill="white"/>
<path d="M480.946 185.874H463.483C462.681 185.875 461.912 186.194 461.344 186.761C460.777 187.328 460.458 188.096 460.457 188.898V217.955C460.458 218.757 460.777 219.525 461.344 220.092C461.912 220.659 462.681 220.978 463.483 220.979H479.763C480.354 215.583 480.736 210.129 480.906 204.616V204.609C480.966 202.533 480.998 200.447 481 198.353V190.289C481 188.811 480.987 187.339 480.946 185.874Z" fill="#CCCCCC"/>
<path d="M480.906 204.616C480.738 210.127 480.357 215.581 479.763 220.979C479.602 222.485 479.42 223.983 479.218 225.475H468.849L470.248 223.062H456.153L460.457 215.61L463.456 210.416L469.602 199.785C469.719 199.579 469.889 199.409 470.093 199.29C470.297 199.172 470.529 199.109 470.766 199.109C471.002 199.109 471.234 199.172 471.438 199.29C471.643 199.409 471.812 199.579 471.929 199.785L477.813 209.965L480.906 204.616Z" fill="white"/>
<path d="M429.955 54.3443H308.181V47.6982H423.916C425.974 49.8688 427.987 52.0841 429.955 54.3443Z" fill="#E6E6E6"/>
<path d="M372.864 8.2522C377.826 10.9805 382.663 13.9037 387.375 17.0217V49.5061H372.864V8.2522Z" fill="#E6E6E6"/>
<path d="M387.372 30.1765H372.863V36.8218H387.372V30.1765Z" fill="#CCCCCC"/>
<path d="M409.741 34.0904V49.506H395.229V22.485C398.612 24.9512 401.918 27.516 405.148 30.1793C406.694 31.4561 408.225 32.7598 409.741 34.0904Z" fill="#E6E6E6"/>
<path d="M409.741 34.0903V36.8186H395.229V30.1793H405.148C406.694 31.4561 408.225 32.7598 409.741 34.0903Z" fill="#CCCCCC"/>
<path d="M358.049 0.846722C361.889 2.57371 365.664 4.41498 369.373 6.37053L366.388 12.3916L356.469 32.4238L353.517 38.3777L348.898 47.6983L347.882 49.7479L343.747 47.6983L334.884 43.3102L340.512 31.94H340.519L343.464 25.9861L353.39 5.95389L356.308 0.0672037L356.341 0L358.049 0.846722Z" fill="#E6E6E6"/>
<path d="M369.34 6.43101L366.388 12.3916L353.389 5.95389L356.308 0.0671996L356.341 0L358.049 0.846715L369.34 6.43101Z" fill="#CCCCCC"/>
<path d="M343.464 25.988L340.514 31.9434L353.516 38.3763L356.467 32.4209L343.464 25.988Z" fill="#CCCCCC"/>
<path d="M478.546 230.139C478.431 230.911 478.304 231.691 478.169 232.457C477.934 233.908 477.678 235.347 477.403 236.785H308.181V230.139H478.546Z" fill="#E6E6E6"/>
<path d="M387.372 174.561H372.863V231.952H387.372V174.561Z" fill="#E6E6E6"/>
<path d="M387.372 183.623H372.863V190.268H387.372V183.623Z" fill="#CCCCCC"/>
<path d="M387.372 212.62H372.863V219.266H387.372V212.62Z" fill="#CCCCCC"/>
<path d="M409.739 174.561H395.231V231.952H409.739V174.561Z" fill="#E6E6E6"/>
<path d="M409.739 183.623H395.231V190.268H409.739V183.623Z" fill="#CCCCCC"/>
<path d="M409.739 212.62H395.231V219.266H409.739V212.62Z" fill="#CCCCCC"/>
<path d="M360.362 174.323L334.881 225.756L347.884 232.189L373.365 180.756L360.362 174.323Z" fill="#E6E6E6"/>
<path d="M356.339 182.445L353.389 188.4L366.391 194.833L369.341 188.878L356.339 182.445Z" fill="#CCCCCC"/>
<path d="M343.464 208.432L340.514 214.387L353.516 220.82L356.467 214.865L343.464 208.432Z" fill="#CCCCCC"/>
<path d="M196.892 255.75C197.498 256.098 198.076 256.494 198.62 256.934L258.487 238.315L261.863 223.472L284.945 225.636L281.524 252.493C281.248 254.663 280.275 256.684 278.751 258.254C277.227 259.824 275.234 260.858 273.073 261.2L202.618 272.347C201.59 274.836 199.828 276.954 197.566 278.419C195.305 279.883 192.65 280.625 189.957 280.545C187.263 280.465 184.657 279.568 182.486 277.972C180.315 276.376 178.682 274.158 177.804 271.611C176.925 269.065 176.843 266.312 177.569 263.719C178.294 261.125 179.793 258.813 181.865 257.091C183.937 255.369 186.485 254.319 189.169 254.079C191.853 253.839 194.547 254.422 196.892 255.75Z" fill="#FFB8B8"/>
<path d="M295.613 234.54L295.216 227.766V227.76L295.108 225.905L293.938 205.96C294.288 201.802 292.976 197.675 290.287 194.482C287.599 191.29 283.754 189.291 279.595 188.925C278.398 188.818 277.193 188.849 276.004 189.019C272.471 189.518 269.21 191.196 266.751 193.779C264.291 196.363 262.777 199.701 262.454 203.252L260.027 213.345L255.783 230.999C255.483 232.234 255.607 233.534 256.137 234.69C256.666 235.846 257.57 236.79 258.702 237.369C259.356 237.713 260.071 237.923 260.807 237.988L267.881 238.619L274.693 239.224L282.554 239.923L283.119 239.97L284.571 240.104L289.433 240.534H289.446C290.258 240.6 291.075 240.492 291.842 240.219C292.61 239.945 293.31 239.512 293.898 238.948C294.326 238.532 294.687 238.051 294.967 237.524C295.458 236.609 295.681 235.575 295.613 234.54V234.54Z" fill="#1E6BDD"/>
<path d="M361.308 152.404C361.308 175.403 340.027 171.924 313.776 171.924C287.525 171.924 266.244 175.403 266.244 152.404C266.244 129.404 276.639 88.6365 313.776 88.6365C352.192 88.6365 361.308 129.404 361.308 152.404Z" fill="#2F2E41"/>
<path d="M336.233 162.524C348.724 150.042 348.724 129.804 336.233 117.322C323.743 104.839 303.491 104.839 291.001 117.322C278.51 129.804 278.51 150.042 291.001 162.524C303.491 175.006 323.743 175.006 336.233 162.524Z" fill="#FFB8B8"/>
<path d="M358.641 185.323C358.026 184.73 357.372 184.178 356.685 183.67C352.336 180.387 346.871 178.941 341.467 179.645L282.527 187.097C277.128 187.767 272.202 190.512 268.794 194.749C265.386 198.987 263.763 204.384 264.27 209.797C264.438 211.679 264.626 213.661 264.835 215.724C265.104 218.311 265.406 221.026 265.756 223.835C266.334 228.559 267.04 233.546 267.881 238.619C268.614 242.987 269.448 247.416 270.403 251.79C270.678 253.054 270.965 254.312 271.263 255.567C271.263 255.57 271.263 255.574 271.264 255.578C271.266 255.581 271.268 255.584 271.27 255.587C271.304 255.742 271.337 255.896 271.377 256.044C271.376 256.056 271.378 256.068 271.384 256.078C271.801 257.825 272.239 259.552 272.696 261.259C272.87 261.89 273.039 262.515 273.213 263.134C273.684 264.814 274.182 266.46 274.693 268.079C278.532 280.128 283.609 290.39 290.314 295.846C290.401 295.927 290.489 295.994 290.583 296.068L290.852 296.276L291.242 296.155L292.896 295.665L294.308 295.235L312.707 289.704L317.286 288.327L331.999 283.898H332.006L345.462 279.853L347.102 279.355L358.662 275.881L359.031 271.567L359.529 265.842L359.825 262.401L362.165 235.266L363.53 219.434L365.01 202.244C365.284 199.127 364.855 195.988 363.753 193.059C362.65 190.13 360.903 187.487 358.641 185.323Z" fill="#2F2E41"/>
<path d="M391.598 316.625C391.443 316.174 391.295 315.724 391.141 315.281C384.228 295.121 374.034 279.873 359.031 271.567C359.025 271.567 359.025 271.56 359.018 271.56L358.762 271.419L345.69 275.942L344.076 276.5L342.395 277.084L342.375 277.091L330.136 281.325L330.116 281.331L320.514 284.651H320.507L311.624 287.722H311.617L309.552 288.441L294.026 293.81L292.223 294.435L290.61 294.993L290.361 295.08L290.314 295.846L289.204 315.281L289.13 316.625L287.745 340.877L241.743 406H273.213C283.758 406.002 294.288 405.2 304.711 403.601L334.238 371.802C334.485 371.546 334.798 371.362 335.142 371.271C335.487 371.18 335.849 371.184 336.191 371.284C336.533 371.383 336.842 371.574 337.083 371.836C337.324 372.098 337.489 372.421 337.56 372.77L341.897 394.274C363.265 386.723 383.254 375.732 401.073 361.736C399.002 345.036 395.976 329.816 391.598 316.625Z" fill="#2F2E41"/>
<path d="M276.662 136.787H289.312L294.893 121.171L296.009 136.787H302.056L305.311 127.678L305.962 136.787H350.89C350.89 132.344 350.014 127.944 348.313 123.839C346.611 119.734 344.117 116.004 340.973 112.862C337.829 109.72 334.097 107.228 329.989 105.527C325.881 103.827 321.478 102.952 317.032 102.952H310.52C301.54 102.952 292.928 106.516 286.579 112.862C280.229 119.207 276.662 127.813 276.662 136.787Z" fill="#2F2E41"/>
<path d="M198.849 306.133C196.784 307 194.554 307.404 192.315 307.317C190.077 307.229 187.885 306.652 185.893 305.627C183.902 304.601 182.16 303.152 180.79 301.38C179.42 299.609 178.455 297.559 177.964 295.375L123.855 289.251L141.993 267.546L190.595 276.689C194.321 276.107 198.132 276.911 201.304 278.949C204.477 280.987 206.792 284.117 207.809 287.747C208.827 291.376 208.476 295.252 206.825 298.641C205.174 302.03 202.336 304.695 198.849 306.133L198.849 306.133Z" fill="#A0616A"/>
<path d="M169.676 265.956L146.806 261.87L145.146 261.575C143.818 261.338 142.556 260.823 141.442 260.064C140.328 259.305 139.388 258.319 138.682 257.171C137.976 256.023 137.522 254.738 137.348 253.402C137.175 252.066 137.286 250.708 137.675 249.418L148.904 212.129L149.241 211.02C150.643 206.281 150.393 201.206 148.533 196.627C146.672 192.047 143.311 188.235 138.999 185.814C136.081 184.194 132.828 183.269 129.493 183.111C126.159 182.952 122.833 183.564 119.774 184.9C116.715 186.235 114.005 188.258 111.856 190.81C109.706 193.363 108.175 196.376 107.381 199.616L93.0577 258.033L92.5264 260.197C91.526 264.273 91.4169 268.517 92.2066 272.639C92.9962 276.761 94.6661 280.664 97.1022 284.083C99.5384 287.502 102.684 290.355 106.323 292.449C109.963 294.543 114.012 295.828 118.194 296.216C118.241 296.223 118.281 296.223 118.328 296.229L126.902 296.989L138.024 297.977L152.011 299.22L165.064 300.382C166.773 300.537 168.479 300.044 169.841 299.001C171.204 297.958 172.125 296.441 172.42 294.751C172.44 294.657 172.454 294.563 172.467 294.469L175.238 273.798L175.265 273.61C175.503 271.86 175.055 270.085 174.013 268.658C172.971 267.231 171.417 266.263 169.676 265.956Z" fill="#CCCCCC"/>
<path d="M134.441 109.335C125.312 127.272 118.116 145.773 97.9783 145.773C88.3077 145.773 79.0333 141.934 72.1951 135.101C65.357 128.267 61.5154 118.999 61.5154 109.335C61.5154 89.2105 77.8418 73.1484 97.9783 72.8964C118.444 72.6404 151.434 75.9477 134.441 109.335Z" fill="#2F2E41"/>
<path d="M157.344 343.995L156.516 335.743L155.898 335.776L47.1696 341.011L47.4519 349.364L47.9297 363.671C64.7537 376.478 83.4368 386.642 103.333 393.81L104.039 388.34C104.1 387.894 104.314 387.483 104.644 387.177C104.974 386.871 105.4 386.688 105.85 386.66C106.299 386.631 106.744 386.759 107.11 387.021C107.476 387.283 107.741 387.664 107.858 388.098L110.003 396.088C127.335 401.674 145.333 404.93 163.524 405.772L157.344 343.995Z" fill="#2F2E41"/>
<path d="M122.389 137.121C134.88 124.639 134.88 104.401 122.389 91.9186C109.898 79.4363 89.647 79.4363 77.1562 91.9186C64.6655 104.401 64.6655 124.639 77.1562 137.121C89.647 149.604 109.898 149.604 122.389 137.121Z" fill="#A0616A"/>
<path d="M163.591 336.301L157.25 316.624L157.142 316.288L156.819 315.28L155.01 309.676C154.425 307.855 153.867 306.027 153.349 304.193C152.872 302.539 152.426 300.882 152.011 299.22C151.419 296.908 150.882 294.587 150.397 292.258C148.756 284.429 147.662 276.496 147.122 268.516C146.974 266.305 146.869 264.09 146.806 261.87C146.412 248.264 147.638 234.659 150.458 221.342C152.912 209.826 151.601 197.827 146.718 187.112C141.834 176.397 133.636 167.532 123.331 161.823C116.569 158.089 109.085 155.845 101.382 155.245C100.851 155.204 100.32 155.171 99.7821 155.137C91.6455 154.623 83.4973 155.942 75.9391 158.997C68.3808 162.051 61.6055 166.763 56.1133 172.784C53.1716 175.986 50.6166 179.522 48.5009 183.321C42.6308 193.89 40.4271 206.104 42.2338 218.056L49.792 268.772L48.0708 290.121L46.04 315.28L45.9323 316.624L43.7669 343.451C43.6643 344.701 43.9673 345.951 44.6309 347.016C45.2946 348.081 46.2837 348.905 47.4519 349.364C48.1361 349.638 48.8668 349.777 49.6039 349.774C49.7116 349.774 49.8124 349.774 49.9201 349.767L157.344 343.995L158.326 343.941C159.222 343.895 160.095 343.643 160.878 343.205C161.661 342.768 162.333 342.156 162.842 341.417C163.351 340.679 163.683 339.833 163.813 338.946C163.943 338.059 163.867 337.154 163.591 336.301L163.591 336.301Z" fill="#CCCCCC"/>
<path d="M133.713 96.456C126.404 101.49 117.729 104.169 108.853 104.134C112.019 106.328 115.624 107.81 119.419 108.478C107.616 111.008 95.4185 111.076 83.5885 108.679C80.9589 108.258 78.4216 107.387 76.0878 106.105C73.8164 104.727 71.9162 102.533 71.4581 99.917C70.672 95.4292 74.1713 91.352 77.8078 88.6041C83.3757 84.4611 89.7954 81.6067 96.6026 80.2474C103.41 78.8881 110.434 79.0578 117.168 80.7442C121.564 81.88 125.969 83.7989 128.825 87.3274C131.68 90.856 132.526 96.2958 129.806 99.9293L133.713 96.456Z" fill="#2F2E41"/>
<path d="M135.349 299.484C133.303 300.395 131.081 300.848 128.842 300.809C126.602 300.77 124.398 300.24 122.385 299.258C120.372 298.276 118.599 296.864 117.19 295.123C115.782 293.382 114.773 291.353 114.235 289.18L60.0056 284.228L77.6691 262.135L126.458 270.225C130.171 269.562 133.998 270.284 137.214 272.253C140.43 274.222 142.812 277.301 143.908 280.908C145.004 284.514 144.738 288.397 143.16 291.821C141.583 295.245 138.803 297.971 135.349 299.484L135.349 299.484Z" fill="#A0616A"/>
<path d="M105.316 259.948L93.0577 258.033L80.6912 256.098C79.3594 255.89 78.0866 255.403 76.9566 254.668C75.8265 253.934 74.8647 252.969 74.1344 251.837C73.404 250.704 72.9217 249.431 72.7189 248.099C72.5162 246.767 72.5977 245.407 72.9581 244.109L83.6904 205.47C84.9891 200.701 84.6292 195.633 82.6697 191.095C80.7102 186.557 77.2672 182.819 72.9043 180.491C69.9569 178.92 66.6839 178.057 63.3445 177.969C60.0051 177.882 56.6913 178.573 53.6656 179.988C50.6307 181.38 47.9607 183.458 45.8661 186.057C43.7715 188.656 42.3094 191.706 41.595 194.966L28.0587 255.856C27.1468 259.963 27.1336 264.219 28.02 268.332C28.9064 272.445 30.6715 276.318 33.1945 279.686C35.7174 283.054 38.9387 285.837 42.6379 287.846C46.3371 289.855 50.4268 291.041 54.6273 291.324L101.45 294.462C103.162 294.579 104.855 294.049 106.195 292.978C107.535 291.906 108.424 290.371 108.685 288.676C108.706 288.582 108.712 288.488 108.726 288.394L111.046 267.67L111.066 267.481C111.266 265.727 110.779 263.963 109.707 262.559C108.636 261.155 107.062 260.22 105.316 259.948Z" fill="#CCCCCC"/>
<path d="M312.751 227.827L309.945 229.357L275.374 248.207L272.567 249.737C271.206 250.481 270.195 251.735 269.758 253.223C269.32 254.711 269.491 256.312 270.232 257.674L295.977 304.827C296.722 306.188 297.977 307.197 299.466 307.635C300.955 308.072 302.557 307.902 303.92 307.16L303.927 307.156L344.097 285.254L344.104 285.25C345.465 284.506 346.476 283.252 346.914 281.764C347.351 280.276 347.181 278.675 346.439 277.313L320.694 230.16C319.949 228.799 318.695 227.79 317.206 227.352C315.717 226.915 314.115 227.085 312.751 227.827Z" fill="#E6E6E6"/>
<path d="M313.559 229.305L310.235 231.117L276.698 249.403L273.375 251.215C272.405 251.746 271.685 252.638 271.374 253.698C271.062 254.758 271.184 255.898 271.712 256.868L297.457 304.02C297.987 304.989 298.881 305.709 299.941 306.02C301.001 306.332 302.142 306.21 303.113 305.682L303.12 305.678L343.29 283.776L343.297 283.772C344.266 283.241 344.986 282.349 345.298 281.289C345.609 280.229 345.488 279.089 344.96 278.119L319.215 230.967C318.684 229.998 317.791 229.279 316.731 228.967C315.67 228.656 314.529 228.777 313.559 229.305Z" fill="white"/>
<path d="M314.502 242.618C314.377 242.391 314.168 242.223 313.92 242.15C313.672 242.077 313.405 242.105 313.177 242.228L311.839 242.96L298.195 250.399C297.969 250.524 297.802 250.733 297.73 250.98C297.658 251.228 297.686 251.494 297.81 251.72C297.933 251.947 298.141 252.115 298.389 252.189C298.636 252.262 298.902 252.235 299.129 252.113L314.112 243.941C314.338 243.817 314.506 243.608 314.579 243.36C314.652 243.112 314.624 242.845 314.502 242.618Z" fill="#E6E6E6"/>
<path d="M319.606 243.579C319.545 243.466 319.462 243.367 319.363 243.287C319.264 243.207 319.149 243.148 319.027 243.112C318.904 243.076 318.776 243.066 318.649 243.08C318.522 243.094 318.399 243.133 318.288 243.195L299.775 253.289C299.663 253.35 299.564 253.433 299.484 253.533C299.404 253.632 299.344 253.746 299.308 253.869C299.272 253.992 299.261 254.12 299.274 254.247C299.288 254.374 299.327 254.497 299.388 254.609C299.45 254.721 299.533 254.82 299.632 254.9C299.732 254.98 299.846 255.04 299.969 255.076C300.092 255.112 300.22 255.123 300.347 255.109C300.474 255.096 300.598 255.057 300.71 254.996L301.571 254.525L306.957 251.589H306.964L319.216 244.902C319.329 244.842 319.429 244.759 319.51 244.66C319.592 244.56 319.652 244.445 319.688 244.322C319.725 244.199 319.736 244.07 319.722 243.942C319.708 243.814 319.668 243.691 319.606 243.579Z" fill="#E6E6E6"/>
<path d="M299.486 259.666L293.609 248.894C293.548 248.786 293.446 248.706 293.327 248.672C293.207 248.638 293.079 248.653 292.97 248.713L290.119 250.265L288.64 251.071L280.698 255.399L279.158 256.239C279.05 256.3 278.97 256.401 278.936 256.521C278.902 256.64 278.916 256.768 278.976 256.877L279.353 257.569L284.853 267.649C284.913 267.757 285.013 267.836 285.132 267.87C285.25 267.904 285.378 267.89 285.485 267.831L294.967 262.663L296.447 261.857L299.298 260.304C299.352 260.275 299.4 260.235 299.439 260.187C299.478 260.139 299.508 260.084 299.525 260.025C299.543 259.965 299.548 259.903 299.542 259.841C299.535 259.78 299.516 259.72 299.486 259.666Z" fill="#E6E6E6"/>
<path d="M321.932 256.286C321.809 256.06 321.601 255.892 321.354 255.819C321.107 255.746 320.841 255.774 320.614 255.896L300.293 266.977C300.113 267.076 299.969 267.228 299.881 267.412C299.793 267.597 299.765 267.804 299.802 268.005C299.816 268.11 299.851 268.21 299.903 268.301C299.954 268.394 300.02 268.478 300.098 268.55L300.105 268.557C300.255 268.692 300.444 268.777 300.645 268.801C300.846 268.825 301.049 268.787 301.228 268.691L321.549 257.61C321.661 257.548 321.76 257.465 321.841 257.365C321.921 257.265 321.98 257.15 322.016 257.027C322.051 256.904 322.062 256.776 322.048 256.648C322.034 256.521 321.994 256.398 321.932 256.286Z" fill="#E6E6E6"/>
<path d="M327.043 257.247C326.981 257.135 326.898 257.036 326.798 256.956C326.698 256.876 326.583 256.817 326.46 256.781C326.337 256.745 326.208 256.734 326.081 256.749C325.953 256.763 325.83 256.802 325.718 256.864L301.867 269.867C301.687 269.962 301.543 270.111 301.454 270.294C301.366 270.476 301.338 270.682 301.376 270.882V270.888C301.39 270.993 301.424 271.093 301.476 271.184C301.528 271.28 301.597 271.367 301.678 271.439C301.827 271.578 302.016 271.665 302.218 271.689C302.419 271.713 302.624 271.673 302.801 271.574L326.653 258.571C326.88 258.446 327.048 258.237 327.121 257.989C327.194 257.741 327.166 257.474 327.043 257.247Z" fill="#E6E6E6"/>
<path d="M293.486 277.764C295.771 277.764 297.622 275.913 297.622 273.631C297.622 271.348 295.771 269.498 293.486 269.498C291.202 269.498 289.351 271.348 289.351 273.631C289.351 275.913 291.202 277.764 293.486 277.764Z" fill="#E6E6E6"/>
<path d="M324.855 209.683L322.049 211.213L287.478 230.063L284.671 231.593C283.31 232.338 282.299 233.591 281.862 235.079C281.424 236.567 281.595 238.168 282.337 239.531L308.081 286.683C308.826 288.044 310.081 289.054 311.57 289.491C313.059 289.929 314.661 289.758 316.024 289.017L316.031 289.013L356.201 267.11L356.208 267.106C357.569 266.362 358.58 265.108 359.018 263.62C359.455 262.132 359.285 260.531 358.543 259.169L332.798 212.016C332.053 210.655 330.799 209.646 329.31 209.208C327.821 208.771 326.219 208.941 324.855 209.683Z" fill="#CCCCCC"/>
<path d="M325.663 211.161L322.339 212.973L288.802 231.259L285.479 233.072C284.509 233.602 283.789 234.494 283.478 235.554C283.166 236.614 283.288 237.754 283.816 238.724L309.561 285.876C310.091 286.845 310.985 287.565 312.045 287.876C313.105 288.188 314.246 288.066 315.217 287.538L315.224 287.534L355.393 265.632L355.401 265.628C356.37 265.098 357.09 264.205 357.402 263.145C357.713 262.085 357.592 260.945 357.064 259.975L331.319 212.823C330.788 211.854 329.895 211.135 328.835 210.823C327.774 210.512 326.633 210.633 325.663 211.161Z" fill="white"/>
<path d="M326.606 224.474C326.481 224.247 326.272 224.079 326.024 224.006C325.776 223.933 325.509 223.961 325.281 224.084L318.382 227.847L316.458 228.895L310.299 232.255C310.073 232.38 309.906 232.589 309.834 232.836C309.762 233.084 309.79 233.35 309.914 233.576C310.037 233.803 310.245 233.971 310.493 234.045C310.74 234.118 311.006 234.091 311.233 233.969L318.496 230.011L320.016 229.178L326.216 225.797C326.442 225.673 326.61 225.464 326.683 225.216C326.756 224.968 326.729 224.701 326.606 224.474Z" fill="#CCCCCC"/>
<path d="M331.71 225.435C331.649 225.322 331.566 225.224 331.467 225.143C331.368 225.063 331.253 225.004 331.131 224.968C331.008 224.933 330.88 224.922 330.753 224.936C330.626 224.95 330.503 224.99 330.392 225.052L320.769 230.3L319.289 231.106L311.879 235.145C311.767 235.206 311.668 235.289 311.588 235.389C311.508 235.488 311.448 235.603 311.412 235.725C311.376 235.848 311.365 235.976 311.379 236.103C311.392 236.23 311.431 236.353 311.492 236.465C311.554 236.578 311.637 236.676 311.736 236.756C311.836 236.837 311.95 236.896 312.073 236.932C312.196 236.968 312.324 236.979 312.451 236.966C312.579 236.952 312.702 236.913 312.814 236.852L320.224 232.813L321.704 232.007L331.32 226.758C331.433 226.698 331.533 226.616 331.614 226.516C331.696 226.416 331.756 226.302 331.792 226.178C331.829 226.055 331.84 225.926 331.826 225.798C331.812 225.67 331.772 225.547 331.71 225.435Z" fill="#CCCCCC"/>
<path d="M311.59 241.522L306.903 232.934L306.096 231.456L305.713 230.75C305.652 230.642 305.55 230.562 305.431 230.528C305.311 230.494 305.183 230.509 305.074 230.569L295.559 235.757L291.262 238.095C291.154 238.156 291.074 238.257 291.04 238.377C291.006 238.497 291.021 238.625 291.08 238.733L291.464 239.432L291.881 240.205L292.271 240.911V240.917L296.957 249.506C297.017 249.613 297.118 249.693 297.236 249.727C297.355 249.761 297.482 249.746 297.59 249.687L311.402 242.161C311.456 242.131 311.504 242.092 311.543 242.043C311.583 241.995 311.612 241.94 311.629 241.881C311.647 241.821 311.652 241.759 311.646 241.698C311.639 241.636 311.62 241.576 311.59 241.522Z" fill="#1E6BDD"/>
<path d="M334.036 238.142C333.913 237.916 333.705 237.748 333.458 237.675C333.211 237.602 332.945 237.63 332.718 237.752L326.646 241.065L325.167 241.872L319.303 245.064L312.397 248.834C312.284 248.895 312.185 248.978 312.104 249.078C312.024 249.177 311.964 249.292 311.927 249.415C311.891 249.538 311.88 249.667 311.893 249.794C311.907 249.921 311.945 250.045 312.007 250.157C312.068 250.27 312.151 250.369 312.251 250.45C312.351 250.53 312.465 250.59 312.588 250.626C312.711 250.663 312.84 250.674 312.968 250.661C313.095 250.647 313.219 250.609 313.332 250.547L326.102 243.585L327.581 242.779L333.653 239.466C333.765 239.404 333.864 239.321 333.945 239.221C334.025 239.121 334.084 239.007 334.12 238.884C334.155 238.761 334.166 238.632 334.152 238.504C334.138 238.377 334.098 238.254 334.036 238.142Z" fill="#CCCCCC"/>
<path d="M339.147 239.103C339.085 238.991 339.002 238.892 338.902 238.812C338.802 238.732 338.687 238.673 338.564 238.637C338.441 238.602 338.312 238.591 338.185 238.605C338.058 238.619 337.934 238.658 337.822 238.72L328.226 243.955L326.747 244.761L313.971 251.723C313.858 251.784 313.758 251.867 313.678 251.966C313.597 252.066 313.537 252.18 313.5 252.303C313.464 252.426 313.452 252.555 313.466 252.682C313.48 252.81 313.518 252.933 313.58 253.046C313.641 253.158 313.725 253.257 313.825 253.337C313.925 253.418 314.039 253.477 314.163 253.513C314.286 253.549 314.415 253.56 314.542 253.546C314.67 253.531 314.793 253.492 314.905 253.43L327.675 246.468L329.155 245.662L338.757 240.427C338.984 240.302 339.152 240.093 339.225 239.845C339.298 239.597 339.27 239.33 339.147 239.103Z" fill="#CCCCCC"/>
<path d="M305.59 259.62C307.875 259.62 309.726 257.769 309.726 255.487C309.726 253.204 307.875 251.354 305.59 251.354C303.306 251.354 301.455 253.204 301.455 255.487C301.455 257.769 303.306 259.62 305.59 259.62Z" fill="#CCCCCC"/>
<path d="M308.369 278.723C309.065 278.791 309.755 278.915 310.431 279.091L357.335 237.511L354.302 222.594L376.231 215.078L384.168 240.963C384.81 243.055 384.755 245.297 384.012 247.355C383.269 249.412 381.879 251.173 380.049 252.374L320.42 291.497C320.508 294.188 319.774 296.843 318.315 299.108C316.857 301.372 314.742 303.139 312.254 304.174C309.766 305.209 307.022 305.462 304.386 304.9C301.75 304.338 299.349 302.987 297.5 301.027C295.651 299.068 294.443 296.592 294.037 293.93C293.63 291.267 294.044 288.544 295.224 286.123C296.404 283.702 298.294 281.697 300.642 280.375C302.99 279.053 305.685 278.477 308.369 278.723Z" fill="#FFB8B8"/>
<path d="M389.621 218.802L376.333 193.441C374.966 189.584 372.152 186.408 368.486 184.585C364.82 182.762 360.588 182.434 356.685 183.67C356.537 183.71 356.395 183.757 356.248 183.811C352.292 185.193 349.046 188.087 347.223 191.858C345.4 195.628 345.148 199.968 346.524 203.924L351.856 231.953C352.009 232.755 352.333 233.515 352.807 234.181C353.28 234.847 353.892 235.402 354.6 235.81C355.374 236.263 356.246 236.521 357.142 236.563C357.879 236.609 358.618 236.507 359.314 236.26L362.165 235.266L380.469 228.895L386.454 226.812C387.226 226.542 387.93 226.11 388.52 225.543C389.11 224.977 389.57 224.291 389.871 223.531C390.171 222.771 390.305 221.955 390.261 221.139C390.218 220.323 390 219.526 389.621 218.802Z" fill="#1E6BDD"/>
<path d="M439.782 316.624H0.672449C0.494104 316.624 0.323064 316.554 0.196955 316.428C0.0708466 316.302 0 316.131 0 315.952C0 315.774 0.0708466 315.603 0.196955 315.477C0.323064 315.351 0.494104 315.281 0.672449 315.281H439.782C439.96 315.281 440.131 315.351 440.257 315.477C440.383 315.603 440.454 315.774 440.454 315.952C440.454 316.131 440.383 316.302 440.257 316.428C440.131 316.554 439.96 316.624 439.782 316.624Z" fill="#3F3D56"/>
<path d="M76.3203 304.193V304.529C76.3226 306.807 76.9866 309.035 78.2316 310.944C79.4766 312.853 81.2491 314.359 83.3341 315.281C84.8296 315.949 86.45 316.292 88.0882 316.289H196.689V304.193H76.3203Z" fill="#3F3D56"/>
<path d="M272.514 224.474C270.791 220.918 268.137 217.895 264.835 215.724C263.338 214.734 261.722 213.935 260.027 213.345C257.716 212.539 255.286 212.128 252.838 212.129H148.609C142.814 212.136 137.26 214.439 133.162 218.533C129.065 222.628 126.761 228.179 126.754 233.969V294.449C126.752 295.298 126.802 296.146 126.902 296.989C127.05 298.249 127.306 299.495 127.668 300.712C128.028 301.91 128.491 303.075 129.054 304.193C130.864 307.828 133.653 310.885 137.108 313.022C140.563 315.159 144.546 316.291 148.609 316.289H252.838C255.709 316.29 258.551 315.725 261.203 314.628C263.855 313.531 266.265 311.922 268.294 309.894C270.324 307.866 271.934 305.458 273.031 302.808C274.129 300.157 274.694 297.317 274.693 294.449V233.969C274.698 230.68 273.953 227.432 272.514 224.474Z" fill="#3F3D56"/>
<path d="M206.439 269.585C209.41 269.585 211.819 267.178 211.819 264.209C211.819 261.24 209.41 258.833 206.439 258.833C203.468 258.833 201.06 261.24 201.06 264.209C201.06 267.178 203.468 269.585 206.439 269.585Z" fill="white"/>
</g>
<defs>
<clipPath id="clip0_270_1151">
<rect width="481" height="406" fill="white"/>
</clipPath>
</defs>
</svg>
