<svg width="114" height="104" viewBox="0 0 114 104" fill="none" xmlns="http://www.w3.org/2000/svg">
<g clip-path="url(#clip0_263_1022)">
<path d="M40.8389 83.0547L39.7468 85.5023C40.6345 85.361 41.4601 86.1188 41.4786 87.0919C41.4972 88.0651 40.7054 89.0775 39.8175 89.2159C39.9872 89.9714 40.7194 90.3045 41.355 90.6099C41.9906 90.9153 42.6756 91.4217 42.6283 92.2268C42.5903 92.8732 42.0555 93.4439 41.4875 93.6734C40.9196 93.9028 40.3236 93.8676 39.7484 93.8291C40.6201 94.7404 40.705 96.4533 39.9395 97.6823C39.174 98.9112 37.6452 99.5162 36.5005 99.0431C37.3093 100.049 37.1336 101.89 36.1299 102.928C35.118 103.974 33.6515 104.075 32.3695 103.965C29.1048 103.689 25.994 102.457 23.4265 100.423C22.4465 99.6446 21.531 98.7292 20.9719 97.5352C20.4129 96.3412 20.2481 94.8294 20.7689 93.4706C20.6284 95.1728 18.9238 96.5172 17.3903 96.5924C15.8568 96.6676 14.5179 95.8043 13.3801 94.8199C11.867 93.5107 10.4661 91.6756 10.6738 89.4114C10.7766 88.2905 11.2664 87.2124 11.7469 86.1682L12.6783 84.1437C13.0544 83.3264 13.4389 82.4953 14.0049 81.8095C14.5709 81.1237 15.3565 80.5927 16.1426 80.5978C15.9628 79.777 15.7823 78.9257 15.9329 78.0537C16.0835 77.1816 16.6603 76.2787 17.4448 76.0745C18.4431 75.8146 19.2892 76.7354 20.2931 76.6486C21.2592 76.5651 22.0576 75.5961 22.9958 75.2121C23.382 75.0451 23.8086 74.9944 24.2233 75.0661C24.638 75.1378 25.0227 75.3288 25.3304 75.6157C25.9251 76.1959 26.173 77.1763 25.9596 78.1039C25.7727 78.9165 25.2752 79.6332 24.9732 80.4169C24.6712 81.2006 24.6243 82.2082 25.2043 82.6362C25.9041 83.1527 26.9694 82.4499 27.5161 81.5997C28.0629 80.7494 28.3768 79.7199 29.0682 79.0049C29.8842 78.1609 31.1616 77.9631 32.0018 78.5506C32.842 79.1381 33.1633 80.4538 32.7397 81.5722C32.3934 82.4866 31.6 83.4116 31.8752 84.2727C32.166 85.1828 33.4385 85.0676 34.2061 84.4244C34.9736 83.7812 35.4833 82.8124 36.2415 82.1548C37.0115 81.4869 38.0171 81.1943 38.8999 81.3812C39.3477 81.485 39.7621 81.6999 40.1049 82.0061C40.4477 82.3122 40.7078 82.6997 40.8612 83.1328" fill="#E6E6E6"/>
<path d="M23.1566 76.1766L25.4227 77.2289C25.7633 77.397 26.1497 77.4491 26.5227 77.3771C26.8517 77.2994 27.074 77.0983 27.1324 76.8254L27.6597 74.3639C27.7592 73.8996 27.3745 73.3502 26.7448 73.0579L25.4934 72.4767C24.8638 72.1844 24.1955 72.2448 23.9047 72.6203L22.3626 74.6104C22.1915 74.8311 22.1812 75.1306 22.3339 75.432C22.5194 75.7633 22.8084 76.0249 23.1566 76.1766Z" fill="#3F3D56"/>
<path d="M93.4233 30.6839C91.2929 24.8562 87.9683 19.5374 83.6624 15.0681C80.0092 11.2777 74.3235 11.4352 74.3235 11.4352L74.291 11.395C72.9226 9.70842 71.0864 8.46332 69.0127 7.81587C66.9389 7.16841 64.7201 7.14743 62.6345 7.75555C62.0924 7.91103 61.6754 7.97994 61.4771 7.91069C57.8616 6.646 58.0315 3.79148 54.9121 1.4919C49.4502 -2.53453 31.3338 2.07767 28.7792 9.48678C26.7088 15.4917 17.4668 18.4022 14.0139 22.9955C13.474 23.7137 12.9443 24.4403 12.4248 25.1751C12.1812 25.5165 11.9403 25.8605 11.7022 26.207C9.25583 29.7478 7.0612 33.4558 5.13448 37.3037C3.87101 39.8178 2.77292 42.4115 1.8472 45.0684C-1.7537 55.5894 -0.522308 63.428 9.40655 61.4915C10.5819 61.2616 11.729 61.056 12.8478 60.8745C14.468 60.6103 16.0317 60.3931 17.5388 60.223C19.5684 59.9924 21.4993 59.8412 23.3315 59.7696C23.9476 59.7448 24.5523 59.7282 25.1458 59.7198C33.9204 59.5982 40.4291 61.2487 45.3875 63.811C46.2281 64.2442 47.0246 64.7026 47.7771 65.186C48.9265 65.9203 50.024 66.7328 51.0618 67.6178C52.4979 68.8495 53.8222 70.2058 55.0193 71.6707L55.0851 71.7511C60.8846 78.8413 62.7933 86.6904 66.8275 88.0724C84.0727 93.981 94.9795 72.5619 96.0981 51.6093C96.1545 50.5534 96.1857 49.5006 96.1917 48.4509C96.1952 47.9816 96.1928 47.5136 96.1847 47.0469C96.167 45.8292 96.1133 44.6194 96.0234 43.4242C95.9898 42.9672 95.9508 42.5127 95.9065 42.0606C95.8576 41.573 95.8045 41.0883 95.7431 40.6067C95.3044 37.0763 94.5369 33.7174 93.4233 30.6839Z" fill="#1E6BDD"/>
<path d="M39.9718 42.2118C41.3491 42.8526 41.3718 45.7231 40.9399 46.6532L40.1573 48.3367L35.1687 46.0202L35.9513 44.3367C36.384 43.407 38.5936 41.5731 39.9718 42.2118Z" fill="#3F3D56"/>
<path d="M53.3775 66.3822C53.4653 66.3822 53.5518 66.361 53.6296 66.3205C53.7075 66.2799 53.7744 66.2212 53.8247 66.1493C53.875 66.0775 53.9072 65.9945 53.9186 65.9075C53.93 65.8205 53.9202 65.7321 53.8901 65.6497C53.8657 65.5823 53.8281 65.5205 53.7796 65.4678C53.7312 65.415 53.6727 65.3724 53.6076 65.3425L27.845 53.3794C27.7801 53.3492 27.7098 53.3321 27.6383 53.3291C27.5667 53.3261 27.4953 53.3371 27.428 53.3617C27.3607 53.3863 27.299 53.4238 27.2462 53.4723C27.1935 53.5207 27.1508 53.579 27.1206 53.6439C27.0598 53.7751 27.0536 53.925 27.1032 54.0607C27.1529 54.1964 27.2544 54.3069 27.3854 54.368H27.3855L53.148 66.331C53.2199 66.3647 53.2982 66.3821 53.3775 66.3822Z" fill="#3F3D56"/>
<path d="M33.2255 47.0938L40.5896 50.5134L29.0378 75.3631L21.6737 71.9435L33.2255 47.0938Z" fill="#E6E6E6"/>
<path d="M60.8698 15.8124C62.247 16.4532 62.2697 19.3237 61.8379 20.2538L61.0553 21.9373L56.0666 19.6208L56.8493 17.9373C57.282 17.0076 59.4915 15.1737 60.8698 15.8124Z" fill="#3F3D56"/>
<path d="M30.0114 79.0333L32.2774 80.0856C32.6181 80.2537 33.0044 80.3058 33.3774 80.2338C33.7064 80.156 33.9287 79.955 33.9871 79.682L34.5144 77.2206C34.614 76.7563 34.2292 76.2069 33.5996 75.9146L32.3481 75.3334C31.7185 75.0411 31.0503 75.1015 30.7594 75.477L29.2173 77.4671C29.0463 77.6878 29.0359 77.9873 29.1886 78.2887C29.3742 78.62 29.6631 78.8816 30.0114 79.0333Z" fill="#3F3D56"/>
<path d="M36.9785 82.4882L39.2446 83.5404C39.5852 83.7086 39.9716 83.7606 40.3446 83.6886C40.6736 83.6109 40.8959 83.4099 40.9543 83.1369L41.4816 80.6755C41.5811 80.2111 41.1964 79.6618 40.5667 79.3694L39.3153 78.7883C38.6856 78.4959 38.0174 78.5563 37.7266 78.9318L36.1845 80.922C36.0134 81.1426 36.0031 81.4421 36.1558 81.7435C36.3413 82.0749 36.6303 82.3364 36.9785 82.4882Z" fill="#3F3D56"/>
<path d="M52.1584 24.9212L59.5226 28.3408L36.172 78.5716L28.8078 75.152L52.1584 24.9212Z" fill="#E6E6E6"/>
<path d="M44.5174 50.8151L45.3438 48.9978L44.8681 48.7786L44.0443 50.5901L32.1154 77.0249L32.5906 77.2455" fill="#3F3D56"/>
<path d="M35.1975 49.3046L36.0238 47.4873L35.5481 47.2681L34.7243 49.0796L22.7954 75.5144L23.2706 75.735" fill="#3F3D56"/>
<path d="M48.6826 28.9411L58.6607 33.5745C59.296 32.5868 61.211 27.5249 60.781 26.0231L61.1038 24.5909L54.2141 21.3916L53.2919 22.5254C51.923 22.9452 49.2581 27.6997 48.6826 28.9411Z" fill="#E6E6E6"/>
<path d="M53.9262 21.4529L61.0359 24.7544C61.2983 24.8762 61.5778 24.8314 61.6601 24.6543C61.6719 24.6287 61.6792 24.6014 61.6818 24.5734L62.0497 20.6501C62.0655 20.4821 61.9217 20.2917 61.702 20.1897L56.987 18.0002C56.7673 17.8982 56.529 17.9111 56.4107 18.0315L53.648 20.8428C53.5067 20.9866 53.5834 21.2327 53.8193 21.3925C53.8533 21.4155 53.889 21.4357 53.9262 21.4529Z" fill="#E6E6E6"/>
<path d="M48.3498 52.1905C48.4267 52.1907 48.5034 52.1817 48.5782 52.1636C48.6837 52.1417 48.7827 52.096 48.8678 52.03C48.9529 51.964 49.0217 51.8794 49.069 51.7827L53.4157 42.4323C53.5956 42.0452 53.3541 41.5502 52.8773 41.3288L46.5126 38.3732C46.0358 38.1517 45.5016 38.2867 45.3216 38.6737L40.9749 48.0242C40.9314 48.1227 40.9111 48.2298 40.9155 48.3373C40.9199 48.4449 40.9488 48.55 41.0001 48.6446C41.1118 48.8589 41.2926 49.0291 41.5133 49.1277L47.878 52.0832C48.0256 52.1528 48.1866 52.1894 48.3498 52.1905Z" fill="#3F3D56"/>
<path d="M47.4794 53.606L54.8435 57.0256L43.2917 81.8753L35.9276 78.4557L47.4794 53.606Z" fill="#E6E6E6"/>
<path d="M56.5519 21.8628L58.7114 22.8657C59.1282 23.0592 59.6904 22.7367 59.9645 22.1469C60.2387 21.5572 60.1227 20.9198 59.706 20.7263L57.5464 19.7234C57.1297 19.5299 56.5674 19.8524 56.2933 20.4421C56.0191 21.0319 56.1351 21.6693 56.5519 21.8628Z" fill="#3F3D56"/>
<path d="M54.0821 48.6571C55.4593 49.2979 55.482 52.1684 55.0501 53.0985L54.2675 54.782L49.2789 52.4655L50.0615 50.782C50.4942 49.8523 52.7038 48.0184 54.0821 48.6571Z" fill="#3F3D56"/>
<path d="M76.9597 42.9275C77.4461 43.2514 77.9439 42.4805 77.4482 42.1709C76.9618 41.847 76.464 42.618 76.9597 42.9275Z" fill="#E6E6E6"/>
<path d="M26.3298 31.8503C26.8162 32.1742 27.314 31.4033 26.8183 31.0938C26.3319 30.7699 25.8341 31.5408 26.3298 31.8503Z" fill="#E6E6E6"/>
<path d="M60.8387 40.6616C61.3251 40.9855 61.8229 40.2146 61.3272 39.9051C60.8408 39.5812 60.343 40.3521 60.8387 40.6616Z" fill="#E6E6E6"/>
<path d="M76.9597 70.872C77.4461 71.196 77.9439 70.425 77.4482 70.1155C76.9618 69.7916 76.464 70.5625 76.9597 70.872Z" fill="#E6E6E6"/>
<path d="M52.1485 7.80785C52.6349 8.13175 53.1328 7.36083 52.637 7.05131C52.1506 6.72742 51.6528 7.49834 52.1485 7.80785Z" fill="#E6E6E6"/>
<path d="M76.0781 22.6614C76.5645 22.9853 77.0623 22.2143 76.5666 21.9048C76.0802 21.5809 75.5824 22.3519 76.0781 22.6614Z" fill="#E6E6E6"/>
<path d="M41.66 18.4032L41.9694 18.3353L41.9017 18.0259L42.108 17.9807L42.1759 18.2901L42.4853 18.2224L42.5305 18.4286L42.2211 18.4964L42.2888 18.8057L42.0825 18.8509L42.0146 18.5415L41.7052 18.6093L41.66 18.4032Z" fill="#E6E6E6"/>
<path d="M92.0502 44.1799L92.3597 44.112L92.2919 43.8028L92.4982 43.7576L92.5661 44.0668L92.8757 43.9991L92.9209 44.2053L92.6113 44.2732L92.6791 44.5826L92.4728 44.6276L92.4049 44.3183L92.0955 44.3861L92.0502 44.1799Z" fill="#E6E6E6"/>
<path d="M28.5881 57.3286C28.8457 57.4479 29.14 57.4601 29.4066 57.3627C29.6731 57.2654 29.8902 57.0663 30.0101 56.8091L31.2837 54.0694C31.4029 53.8121 31.4151 53.518 31.3175 53.2518C31.2199 52.9855 31.0206 52.7689 30.7633 52.6494C30.5061 52.53 30.2119 52.5174 29.9454 52.6146C29.6788 52.7118 29.4618 52.9107 29.342 53.1677L28.0683 55.9075C27.949 56.1649 27.9368 56.4591 28.0342 56.7255C28.1317 56.9919 28.3309 57.2088 28.5881 57.3286Z" fill="#3F3D56"/>
<path d="M50.2507 67.3989C50.5083 67.5182 50.8026 67.5304 51.0692 67.433C51.3358 67.3356 51.5528 67.1366 51.6727 66.8794L52.9463 64.1397C53.0655 63.8824 53.0777 63.5883 52.9801 63.3221C52.8825 63.0559 52.6832 62.8392 52.4259 62.7197C52.1687 62.6003 51.8745 62.5877 51.608 62.6849C51.3414 62.7821 51.1244 62.981 51.0046 63.238L49.7309 65.9778C49.6116 66.2352 49.5994 66.5294 49.6968 66.7958C49.7943 67.0622 49.9935 67.2791 50.2507 67.3989Z" fill="#3F3D56"/>
<path d="M30.5502 51.3426L39.09 55.3082C39.6337 54.4628 41.2727 50.1305 40.9047 48.8452L40.7241 47.4073L35.625 44.907L34.4951 45.8517C32.9032 45.3138 30.5631 49.2564 30.5502 51.3426Z" fill="#E6E6E6"/>
<path d="M34.5149 51.0677L36.6745 52.0705C37.0912 52.264 37.7253 51.787 38.0878 51.0072C38.4503 50.2275 38.4061 49.4354 37.9894 49.2419L35.8298 48.2391C35.4131 48.0456 34.779 48.5227 34.4165 49.3024C34.054 50.0822 34.0982 50.8742 34.5149 51.0677Z" fill="#3F3D56"/>
<path d="M52.8298 56.228L53.6561 54.4107L53.1804 54.1914L52.3566 56.0029L40.4277 82.4377L40.9029 82.6584" fill="#3F3D56"/>
<path d="M44.6603 57.7879L53.2001 61.7535C54.46 61.1033 56.3854 56.8492 55.0148 55.2905L54.8342 53.8526L49.7351 51.3523L48.6052 52.297C47.4336 52.6563 45.1529 56.7254 44.6603 57.7879Z" fill="#E6E6E6"/>
<path d="M48.8009 57.1349L50.9604 58.1378C51.3772 58.3313 51.9718 57.939 52.2859 57.2635C52.5999 56.5879 52.5163 55.8807 52.0996 55.6872L49.94 54.6844C49.5233 54.4909 48.9286 54.8832 48.6146 55.5587C48.3006 56.2342 48.3841 56.9414 48.8009 57.1349Z" fill="#3F3D56"/>
<path d="M92.0819 38.7504C84.9174 38.7504 79.1095 32.9456 79.1095 25.7851C79.1095 18.6246 84.9174 12.8198 92.0819 12.8198C99.2463 12.8198 105.054 18.6246 105.054 25.7851C105.054 32.9456 99.2463 38.7504 92.0819 38.7504Z" fill="#FF6584"/>
<path opacity="0.3" d="M38.8935 39.2892L31.0102 16.2778L39.6666 39.0137C39.7094 39.0677 39.7387 39.1311 39.7521 39.1986C39.7655 39.2662 39.7626 39.336 39.7436 39.4022C39.7246 39.4684 39.6902 39.5291 39.643 39.5793C39.5958 39.6296 39.5374 39.6678 39.4725 39.6909C39.4076 39.7141 39.3381 39.7214 39.2698 39.7123C39.2015 39.7032 39.1363 39.678 39.0797 39.6387C39.0231 39.5995 38.9767 39.5473 38.9443 39.4865C38.9119 39.4257 38.8945 39.358 38.8935 39.2892H38.8935Z" fill="#F0F0F0"/>
<path d="M18.7984 25.5727C20.3417 26.0853 22.0525 26.5888 23.9309 27.0833C33.6469 29.64 46.6702 31.6343 60.6018 32.699C74.5332 33.7637 87.7086 33.7714 97.7006 32.7209C102.568 32.2092 106.418 31.4731 109.143 30.5331C112.028 29.538 113.545 28.3388 113.649 26.9691C113.854 24.3005 108.585 21.9518 104.129 20.4514L104.008 20.8093C110.127 22.8697 113.417 25.0471 113.273 26.9403C113.088 29.3516 107.398 31.3216 97.6611 32.3454C87.691 33.3935 74.54 33.3855 60.6305 32.3225C46.7211 31.2595 33.7217 29.2691 24.027 26.7181C14.5593 24.2269 9.23473 21.415 9.41924 19.0037C9.57242 17.0017 13.5209 15.289 20.5374 14.1811L20.4784 13.8081C15.3801 14.6132 9.25762 16.163 9.04244 18.9749C8.93768 20.3447 10.2538 21.7602 12.9542 23.1822C14.4935 23.9928 16.4494 24.7924 18.7984 25.5727Z" fill="#3F3D56"/>
<path d="M14.9866 48.5679C14.2421 48.5679 13.6386 47.9647 13.6386 47.2207C13.6386 46.4767 14.2421 45.8735 14.9866 45.8735C15.731 45.8735 16.3345 46.4767 16.3345 47.2207C16.3345 47.9647 15.731 48.5679 14.9866 48.5679Z" fill="#FF6584"/>
<path d="M6.42236 85.0723C5.67793 85.0723 5.07444 84.4691 5.07444 83.7251C5.07444 82.9811 5.67793 82.3779 6.42236 82.3779C7.16679 82.3779 7.77026 82.9811 7.77026 83.7251C7.77026 84.4691 7.16679 85.0723 6.42236 85.0723Z" fill="#F2F2F2"/>
<path d="M52.3923 93.2749C50.9409 93.2749 49.7643 92.0989 49.7643 90.6483C49.7643 89.1977 50.9409 88.0217 52.3923 88.0217C53.8437 88.0217 55.0203 89.1977 55.0203 90.6483C55.0203 92.0989 53.8437 93.2749 52.3923 93.2749Z" fill="#F2F2F2"/>
<path d="M72.4175 58.5122C71.673 58.5122 71.0696 57.9091 71.0696 57.165C71.0696 56.421 71.673 55.8179 72.4175 55.8179C73.1619 55.8179 73.7654 56.421 73.7654 57.165C73.7654 57.9091 73.1619 58.5122 72.4175 58.5122Z" fill="#3F3D56"/>
<path d="M27.1024 60.2656L21.2868 61.7702L17.7199 68.7725L23.7501 69.0089L27.1024 60.2656Z" fill="#E6E6E6"/>
<path d="M40.5258 50.1711L37.325 53.3719L29.1956 70.9386L30.6923 72.231L40.5258 50.1711Z" fill="#CCCCCC"/>
<path d="M47.4854 53.0725L47.2342 57.591L39.5611 75.3615L37.5994 75.1089L47.4854 53.0725Z" fill="#CCCCCC"/>
<path d="M47.6948 71.3262L50.8269 76.4496L48.518 83.9605L44.0201 79.9391L47.6948 71.3262Z" fill="#E6E6E6"/>
<path d="M20.027 74.4744C21.6532 74.4744 23.4356 74.413 25.3742 74.2901C35.4012 73.6538 48.3892 71.4412 61.9457 68.0602C75.5021 64.6793 88.0075 60.5336 97.1581 56.3872C101.616 54.3672 105.037 52.4553 107.326 50.7042C109.75 48.8504 110.811 47.2345 110.478 45.9016C109.83 43.3049 104.089 42.7368 99.3867 42.7175L99.3851 43.0952C105.842 43.1216 109.651 44.1508 110.111 45.9931C110.697 48.3394 105.919 52.0025 97.0021 56.0432C87.8716 60.1806 75.3892 64.3182 61.8541 67.6939C48.3192 71.0695 35.3551 73.2782 25.3502 73.9133C15.5796 74.5335 9.63944 73.5435 9.05363 71.1971C8.56725 69.2489 11.7738 66.3791 18.0826 63.116L17.9089 62.7807C13.3249 65.1517 8.00388 68.5523 8.68698 71.2885C9.0198 72.6214 10.7154 73.5499 13.7267 74.0481C15.4432 74.3321 17.5517 74.4744 20.027 74.4744Z" fill="#3F3D56"/>
</g>
<defs>
<clipPath id="clip0_263_1022">
<rect width="113.655" height="104" fill="white" transform="matrix(-1 0 0 1 113.655 0)"/>
</clipPath>
</defs>
</svg>
