<svg width="129" height="92" viewBox="0 0 129 92" fill="none" xmlns="http://www.w3.org/2000/svg">
<g clip-path="url(#clip0_263_1086)">
<path d="M117.791 82.7417C118.923 84.7416 117.963 91.4961 117.963 91.4961C117.963 91.4961 111.681 88.8367 110.549 86.8377C110.007 85.8774 109.869 84.7413 110.164 83.679C110.459 82.6166 111.164 81.715 112.124 81.1721C113.084 80.6293 114.22 80.4897 115.283 80.784C116.345 81.0783 117.247 81.7824 117.791 82.7417V82.7417Z" fill="#F1F1F1"/>
<path d="M118.054 91.4874L117.921 91.5156C116.635 85.4081 112.146 81.2665 112.101 81.2254L112.193 81.1245C112.238 81.1659 116.76 85.3357 118.054 91.4874Z" fill="white"/>
<path d="M128.071 85.0189C126.536 87.8039 117.88 91.5767 117.88 91.5767C117.88 91.5767 116.453 82.2431 117.988 79.4589C118.725 78.1217 119.963 77.1322 121.43 76.7081C122.897 76.2839 124.472 76.4598 125.809 77.1971C127.147 77.9344 128.136 79.1727 128.56 80.6396C128.984 82.1064 128.808 83.6817 128.071 85.0189Z" fill="#F1F1F1"/>
<path d="M117.957 91.6778L117.827 91.5409C124.09 85.5926 125.711 77.2962 125.727 77.2131L125.913 77.248C125.897 77.3317 124.266 85.6862 117.957 91.6778Z" fill="white"/>
<path d="M30.3282 63.9305C29.3376 63.9272 28.3513 63.7996 27.3925 63.5507L27.2035 63.4984L27.0282 63.4106C20.6903 60.2329 15.3433 56.0356 11.1358 50.9352C7.65287 46.6883 4.93741 41.8665 3.11154 36.6865C0.928082 30.4848 -0.122375 23.9409 0.0103152 17.3674C0.0129927 17.2294 0.0152586 17.1229 0.0152586 17.0495C0.0152586 13.854 1.78897 11.0503 4.534 9.90648C6.63491 9.0311 25.7101 1.19614 27.0884 0.630047C29.684 -0.670507 32.453 0.41501 32.8961 0.604837C33.8901 1.01122 51.5239 8.22369 55.3346 10.0382C59.2619 11.9084 60.3097 15.268 60.3097 16.9582C60.3097 24.6107 58.9844 31.7625 56.3706 38.215C54.2596 43.4379 51.2677 48.2596 47.5253 52.4701C40.3046 60.5959 33.082 63.4765 33.0123 63.5019C32.1491 63.7989 31.2409 63.9439 30.3282 63.9305ZM28.6297 59.7232C29.2558 59.8636 30.6975 60.0741 31.6372 59.7314C32.8309 59.296 38.876 56.1613 44.5251 49.8041C52.3301 41.0207 56.2904 29.9793 56.2962 16.9865C56.2822 16.7233 56.0953 14.8458 53.6091 13.662C49.8723 11.8825 31.5434 4.38785 31.3586 4.31231L31.308 4.29084C30.9239 4.12988 29.7015 3.79084 28.8588 4.23241L28.6901 4.31107C28.4858 4.39498 8.23722 12.7115 6.0777 13.6113C4.56705 14.2407 4.02881 15.8 4.02881 17.0495C4.02881 17.1408 4.02645 17.2736 4.02311 17.4453C3.85052 26.3354 5.90776 48.2114 28.6297 59.7232Z" fill="#3F3D56"/>
<path d="M27.9277 2.45474C27.9277 2.45474 7.49507 10.8467 5.30586 11.7589C3.11665 12.671 2.02204 14.8603 2.02204 17.0495C2.02204 19.2387 0.380141 47.8049 27.9277 61.6166C27.9277 61.6166 30.4279 62.3084 32.3248 61.6166C34.2217 60.9249 58.303 49.2491 58.303 16.9583C58.303 16.9583 58.303 13.6744 54.4718 11.8501C50.6407 10.0258 32.1179 2.45474 32.1179 2.45474C32.1179 2.45474 29.8432 1.45135 27.9277 2.45474Z" fill="#1E6BDD"/>
<path opacity="0.1" d="M30.1169 9.02246V53.7906C30.1169 53.7906 9.50187 43.8674 9.68431 17.7793L30.1169 9.02246Z" fill="black"/>
<path d="M30.3858 41.1977L23.8188 32.7541L27.6378 29.7839L30.7472 33.7818L41.2514 22.6931L44.764 26.0212L30.3858 41.1977Z" fill="white"/>
<path d="M128.843 91.9773H68.8367C68.7949 91.9773 68.7549 91.9608 68.7253 91.9312C68.6958 91.9017 68.6792 91.8616 68.6792 91.8199C68.6792 91.7781 68.6958 91.738 68.7253 91.7085C68.7549 91.6789 68.7949 91.6624 68.8367 91.6624H128.843C128.884 91.6624 128.924 91.6789 128.954 91.7085C128.983 91.738 129 91.7781 129 91.8199C129 91.8616 128.983 91.9017 128.954 91.9312C128.924 91.9608 128.884 91.9773 128.843 91.9773Z" fill="#CACACA"/>
<path d="M86.1826 89.4948L88.6183 89.4947L89.7771 80.0996L86.1821 80.0998L86.1826 89.4948Z" fill="#FFB8B8"/>
<path d="M85.5612 88.6997L90.3581 88.6995H90.3583C91.169 88.6995 91.9466 89.0216 92.5199 89.5949C93.0931 90.1681 93.4152 90.9456 93.4153 91.7564V91.8557L85.5613 91.856L85.5612 88.6997Z" fill="#2F2E41"/>
<path d="M94.3723 89.4948L96.808 89.4947L97.9668 80.0996L94.3718 80.0998L94.3723 89.4948Z" fill="#FFB8B8"/>
<path d="M93.751 88.6997L98.5479 88.6995H98.5481C99.3588 88.6995 100.136 89.0216 100.71 89.5949C101.283 90.1681 101.605 90.9456 101.605 91.7564V91.8557L93.7511 91.856L93.751 88.6997Z" fill="#2F2E41"/>
<path d="M90.011 56.5015L90.5953 86.3075L85.8687 86.0144L82.5896 67.0296L81.554 54.0852L90.011 56.5015Z" fill="#2F2E41"/>
<path d="M98.1226 51.4966L98.785 86.7802L93.2726 86.6227L92.082 65.649L90.0109 58.055L81.554 54.0854L82.9347 44.593L95.3612 44.4204L98.1226 51.4966Z" fill="#2F2E41"/>
<path d="M88.619 19.9126C90.9535 19.9126 92.8459 18.0201 92.8459 15.6856C92.8459 13.3512 90.9535 11.4587 88.619 11.4587C86.2845 11.4587 84.3921 13.3512 84.3921 15.6856C84.3921 18.0201 86.2845 19.9126 88.619 19.9126Z" fill="#FFB8B8"/>
<path d="M92.1248 21.6931L92.7723 22.674L94.4983 27.5064L93.1175 46.3187L85.0057 46.4914L83.9703 24.9175L86.1395 22.2061L92.1248 21.6931Z" fill="#CCCCCC"/>
<path d="M80.691 25.4353L79.3103 25.2627C79.3103 25.2627 78.9651 25.4353 78.7925 26.6434C78.6199 27.8515 76.5488 38.5521 76.5488 38.5521L79.3103 51.669L82.4169 47.5268L80.5184 40.278L82.4169 33.0293L80.691 25.4353Z" fill="#2F2E41"/>
<path d="M98.2952 25.2629H99.3307L101.92 39.2426L99.5033 50.1157L97.087 46.1462L97.7773 41.8315L97.4323 38.0346L96.2241 35.7907L98.2952 25.2629Z" fill="#2F2E41"/>
<path d="M91.1167 15.6856L90.3482 15.4935C90.3482 15.4935 89.7718 12.2272 88.4268 12.6115C87.0819 12.9958 83.6235 13.38 83.6235 11.843C83.6235 10.3059 86.8898 8.96099 88.8111 9.15312C90.7324 9.34525 93.1862 9.98265 93.8065 12.8036C94.8009 17.3258 91.7549 18.468 91.7549 18.468L91.8056 18.3034C91.9464 17.8462 91.9564 17.3588 91.8347 16.8962C91.713 16.4336 91.4642 16.0143 91.1167 15.6856V15.6856Z" fill="#2F2E41"/>
<path d="M79.4829 25.2627L85.0058 23.019L86.3002 22.0698L90.1835 39.2425L91.9957 21.552L99.1581 25.2627L96.7419 36.9988L96.3967 41.4862L97.4323 45.1105C97.4323 45.1105 101.057 47.6994 99.8485 50.4608C98.6404 53.2223 97.2597 53.3949 97.2597 53.3949C97.2597 53.3949 91.3916 47.872 91.0464 46.4913C90.7013 45.1105 90.1835 42.6943 90.1835 42.6943C90.1835 42.6943 87.2495 53.74 83.7977 53.5674C80.3459 53.3949 80.3459 49.7705 80.3459 49.7705L81.2088 45.9735L82.5896 42.0039L81.8992 35.4455L79.4829 25.2627Z" fill="#2F2E41"/>
</g>
<defs>
<clipPath id="clip0_263_1086">
<rect width="129" height="91.9774" fill="white"/>
</clipPath>
</defs>
</svg>
