<svg width="114" height="95" viewBox="0 0 114 95" fill="none" xmlns="http://www.w3.org/2000/svg">
<g clip-path="url(#clip0_263_1061)">
<path d="M107.695 30.367C107.695 34.318 106.757 37.5703 105.131 40.3564C104.594 41.274 103.985 42.1474 103.309 42.9683C97.3314 50.2671 86.2176 54.262 76.1728 60.7328C46.5225 79.8331 43.3107 49.2268 44.6499 30.367C45.1901 22.757 48.1587 15.7862 52.875 10.4489C53.8655 9.32633 54.9354 8.27624 56.0766 7.30667C61.4309 2.75461 68.3484 0 76.1728 0C89.597 0 101.061 8.08295 105.606 19.4732C106.988 22.9394 107.697 26.6364 107.695 30.367Z" fill="#1E6BDD"/>
<path d="M82.8889 6.84375L52.875 10.4488C53.8655 9.32625 54.9354 8.27616 56.0766 7.3066L82.8889 6.84375Z" fill="#D0CDE1"/>
<path d="M105.131 40.3563C104.594 41.274 103.985 42.1474 103.309 42.9682L77.5997 39.8811L105.131 40.3563Z" fill="#D0CDE1"/>
<path d="M106.655 22.6054L63.0829 16.9636L105.606 19.4733C106.014 20.4968 106.365 21.5425 106.655 22.6054Z" fill="#D0CDE1"/>
<path d="M47.6055 8.08891C47.6055 8.16643 47.6032 8.24282 47.5965 8.31809C47.5624 8.78462 47.4245 9.23768 47.1929 9.64428C46.9612 10.0509 46.6416 10.4008 46.2574 10.6685C45.8731 10.9362 45.4339 11.115 44.9717 11.1918C44.5095 11.2687 44.036 11.2416 43.5855 11.1126C43.1351 10.9837 42.7192 10.756 42.3681 10.4463C42.0169 10.1366 41.7394 9.75259 41.5557 9.32226C41.3721 8.89193 41.2869 8.42612 41.3063 7.95876C41.3258 7.49139 41.4494 7.03424 41.6682 6.62061C41.7359 6.49099 41.8134 6.36668 41.9 6.24876C42.2768 5.72702 42.8049 5.3332 43.4129 5.12041C44.0209 4.90762 44.6797 4.8861 45.3004 5.05876C45.921 5.23141 46.4737 5.58994 46.8839 6.08597C47.2941 6.582 47.542 7.19168 47.5942 7.83277C47.6021 7.91703 47.6055 8.00241 47.6055 8.08891Z" fill="#1E6BDD"/>
<path d="M47.6056 8.08873C47.6056 8.16625 47.6033 8.24264 47.5966 8.31791L42.8792 7.75171L47.5943 7.83259C47.6022 7.91685 47.6056 8.00223 47.6056 8.08873Z" fill="#D0CDE1"/>
<path d="M46.4802 9.67383L42.1162 10.1985C41.9923 10.0606 41.8808 9.91211 41.7831 9.75471L46.4802 9.67383Z" fill="#D0CDE1"/>
<path d="M45.2423 6.19141L41.6682 6.62055C41.736 6.49093 41.8135 6.36662 41.9 6.2487L45.2423 6.19141Z" fill="#D0CDE1"/>
<path d="M90.7884 64.7228C90.752 64.7913 90.7141 64.8577 90.6728 64.9211C90.4237 65.3172 90.0891 65.6529 89.6936 65.9036C89.298 66.1544 88.8514 66.3139 88.3863 66.3706C87.9212 66.4272 87.4492 66.3796 87.0049 66.2312C86.5605 66.0827 86.1549 65.8372 85.8176 65.5125C85.4803 65.1878 85.2198 64.7921 85.0551 64.3542C84.8904 63.9163 84.8256 63.4472 84.8654 62.9812C84.9052 62.5151 85.0487 62.0637 85.2853 61.66C85.522 61.2563 85.8459 60.9103 86.2334 60.6474C86.3541 60.5646 86.4809 60.491 86.6127 60.4274C87.1906 60.1429 87.8419 60.0421 88.479 60.1387C89.116 60.2353 89.708 60.5245 90.1751 60.9675C90.6423 61.4105 90.9622 61.9858 91.0916 62.6159C91.2209 63.246 91.1537 63.9006 90.8987 64.4913C90.8661 64.5694 90.829 64.6464 90.7884 64.7228Z" fill="#1E6BDD"/>
<path d="M90.7884 64.7229C90.752 64.7914 90.7141 64.8578 90.6728 64.9211L86.7717 62.2134L90.8987 64.4914C90.8661 64.5695 90.829 64.6465 90.7884 64.7229Z" fill="#D0CDE1"/>
<path d="M89.0501 65.5964L84.9489 64.0176C84.9042 63.8378 84.8755 63.6545 84.863 63.4697L89.0501 65.5964Z" fill="#D0CDE1"/>
<path d="M89.592 61.941L86.2334 60.6475C86.3541 60.5647 86.4809 60.4911 86.6128 60.4275L89.592 61.941Z" fill="#D0CDE1"/>
<path d="M113.105 10.4985C113.159 10.554 113.211 10.6103 113.259 10.6689C113.561 11.0266 113.779 11.4471 113.898 11.8996C114.016 12.3522 114.032 12.8254 113.944 13.2849C113.856 13.7444 113.667 14.1785 113.39 14.5557C113.113 14.9329 112.755 15.2436 112.342 15.4652C111.929 15.6868 111.472 15.8137 111.004 15.8367C110.536 15.8597 110.069 15.7783 109.637 15.5982C109.204 15.4182 108.817 15.1441 108.505 14.7959C108.192 14.4478 107.96 14.0343 107.828 13.5857C107.786 13.4457 107.754 13.3027 107.734 13.1579C107.638 12.5218 107.741 11.8718 108.028 11.2956C108.314 10.7195 108.771 10.2449 109.336 9.93592C109.901 9.62692 110.547 9.49836 111.188 9.56758C111.828 9.6368 112.432 9.90046 112.918 10.323C112.983 10.3778 113.045 10.4366 113.105 10.4985Z" fill="#1E6BDD"/>
<path d="M113.105 10.4985C113.159 10.554 113.211 10.6103 113.259 10.6689L109.486 13.5516L112.918 10.323C112.983 10.3778 113.045 10.4366 113.105 10.4985Z" fill="#D0CDE1"/>
<path d="M113.408 12.4177L110.651 15.8351C110.466 15.8227 110.282 15.7941 110.102 15.7496L113.408 12.4177Z" fill="#D0CDE1"/>
<path d="M110.086 10.7874L107.828 13.5857C107.786 13.4457 107.754 13.3027 107.734 13.1579L110.086 10.7874Z" fill="#D0CDE1"/>
<path d="M53.9915 68.4668C53.9915 68.4668 60.9062 68.7544 60.9062 70.4801C60.9062 72.2059 53.1272 70.4801 53.1272 70.4801L53.9915 68.4668Z" fill="#A0616A"/>
<path d="M43.6194 94.9277L30.6543 94.0649L30.0781 87.162L27.197 93.202L14.52 91.4763C14.8081 80.5467 19.4179 69.9048 19.706 68.4667C19.9942 67.0286 20.6828 61.0864 20.6828 61.0864C21.9418 58.4202 28.5395 58.1699 33.7112 58.4115C35.8548 58.5093 37.7563 58.6934 38.9289 58.8257C39.7039 58.912 40.162 58.9753 40.162 58.9753C42.2278 61.1008 43.5589 63.9971 44.3771 67.2328C47.3274 78.8901 43.6194 94.9277 43.6194 94.9277Z" fill="#2F2E41"/>
<path d="M29.2138 28.2001C33.1918 28.2001 36.4166 24.9808 36.4166 21.0096C36.4166 17.0384 33.1918 13.8191 29.2138 13.8191C25.2358 13.8191 22.011 17.0384 22.011 21.0096C22.011 24.9808 25.2358 28.2001 29.2138 28.2001Z" fill="#A0616A"/>
<path d="M24.3159 22.7351C24.3159 22.7351 22.2991 31.6513 19.1299 34.2399C15.9606 36.8285 31.5187 34.2399 31.5187 34.2399C31.5187 34.2399 28.0614 28.4875 30.6544 25.8989C33.2474 23.3103 24.3159 22.7351 24.3159 22.7351Z" fill="#A0616A"/>
<path d="M39.0096 59.5505L34.2298 60.0797L20.8585 61.5638C20.8585 61.5638 20.7951 61.3941 20.6827 61.0864C19.7118 58.4432 15.0357 45.5808 14.52 41.7181C13.9438 37.4038 19.9942 32.2267 19.9942 32.2267C19.9942 32.2267 25.7564 31.0762 27.4851 31.0762C29.2137 31.0762 36.1285 33.6647 36.1285 33.6647L38.707 56.821L38.9289 58.8257L39.0096 59.5505Z" fill="#D0CDE1"/>
<path opacity="0.15" d="M44.3771 67.2329L34.6879 61.5639C34.6879 61.5639 34.5179 61.0117 34.2298 60.0798C34.0857 59.6138 33.91 59.0501 33.7112 58.4116C32.5933 54.8279 30.7177 48.9144 29.2137 44.5944C26.9088 37.9791 38.1452 56.3868 38.1452 56.3868L38.707 56.8211L38.9289 58.8258C39.7039 58.9121 40.162 58.9753 40.162 58.9753C42.2278 61.1009 43.5589 63.9972 44.3771 67.2329Z" fill="black"/>
<path d="M31.5187 34.2401C31.5187 34.2401 28.6375 37.9792 30.9424 44.5944C33.2473 51.2097 36.4166 61.564 36.4166 61.564L53.1271 71.343L55.432 68.4668L39.8739 56.3868C39.8739 56.3868 39.2977 34.5277 36.4166 33.6649C33.5355 32.802 31.5187 34.2401 31.5187 34.2401Z" fill="#D0CDE1"/>
<path d="M17.2571 59.4066C17.2571 59.4066 21.2907 67.7476 23.0193 66.8848C24.748 66.0219 18.6976 57.3933 18.6976 57.3933L17.2571 59.4066Z" fill="#A0616A"/>
<path d="M16.825 36.541L1.555 49.1963C1.555 49.1963 -4.20725 53.2229 6.45292 56.0991C17.1131 58.9753 17.9774 60.7011 17.9774 60.7011C17.9774 60.7011 19.1299 56.962 20.5704 57.5372L8.18158 51.4972L18.2655 45.4572L16.825 36.541Z" fill="#D0CDE1"/>
<path d="M10.6878 26.9113C11.4892 26.5151 13.259 25.7154 14.7664 24.7521C14.6607 21.618 15.0473 18.773 16.1789 17.2649C16.8142 15.8251 18.1481 14.3836 19.1928 13.2483C21.7583 10.4606 27.4313 8.90444 28.4375 10.2973C36.0476 10.4473 36.8488 16.4023 36.8488 16.4023C36.8092 18.8931 34.216 18.9719 31.9443 18.8811C32.1478 20.5816 31.6057 22.3485 30.0358 23.132C27.0339 24.6305 26.1333 26.5784 27.6343 27.927C29.1353 29.2755 31.837 32.8717 28.2347 33.7708C24.6323 34.6698 24.182 36.4679 25.2327 37.2171C26.2834 37.9663 22.8311 35.8685 22.8311 35.8685C22.8311 35.8685 22.2308 39.4647 19.0787 38.5657C18.7962 38.4851 18.5139 38.2787 18.2363 37.9699C17.385 38.9037 16.6256 39.4558 16.0532 39.4588C12.7751 39.4762 13.1682 35.8516 13.1682 35.8516C13.1682 35.8516 9.27722 36.9425 10.4913 36.5038C11.7055 36.0651 11.7575 34.2124 8.53135 32.3771C5.30523 30.5417 8.87818 27.8059 10.6878 26.9113Z" fill="#2F2E41"/>
<path d="M50.9084 36.3065L50.8561 36.2997L50.9836 36.7835C51.1041 37.4584 51.2791 38.1225 51.5069 38.7693L55.246 52.9589C55.3653 53.4117 55.6145 53.82 55.963 54.1335C56.3114 54.447 56.744 54.6522 57.2075 54.7238L64.8328 55.9014C65.3258 55.9775 65.8304 55.899 66.2768 55.6766C66.7233 55.4542 67.0895 55.0989 67.325 54.6598L74.5715 41.1478C74.7979 40.7735 75.0048 40.3877 75.1913 39.992L75.4374 39.5333L75.399 39.5282C76.1672 37.7141 76.5053 35.7475 76.387 33.7815C76.2687 31.8156 75.6973 29.9035 74.7171 28.1942C73.737 26.485 72.3747 25.0248 70.7364 23.9275C69.0981 22.8302 67.2281 22.1255 65.2722 21.8682C63.3162 21.6109 61.3272 21.808 59.4601 22.4442C57.5929 23.0803 55.8982 24.1384 54.508 25.5358C53.1178 26.9332 52.0697 28.6323 51.4453 30.5005C50.8209 32.3688 50.6372 34.3558 50.9084 36.3065H50.9084Z" fill="#3F3D56"/>
<path d="M65.3008 56.8285C65.1664 56.8285 65.0323 56.8181 64.8996 56.7976L56.9291 55.5666C56.4229 55.4885 55.9505 55.2645 55.57 54.9221C55.1895 54.5798 54.9174 54.1339 54.7871 53.6394L50.8788 38.8074C50.6399 38.1284 50.4564 37.4313 50.3299 36.7228L50.231 36.0739C49.9651 34.001 50.1854 31.8947 50.8747 29.9214C51.564 27.9481 52.7033 26.1617 54.2027 24.7033C55.7022 23.2449 57.5206 22.1544 59.5146 21.5179C61.5086 20.8813 63.6235 20.7162 65.6923 21.0355L65.6578 21.2576C63.6115 20.9428 61.5198 21.1097 59.5496 21.7452C57.5794 22.3806 55.7852 23.4669 54.3101 24.9173C52.8351 26.3678 51.72 28.1424 51.0539 30.0994C50.3878 32.0565 50.189 34.1418 50.4735 36.1891L50.5495 36.6745C50.675 37.377 50.8571 38.0683 51.0938 38.7416L55.0048 53.5822C55.1239 54.0345 55.3727 54.4422 55.7207 54.7553C56.0686 55.0683 56.5006 55.2732 56.9635 55.3445L64.934 56.5756C65.4263 56.6511 65.93 56.5724 66.3757 56.3504C66.8213 56.1284 67.1871 55.7739 67.4226 55.3358L67.6211 55.4417C67.3959 55.8606 67.0612 56.2107 66.6527 56.4548C66.2441 56.699 65.7769 56.8281 65.3008 56.8285Z" fill="#D0CDE1"/>
<path d="M67.3227 39.5317L62.4729 52.751L62.7462 52.8509L67.596 39.6317L67.3227 39.5317Z" fill="#D0CDE1"/>
<path d="M59.4041 38.3085L59.1133 38.3213L59.7323 52.3856L60.0231 52.3729L59.4041 38.3085Z" fill="#D0CDE1"/>
<path d="M64.627 63.5526L54.4138 61.9753C54.3378 61.9631 54.2698 61.9214 54.2245 61.8593C54.1793 61.7972 54.1605 61.7198 54.1722 61.6439C54.184 61.568 54.2254 61.4999 54.2873 61.4543C54.3492 61.4088 54.4267 61.3896 54.5028 61.4009L64.716 62.9782C64.754 62.9838 64.7905 62.9969 64.8233 63.0166C64.8562 63.0364 64.8849 63.0625 64.9076 63.0933C64.9304 63.1241 64.9468 63.1592 64.9559 63.1964C64.9651 63.2336 64.9668 63.2722 64.9609 63.3101C64.955 63.3479 64.9417 63.3843 64.9218 63.417C64.9018 63.4497 64.8755 63.4781 64.8445 63.5007C64.8135 63.5232 64.7783 63.5394 64.7409 63.5483C64.7036 63.5572 64.6649 63.5587 64.627 63.5526Z" fill="#3F3D56"/>
<path d="M64.8889 61.3876L54.6757 59.8103C54.6377 59.8046 54.6012 59.7916 54.5684 59.7718C54.5355 59.752 54.5068 59.726 54.4841 59.6952C54.4613 59.6643 54.4449 59.6293 54.4358 59.5921C54.4266 59.5549 54.4249 59.5162 54.4308 59.4784C54.4367 59.4405 54.45 59.4042 54.4699 59.3715C54.4899 59.3388 54.5162 59.3103 54.5472 59.2878C54.5782 59.2653 54.6134 59.2491 54.6507 59.2402C54.6881 59.2312 54.7268 59.2298 54.7647 59.2359L64.9779 60.8132C65.0159 60.8188 65.0524 60.8319 65.0852 60.8516C65.1181 60.8714 65.1468 60.8974 65.1695 60.9283C65.1923 60.9591 65.2087 60.9942 65.2178 61.0314C65.227 61.0686 65.2287 61.1072 65.2228 61.1451C65.2169 61.1829 65.2036 61.2193 65.1837 61.252C65.1637 61.2847 65.1374 61.3131 65.1064 61.3356C65.0754 61.3582 65.0402 61.3744 65.0029 61.3833C64.9655 61.3922 64.9268 61.3937 64.8889 61.3876Z" fill="#3F3D56"/>
<path d="M65.1507 59.2223L54.9375 57.645C54.8615 57.6328 54.7935 57.5911 54.7482 57.529C54.703 57.4669 54.6842 57.3895 54.6959 57.3136C54.7077 57.2377 54.7491 57.1695 54.811 57.124C54.8729 57.0785 54.9504 57.0592 55.0265 57.0705L65.2397 58.6479C65.3157 58.6601 65.3837 58.7018 65.429 58.7638C65.4742 58.8259 65.493 58.9034 65.4812 58.9793C65.4695 59.0551 65.4281 59.1233 65.3662 59.1688C65.3043 59.2144 65.2268 59.2336 65.1507 59.2223H65.1507Z" fill="#3F3D56"/>
<path d="M59.2029 64.8126C61.2288 65.1254 63.0457 64.2519 63.2612 62.8615L55.9249 61.7285C55.7095 63.1189 57.1771 64.4997 59.2029 64.8126Z" fill="#3F3D56"/>
<path d="M62.8741 36.7468C62.4383 36.6795 62.0778 36.3357 61.8801 36.1052C61.8153 36.0296 61.7522 35.9512 61.6889 35.8727C61.4587 35.5866 61.2414 35.3165 60.9387 35.1756C60.2706 34.8645 59.4834 35.2991 58.8019 35.7654L58.6372 35.5257C59.3865 35.0129 60.2604 34.5391 61.0618 34.9122C61.4259 35.0817 61.675 35.3913 61.9159 35.6906C61.9772 35.7669 62.0384 35.8429 62.1012 35.9162C62.3067 36.1558 62.7166 36.544 63.1558 36.4545C63.3409 36.4006 63.5131 36.3097 63.6617 36.1871C63.775 36.1028 63.8947 36.0274 64.0197 35.9616C64.2733 35.8402 64.5572 35.7964 64.8357 35.8357C65.1142 35.875 65.3748 35.9956 65.5847 36.1824C65.6596 36.2532 65.7305 36.3281 65.7971 36.4066C65.928 36.5557 66.0517 36.6963 66.2126 36.7474C66.4506 36.8234 66.702 36.6876 66.9685 36.5442C67.2433 36.3961 67.5274 36.243 67.8496 36.2808C67.8601 36.282 67.8706 36.2835 67.881 36.2851C68.4545 36.3736 68.7188 37.0067 68.8684 37.4792L68.5908 37.5667C68.3875 36.9244 68.14 36.6051 67.8155 36.5695C67.5847 36.5423 67.3526 36.6675 67.1068 36.7999C66.7987 36.966 66.4798 37.1376 66.1242 37.0244C65.8863 36.9488 65.7296 36.7706 65.5782 36.5983C65.5186 36.5278 65.4551 36.4606 65.3882 36.3969C65.221 36.2507 65.0148 36.1563 64.7947 36.1253C64.5746 36.0942 64.3502 36.1278 64.149 36.222C64.0375 36.2812 63.9308 36.3489 63.8298 36.4244C63.6491 36.5715 63.4394 36.6787 63.2143 36.7392C63.1022 36.762 62.987 36.7646 62.8741 36.7468Z" fill="#D0CDE1"/>
</g>
<defs>
<clipPath id="clip0_263_1061">
<rect width="114" height="94.9278" fill="white"/>
</clipPath>
</defs>
</svg>
