<svg width="502" height="439" viewBox="0 0 502 439" fill="none" xmlns="http://www.w3.org/2000/svg">
<g clip-path="url(#clip0_272_1334)">
<path d="M386.59 97.9896H117.059C114.33 97.9864 111.714 96.9011 109.785 94.9717C107.856 93.0424 106.77 90.4265 106.767 87.6979V10.2917C106.77 7.56312 107.856 4.94723 109.785 3.01785C111.714 1.08847 114.33 0.00316233 117.059 0H409.402C412.131 0.00316433 414.746 1.08847 416.676 3.01785C418.605 4.94723 419.691 7.56312 419.694 10.2917V64.8859C419.684 73.6625 416.193 82.0768 409.987 88.2828C403.781 94.4888 395.367 97.9797 386.59 97.9896Z" fill="#F2F2F2"/>
<path d="M293.617 27.5294H170.537C169.833 27.5294 169.158 27.2498 168.66 26.752C168.162 26.2542 167.883 25.5791 167.883 24.8752C167.883 24.1712 168.162 23.4961 168.66 22.9984C169.158 22.5006 169.833 22.2209 170.537 22.2209H293.617C294.321 22.2209 294.996 22.5006 295.494 22.9984C295.992 23.4961 296.272 24.1712 296.272 24.8752C296.272 25.5791 295.992 26.2542 295.494 26.752C294.996 27.2498 294.321 27.5294 293.617 27.5294Z" fill="white"/>
<path d="M355.923 38.3853H170.537C169.833 38.3853 169.158 38.1057 168.66 37.6079C168.162 37.1101 167.883 36.435 167.883 35.7311C167.883 35.0271 168.162 34.352 168.66 33.8543C169.158 33.3565 169.833 33.0768 170.537 33.0768H355.923C356.627 33.0768 357.302 33.3565 357.8 33.8543C358.298 34.352 358.577 35.0271 358.577 35.7311C358.577 36.435 358.298 37.1101 357.8 37.6079C357.302 38.1057 356.627 38.3853 355.923 38.3853Z" fill="white"/>
<path d="M355.923 50.8464H170.537C169.833 50.8464 169.158 50.5668 168.66 50.069C168.162 49.5713 167.883 48.8961 167.883 48.1922C167.883 47.4883 168.162 46.8131 168.66 46.3154C169.158 45.8176 169.833 45.538 170.537 45.538H355.923C356.627 45.538 357.302 45.8176 357.8 46.3154C358.298 46.8131 358.577 47.4883 358.577 48.1922C358.577 48.8961 358.298 49.5713 357.8 50.069C357.302 50.5668 356.627 50.8464 355.923 50.8464Z" fill="white"/>
<path d="M355.923 63.3075H170.537C169.833 63.3075 169.158 63.0279 168.66 62.5301C168.162 62.0324 167.883 61.3573 167.883 60.6533C167.883 59.9494 168.162 59.2743 168.66 58.7765C169.158 58.2787 169.833 57.9991 170.537 57.9991H355.923C356.627 57.9991 357.302 58.2787 357.8 58.7765C358.298 59.2743 358.577 59.9494 358.577 60.6533C358.577 61.3573 358.298 62.0324 357.8 62.5301C357.302 63.0279 356.627 63.3075 355.923 63.3075Z" fill="white"/>
<path d="M355.923 75.7687H170.537C170.188 75.7693 169.842 75.701 169.52 75.5679C169.197 75.4348 168.904 75.2394 168.657 74.9928C168.41 74.7463 168.214 74.4535 168.081 74.1312C167.947 73.8089 167.878 73.4634 167.878 73.1144C167.878 72.7655 167.947 72.42 168.081 72.0977C168.214 71.7754 168.41 71.4826 168.657 71.236C168.904 70.9895 169.197 70.7941 169.52 70.661C169.842 70.5278 170.188 70.4596 170.537 70.4602H355.923C356.626 70.4614 357.3 70.7416 357.797 71.2392C358.294 71.7368 358.573 72.4113 358.573 73.1144C358.573 73.8176 358.294 74.492 357.797 74.9897C357.3 75.4873 356.626 75.7675 355.923 75.7687Z" fill="white"/>
<path d="M316.52 169.212H10.2917C7.56313 169.209 4.94723 168.123 3.01785 166.194C1.08847 164.265 0.00316233 161.649 0 158.92V67.6247C0.00316233 64.8961 1.08847 62.2803 3.01785 60.3509C4.94723 58.4215 7.56313 57.3362 10.2917 57.333H316.52C319.249 57.3362 321.865 58.4215 323.794 60.3509C325.724 62.2803 326.809 64.8961 326.812 67.6247V158.92C326.809 161.649 325.724 164.265 323.794 166.194C321.865 168.123 319.249 169.209 316.52 169.212Z" fill="#E6E6E6"/>
<path d="M286.766 162.27H17.2353C14.5067 162.267 11.8908 161.182 9.96146 159.252C8.03208 157.323 6.94677 154.707 6.9436 151.978V74.5721C6.94677 71.8436 8.03208 69.2277 9.96146 67.2983C11.8908 65.3689 14.5067 64.2836 17.2353 64.2805H309.578C312.307 64.2836 314.923 65.3689 316.852 67.2983C318.782 69.2277 319.867 71.8436 319.87 74.5721V129.166C319.86 137.943 316.369 146.357 310.163 152.563C303.957 158.769 295.543 162.26 286.766 162.27Z" fill="white"/>
<path d="M193.794 91.8098H70.7132C70.0092 91.8098 69.3341 91.5302 68.8364 91.0324C68.3386 90.5346 68.059 89.8595 68.059 89.1556C68.059 88.4516 68.3386 87.7765 68.8364 87.2788C69.3341 86.781 70.0092 86.5013 70.7132 86.5013H193.794C194.498 86.5013 195.173 86.781 195.671 87.2788C196.168 87.7765 196.448 88.4516 196.448 89.1556C196.448 89.8595 196.168 90.5346 195.671 91.0324C195.173 91.5302 194.498 91.8098 193.794 91.8098Z" fill="#1E6BDD"/>
<path d="M256.099 102.666H70.7132C70.0092 102.666 69.3341 102.386 68.8364 101.888C68.3386 101.391 68.059 100.715 68.059 100.012C68.059 99.3076 68.3386 98.6325 68.8364 98.1347C69.3341 97.6369 70.0092 97.3573 70.7132 97.3573H256.099C256.803 97.3573 257.478 97.6369 257.976 98.1347C258.474 98.6325 258.754 99.3076 258.754 100.012C258.754 100.715 258.474 101.391 257.976 101.888C257.478 102.386 256.803 102.666 256.099 102.666Z" fill="#E6E6E6"/>
<path d="M256.099 115.127H70.7132C70.0092 115.127 69.3341 114.847 68.8364 114.349C68.3386 113.852 68.059 113.177 68.059 112.473C68.059 111.769 68.3386 111.094 68.8364 110.596C69.3341 110.098 70.0092 109.818 70.7132 109.818H256.099C256.803 109.818 257.478 110.098 257.976 110.596C258.474 111.094 258.754 111.769 258.754 112.473C258.754 113.177 258.474 113.852 257.976 114.349C257.478 114.847 256.803 115.127 256.099 115.127Z" fill="#E6E6E6"/>
<path d="M256.099 127.588H70.7132C70.0092 127.588 69.3341 127.308 68.8364 126.811C68.3386 126.313 68.059 125.638 68.059 124.934C68.059 124.23 68.3386 123.555 68.8364 123.057C69.3341 122.559 70.0092 122.279 70.7132 122.279H256.099C256.803 122.279 257.478 122.559 257.976 123.057C258.474 123.555 258.754 124.23 258.754 124.934C258.754 125.638 258.474 126.313 257.976 126.811C257.478 127.308 256.803 127.588 256.099 127.588Z" fill="#E6E6E6"/>
<path d="M256.099 140.049H70.7133C70.3643 140.05 70.0187 139.981 69.6962 139.848C69.3736 139.715 69.0805 139.52 68.8335 139.273C68.5866 139.027 68.3907 138.734 68.257 138.412C68.1234 138.089 68.0546 137.744 68.0546 137.395C68.0546 137.046 68.1234 136.7 68.257 136.378C68.3907 136.056 68.5866 135.763 68.8335 135.516C69.0805 135.27 69.3736 135.074 69.6962 134.941C70.0187 134.808 70.3643 134.74 70.7133 134.741H256.099C256.803 134.742 257.477 135.022 257.973 135.52C258.47 136.017 258.749 136.692 258.749 137.395C258.749 138.098 258.47 138.772 257.973 139.27C257.477 139.768 256.803 140.048 256.099 140.049Z" fill="#E6E6E6"/>
<path d="M105.518 239.923C101.604 239.923 97.779 238.762 94.5252 236.588C91.2714 234.414 88.7354 231.324 87.2378 227.708C85.7403 224.093 85.3484 220.115 86.1119 216.276C86.8753 212.438 88.7598 208.913 91.5269 206.146C94.2941 203.378 97.8196 201.494 101.658 200.731C105.496 199.967 109.474 200.359 113.09 201.856C116.705 203.354 119.795 205.89 121.969 209.144C124.144 212.398 125.304 216.223 125.304 220.136C125.304 225.384 123.219 230.417 119.509 234.127C115.798 237.838 110.765 239.923 105.518 239.923Z" fill="#E6E6E6"/>
<path d="M113.325 218.185H107.47V212.329C107.469 211.812 107.262 211.317 106.897 210.952C106.531 210.587 106.035 210.381 105.518 210.381C105.001 210.381 104.505 210.587 104.139 210.952C103.773 211.317 103.567 211.812 103.566 212.329V218.185H97.7106C97.1936 218.186 96.6982 218.392 96.333 218.758C95.9678 219.124 95.7627 219.62 95.7627 220.137C95.7627 220.653 95.9678 221.149 96.333 221.515C96.6982 221.881 97.1936 222.087 97.7106 222.088H103.566V227.944C103.567 228.461 103.773 228.956 104.139 229.321C104.505 229.687 105.001 229.892 105.518 229.892C106.035 229.892 106.531 229.687 106.897 229.321C107.262 228.956 107.469 228.461 107.47 227.944V222.088H113.325C113.581 222.089 113.836 222.039 114.073 221.941C114.31 221.843 114.526 221.699 114.707 221.518C114.889 221.337 115.033 221.121 115.132 220.884C115.23 220.647 115.28 220.393 115.28 220.137C115.28 219.88 115.23 219.626 115.132 219.389C115.033 219.152 114.889 218.936 114.707 218.755C114.526 218.574 114.31 218.43 114.073 218.332C113.836 218.234 113.581 218.184 113.325 218.185Z" fill="white"/>
<path d="M163.406 239.923C159.493 239.923 155.667 238.762 152.413 236.588C149.16 234.414 146.624 231.324 145.126 227.708C143.628 224.093 143.237 220.115 144 216.276C144.764 212.438 146.648 208.913 149.415 206.146C152.182 203.378 155.708 201.494 159.546 200.731C163.384 199.967 167.362 200.359 170.978 201.856C174.593 203.354 177.683 205.89 179.858 209.144C182.032 212.398 183.192 216.223 183.192 220.136C183.192 225.384 181.108 230.417 177.397 234.127C173.686 237.838 168.654 239.923 163.406 239.923Z" fill="#E6E6E6"/>
<path d="M171.213 218.185H155.599C155.082 218.186 154.586 218.392 154.221 218.758C153.856 219.124 153.651 219.62 153.651 220.137C153.651 220.654 153.856 221.149 154.221 221.515C154.586 221.881 155.082 222.087 155.599 222.088H171.213C171.47 222.089 171.724 222.039 171.961 221.941C172.198 221.843 172.414 221.699 172.596 221.518C172.777 221.337 172.921 221.121 173.02 220.884C173.118 220.647 173.169 220.393 173.169 220.137C173.169 219.88 173.118 219.626 173.02 219.389C172.921 219.152 172.777 218.936 172.596 218.755C172.414 218.574 172.198 218.43 171.961 218.332C171.724 218.234 171.47 218.184 171.213 218.185Z" fill="white"/>
<path d="M221.294 239.923C217.381 239.923 213.555 238.762 210.302 236.588C207.048 234.414 204.512 231.324 203.014 227.708C201.517 224.093 201.125 220.115 201.888 216.276C202.652 212.438 204.536 208.913 207.303 206.146C210.07 203.378 213.596 201.494 217.434 200.731C221.272 199.967 225.251 200.359 228.866 201.856C232.481 203.354 235.572 205.89 237.746 209.144C239.92 212.398 241.08 216.223 241.08 220.136C241.08 225.384 238.996 230.417 235.285 234.127C231.574 237.838 226.542 239.923 221.294 239.923Z" fill="#1E6BDD"/>
<path d="M232.426 219.197L226.816 211.009C226.693 210.829 226.535 210.675 226.352 210.556C226.169 210.436 225.964 210.354 225.749 210.314C225.535 210.274 225.314 210.277 225.1 210.322C224.887 210.367 224.684 210.454 224.504 210.577C224.323 210.701 224.169 210.858 224.05 211.041C223.931 211.224 223.849 211.429 223.809 211.644C223.769 211.859 223.771 212.079 223.816 212.293C223.861 212.507 223.948 212.71 224.072 212.89L227.699 218.185H213.487C213.23 218.184 212.976 218.234 212.739 218.332C212.502 218.43 212.286 218.574 212.104 218.755C211.923 218.936 211.779 219.152 211.68 219.389C211.582 219.626 211.531 219.88 211.531 220.137C211.531 220.393 211.582 220.647 211.68 220.884C211.779 221.121 211.923 221.337 212.104 221.518C212.286 221.699 212.502 221.843 212.739 221.941C212.976 222.039 213.23 222.089 213.487 222.088H227.878L224.072 227.644C223.823 228.008 223.73 228.455 223.811 228.888C223.892 229.321 224.142 229.705 224.506 229.954C224.869 230.203 225.317 230.297 225.75 230.217C226.183 230.136 226.567 229.887 226.816 229.524L232.426 221.337C232.608 221.01 232.704 220.641 232.704 220.267C232.704 219.892 232.608 219.524 232.426 219.197Z" fill="white"/>
<path d="M348.224 427.513L339.084 427.512L334.736 392.257L348.226 392.258L348.224 427.513Z" fill="#A0616A"/>
<path d="M348.546 437.048L320.439 437.047V436.691C320.439 433.79 321.592 431.007 323.644 428.956C325.695 426.904 328.478 425.752 331.379 425.751H331.38L336.514 421.856L346.093 425.752L348.546 425.752L348.546 437.048Z" fill="#2F2E41"/>
<path d="M418.225 417.628L409.778 421.117L392.298 390.193L404.766 385.043L418.225 417.628Z" fill="#A0616A"/>
<path d="M422.163 426.317L396.185 437.048L396.049 436.719C394.942 434.037 394.945 431.026 396.058 428.346C397.17 425.667 399.302 423.539 401.984 422.431L401.984 422.431L405.242 416.871L415.583 416.814L417.851 415.877L422.163 426.317Z" fill="#2F2E41"/>
<path d="M392.651 238.984C392.651 238.984 385.569 216.651 388.505 207.509L404.831 206.519L406.699 239.472L397.368 277.573C397.732 278.66 397.801 279.825 397.57 280.948C397.338 282.071 396.813 283.113 396.049 283.967C395.285 284.822 394.308 285.46 393.217 285.815C392.127 286.17 390.962 286.23 389.841 285.989C388.72 285.749 387.682 285.216 386.833 284.445C385.985 283.673 385.355 282.691 385.009 281.598C384.663 280.505 384.612 279.339 384.861 278.22C385.111 277.101 385.652 276.068 386.431 275.225L392.651 238.984Z" fill="#A0616A"/>
<path d="M403.068 193.234L400.621 182.467C399.7 178.414 397.987 174.584 395.58 171.196C393.173 167.808 390.121 164.93 386.597 162.726C384.41 161.369 381.886 160.651 379.312 160.652C376.738 160.654 374.215 161.376 372.029 162.736C369.079 164.6 366.946 167.514 366.063 170.89C365.179 174.266 365.61 177.852 367.269 180.922C372.308 190.229 372.334 200.775 379.79 201.072L379.498 204.945L389.768 227.381L409.865 222.308L403.068 193.234Z" fill="#E6E6E6"/>
<path d="M389.618 241.902C389.618 241.902 394.846 259.292 390.723 274.138C386.6 288.984 383.277 324.793 383.277 324.793L414.054 400.796L399.736 404.487L353.988 329.75L349.672 408.136L335.87 408.702L325.452 330.203L333.715 251.254L389.618 241.902Z" fill="#2F2E41"/>
<path d="M391.93 257.078L392.014 256.961C396.478 250.711 389.763 235.691 388.751 233.514C389.953 233.124 390.983 232.329 391.666 231.264C392.348 230.2 392.64 228.932 392.492 227.676L392.056 223.965L391.601 220.325L394.861 217.065L394.87 216.983L396.746 200.567L399.474 189.664C400.502 185.542 400.414 181.221 399.22 177.144C398.026 173.067 395.769 169.381 392.679 166.465L386.374 165.464L378.711 158.081H366.354L362.117 162.129C354.207 163.516 355.873 163.063 349.079 171.216L340.535 195.659L341.305 199.146L341.303 203.876L342.515 217.829C341.81 218.612 341.298 219.55 341.019 220.567C340.74 221.584 340.702 222.652 340.909 223.686L341.167 224.973C339.147 225.839 337.22 241.219 336.76 243.367L336.072 246.576C335.484 247.352 331.6 252.531 331.6 253.946C331.6 254.159 331.757 254.364 332.094 254.592C334.74 256.384 350.727 258.226 357.201 255.635C364.098 252.878 391.511 257.014 391.788 257.056L391.93 257.078Z" fill="#E6E6E6"/>
<path d="M309.302 209.392C309.302 209.392 329.167 196.972 338.752 197.538L343.778 213.103L312.329 223.119L273.104 223.571C272.141 224.194 271.031 224.552 269.886 224.607C268.74 224.663 267.601 224.414 266.582 223.887C265.564 223.359 264.704 222.572 264.088 221.604C263.473 220.637 263.124 219.524 263.078 218.378C263.032 217.232 263.289 216.094 263.825 215.08C264.361 214.066 265.155 213.212 266.127 212.604C267.1 211.997 268.216 211.657 269.362 211.62C270.508 211.583 271.644 211.85 272.653 212.394L309.302 209.392Z" fill="#A0616A"/>
<path d="M356.205 208.087L366.023 203.035C369.718 201.134 373.001 198.52 375.683 195.346C378.365 192.171 380.392 188.498 381.649 184.537C382.419 182.08 382.486 179.457 381.843 176.964C381.2 174.472 379.873 172.208 378.011 170.43C375.472 168.037 372.118 166.697 368.628 166.682C365.138 166.667 361.773 167.978 359.213 170.349C351.454 177.547 341.246 180.199 342.816 187.494L338.993 188.176L319.821 203.71L329.74 221.91L356.205 208.087Z" fill="#E6E6E6"/>
<path d="M372.628 153.429C382.831 153.429 391.102 145.158 391.102 134.955C391.102 124.752 382.831 116.481 372.628 116.481C362.425 116.481 354.154 124.752 354.154 134.955C354.154 145.158 362.425 153.429 372.628 153.429Z" fill="#A0616A"/>
<path d="M359.961 113.626C361.285 113.586 360.83 111.091 361.897 110.295C361.902 110.319 361.907 110.343 361.913 110.367C362.053 110.906 362.362 111.386 362.795 111.736C363.228 112.086 363.762 112.288 364.319 112.312C364.875 112.335 365.425 112.18 365.886 111.868C366.347 111.556 366.696 111.104 366.882 110.579C367.059 109.971 367.379 109.415 367.815 108.957C368.252 108.499 368.792 108.153 369.391 107.947C369.457 110.26 371.207 112.268 373.294 113.267C375.382 114.266 377.762 114.432 380.075 114.466C382.39 114.373 384.707 114.548 386.98 114.989C389.224 115.555 391.407 116.887 392.365 118.993C393.324 121.099 392.64 123.999 390.544 124.979C392.168 124.988 393.546 126.328 394.107 127.852C394.568 129.415 394.688 131.058 394.459 132.672C394.003 138.645 392.89 145.077 388.54 149.196C385.225 152.336 380.48 153.601 375.914 153.583C371.348 153.565 372.151 153.145 367.736 151.979C372.276 152.488 371.037 132.204 363.535 131.383C363.461 131.203 363.396 131.02 363.341 130.834C363.065 129.885 362.567 129.015 361.888 128.296C361.21 127.576 360.371 127.028 359.44 126.697C358.499 126.391 357.487 126.381 356.541 126.668C355.594 126.954 354.758 127.524 354.145 128.299C349.31 123.765 352.309 113.853 359.961 113.626Z" fill="#2F2E41"/>
<path d="M475.914 437.654H450.817L450.71 437.458C450.389 436.876 450.079 436.26 449.789 435.626C447.204 430.092 446.111 423.762 445.147 418.177L444.421 413.968C444.333 413.458 444.4 412.933 444.612 412.461C444.823 411.989 445.171 411.591 445.611 411.318C446.05 411.045 446.561 410.91 447.078 410.929C447.595 410.947 448.095 411.12 448.513 411.425C452.327 414.2 456.142 416.973 459.959 419.743C461.405 420.794 463.055 422.011 464.636 423.327C464.789 422.586 464.948 421.843 465.108 421.111C465.218 420.605 465.476 420.143 465.85 419.785C466.224 419.427 466.696 419.189 467.206 419.1C467.716 419.012 468.241 419.078 468.713 419.29C469.186 419.502 469.584 419.85 469.857 420.289L472.794 425.007C474.935 428.452 476.826 431.847 476.441 435.509C476.442 435.553 476.439 435.598 476.431 435.642C476.353 436.243 476.211 436.834 476.004 437.404L475.914 437.654Z" fill="#F0F0F0"/>
<path d="M501.104 438.197L262.618 438.429C262.38 438.428 262.152 438.333 261.984 438.164C261.817 437.995 261.722 437.767 261.722 437.529C261.722 437.291 261.817 437.062 261.984 436.894C262.152 436.725 262.38 436.63 262.618 436.628L501.104 436.396C501.342 436.397 501.57 436.493 501.738 436.661C501.906 436.83 502 437.058 502 437.296C502 437.534 501.906 437.763 501.738 437.931C501.57 438.1 501.342 438.196 501.104 438.197Z" fill="#CACACA"/>
</g>
<defs>
<clipPath id="clip0_272_1334">
<rect width="502" height="438.429" fill="white"/>
</clipPath>
</defs>
</svg>
