<svg width="34" height="34" viewBox="0 0 34 34" fill="none" xmlns="http://www.w3.org/2000/svg">
<path d="M17 33.6667C7.79498 33.6667 0.333313 26.205 0.333313 17C0.333313 7.79504 7.79498 0.333374 17 0.333374C26.205 0.333374 33.6666 7.79504 33.6666 17C33.6666 26.205 26.205 33.6667 17 33.6667ZM13.1833 29.7784C11.539 26.2906 10.5864 22.5171 10.3783 18.6667H3.76998C4.09429 21.2315 5.15652 23.647 6.82759 25.6196C8.49867 27.5921 10.7067 29.0369 13.1833 29.7784ZM13.7166 18.6667C13.9683 22.7317 15.13 26.55 17 29.92C18.9205 26.461 20.0424 22.6158 20.2833 18.6667H13.7166ZM30.23 18.6667H23.6216C23.4135 22.5171 22.461 26.2906 20.8166 29.7784C23.2933 29.0369 25.5013 27.5921 27.1724 25.6196C28.8434 23.647 29.9057 21.2315 30.23 18.6667ZM3.76998 15.3334H10.3783C10.5864 11.483 11.539 7.70952 13.1833 4.22171C10.7067 4.96317 8.49867 6.40796 6.82759 8.38053C5.15652 10.3531 4.09429 12.7685 3.76998 15.3334ZM13.7183 15.3334H20.2816C20.0412 11.3844 18.9199 7.53926 17 4.08004C15.0794 7.53912 13.9576 11.3842 13.7166 15.3334H13.7183ZM20.8166 4.22171C22.461 7.70952 23.4135 11.483 23.6216 15.3334H30.23C29.9057 12.7685 28.8434 10.3531 27.1724 8.38053C25.5013 6.40796 23.2933 4.96317 20.8166 4.22171Z" fill="#1C69DC"/>
</svg>
