<svg width="448" height="369" viewBox="0 0 448 369" fill="none" xmlns="http://www.w3.org/2000/svg">
<g clip-path="url(#clip0_277_155)">
<path d="M364.597 37.0312C367.46 25.3561 364.738 11.7403 355.49 4.06079C355.309 17.1319 350.511 29.7177 341.944 39.5915C338.626 43.3874 334.541 47.264 334.38 52.3029C334.279 55.4383 335.81 58.4497 337.919 60.7718C340.028 63.0939 342.689 64.8317 345.318 66.5429L345.704 67.2242C354.167 58.6875 361.734 48.7063 364.597 37.0312Z" fill="#F0F0F0"/>
<path d="M355.304 4.23133C358.851 13.5276 359.378 23.705 356.811 33.3181C356.295 35.3974 355.455 37.3824 354.321 39.2C353.159 40.9349 351.554 42.327 349.672 43.2317C347.935 44.1105 346.055 44.8081 344.562 46.094C343.807 46.7636 343.202 47.5852 342.787 48.5049C342.372 49.4246 342.156 50.4216 342.153 51.4306C342.081 53.9446 342.917 56.3346 343.815 58.6434C344.812 61.2069 345.889 63.8538 345.658 66.6605C345.63 67.0006 346.159 67.024 346.187 66.6845C346.588 61.8014 343.272 57.6767 342.746 52.9403C342.501 50.7302 342.92 48.4328 344.554 46.8214C345.983 45.4124 347.92 44.6912 349.687 43.8167C351.536 42.961 353.147 41.6657 354.379 40.0439C355.602 38.2899 356.518 36.3406 357.086 34.2795C358.441 29.6596 359.061 24.8555 358.923 20.0431C358.797 14.5499 357.731 9.11883 355.773 3.98489C355.652 3.66718 355.183 3.91569 355.304 4.23132V4.23133Z" fill="white"/>
<path d="M357.82 30.2713C359.491 30.483 361.184 30.0937 362.594 29.173C364.005 28.2522 365.043 26.86 365.522 25.2448C365.618 24.9177 365.114 24.7534 365.018 25.081C364.574 26.5859 363.608 27.8827 362.292 28.7374C360.977 29.5921 359.399 29.9484 357.844 29.7421C357.506 29.6976 357.484 30.2271 357.82 30.2713Z" fill="white"/>
<path d="M350.612 42.9021C348.478 40.1992 347.441 36.7913 347.708 33.3578C347.735 33.0177 347.205 32.9941 347.179 33.3338C346.908 36.9073 347.994 40.4516 350.221 43.2594C350.433 43.5269 350.823 43.1681 350.612 42.9021Z" fill="white"/>
<path d="M358.159 14.8437C357.495 14.8966 356.828 14.7837 356.219 14.5153C355.61 14.2469 355.076 13.8314 354.667 13.306C354.458 13.036 354.069 13.3951 354.276 13.6633C354.731 14.2417 355.32 14.6999 355.993 14.9979C356.665 15.2959 357.401 15.4247 358.135 15.373C358.204 15.3739 358.271 15.3483 358.323 15.3014C358.374 15.2545 358.406 15.1897 358.411 15.1203C358.414 15.0503 358.389 14.9819 358.342 14.9301C358.294 14.8783 358.229 14.8473 358.159 14.8437Z" fill="white"/>
<path d="M315.498 11.6189C315.623 11.7912 315.749 11.9635 315.873 12.1401C317.551 14.4657 319.037 16.9237 320.316 19.4899C320.419 19.6868 320.519 19.8877 320.615 20.0871C323.632 26.3025 325.469 33.0241 326.032 39.91C326.254 42.6503 326.267 45.4034 326.07 48.1457C325.799 51.9328 325.204 56.0174 326.172 59.5683C326.268 59.9399 326.388 60.3052 326.53 60.662L344.843 67.6424C344.893 67.6374 344.941 67.6366 344.991 67.6316L345.709 67.9438C345.729 67.8031 345.747 67.6567 345.767 67.5159C345.779 67.4344 345.787 67.3512 345.798 67.2697C345.805 67.2148 345.812 67.1598 345.821 67.1106C345.823 67.0924 345.825 67.0741 345.826 67.06C345.835 67.0108 345.838 66.9642 345.846 66.9192C345.947 66.1013 346.043 65.2812 346.133 64.459C346.134 64.4548 346.134 64.4548 346.132 64.449C346.879 58.1904 346.88 51.8653 346.136 45.6063C346.112 45.4199 346.089 45.2293 346.056 45.0396C345.671 42.2478 345.058 39.4921 344.224 36.8C343.763 35.3274 343.227 33.879 342.62 32.4606C341.042 28.7985 338.898 25.4074 336.267 22.4115C331.021 16.44 323.923 12.2129 316.096 11.6556C315.896 11.6415 315.699 11.6288 315.498 11.6189Z" fill="#F0F0F0"/>
<path d="M315.45 11.867C323.879 17.1542 330.428 24.9628 334.166 34.1837C335.006 36.1544 335.53 38.2453 335.719 40.3792C335.836 42.4639 335.392 44.5419 334.434 46.3972C333.576 48.1451 332.496 49.8335 332.077 51.7596C331.878 52.7487 331.889 53.7688 332.112 54.753C332.334 55.7373 332.762 56.6634 333.367 57.4706C334.823 59.5214 336.929 60.9266 339.037 62.2293C341.376 63.6757 343.829 65.1409 345.335 67.5207C345.518 67.809 345.954 67.5091 345.772 67.2212C343.152 63.0808 338.021 61.7842 334.749 58.3191C333.223 56.7023 332.174 54.6156 332.509 52.3452C332.801 50.3598 333.914 48.6177 334.798 46.8555C335.759 45.0593 336.266 43.0551 336.273 41.018C336.194 38.8813 335.751 36.7737 334.964 34.7856C333.265 30.2813 330.867 26.0723 327.86 22.3128C324.451 18.003 320.331 14.3081 315.676 11.3878C315.388 11.2072 315.164 11.6876 315.45 11.8671V11.867Z" fill="white"/>
<path d="M333.137 31.1438C334.599 30.3065 335.716 28.9769 336.288 27.3923C336.86 25.8078 336.85 24.0714 336.26 22.4934C336.14 22.1746 335.638 22.3468 335.759 22.6661C336.311 24.1345 336.32 25.7519 335.784 27.2264C335.249 28.7008 334.203 29.9352 332.837 30.7067C332.541 30.8748 332.842 31.3108 333.137 31.1438Z" fill="white"/>
<path d="M334.986 45.5684C331.655 44.6952 328.775 42.5984 326.921 39.6963C326.738 39.4086 326.301 39.7085 326.484 39.9958C328.419 43.0122 331.421 45.1881 334.889 46.0892C335.22 46.1748 335.315 45.6536 334.986 45.5684Z" fill="white"/>
<path d="M324.119 18.6218C323.621 19.0636 323.021 19.3748 322.372 19.5273C321.724 19.6799 321.048 19.6691 320.406 19.496C320.076 19.4061 319.981 19.9275 320.308 20.0168C321.02 20.2048 321.766 20.2158 322.482 20.0488C323.199 19.8818 323.864 19.5419 324.418 19.0588C324.474 19.0177 324.513 18.9567 324.526 18.8883C324.538 18.8199 324.525 18.7492 324.487 18.6906C324.447 18.6329 324.386 18.5933 324.317 18.5805C324.248 18.5676 324.177 18.5824 324.119 18.6218V18.6218Z" fill="white"/>
<path d="M291.284 275.343C229.887 275.343 179.938 225.393 179.938 163.996C179.938 102.6 229.887 52.6504 291.284 52.6504C297.775 52.6496 304.254 53.211 310.648 54.3283C310.727 54.3421 310.804 54.3714 310.872 54.4147C310.94 54.458 310.999 54.5143 311.046 54.5805C311.093 54.6466 311.126 54.7213 311.143 54.8003C311.161 54.8793 311.163 54.9609 311.149 55.0406C311.135 55.1203 311.105 55.1965 311.062 55.2647C311.018 55.333 310.962 55.392 310.896 55.4384C310.829 55.4848 310.755 55.5176 310.676 55.5351C310.597 55.5525 310.515 55.5542 310.435 55.54C304.111 54.4352 297.704 53.88 291.284 53.8807C230.566 53.8807 181.168 103.278 181.168 163.996C181.168 224.715 230.566 274.112 291.284 274.112C352.002 274.112 401.4 224.715 401.4 163.996C401.427 136.552 391.179 110.093 372.674 89.8259C372.565 89.7052 372.509 89.5463 372.517 89.3839C372.524 89.2215 372.596 89.0689 372.716 88.9594C372.837 88.8498 372.995 88.7923 373.158 88.7993C373.32 88.8064 373.473 88.8774 373.583 88.9969C392.295 109.49 402.657 136.246 402.63 163.996C402.63 225.393 352.68 275.343 291.284 275.343Z" fill="#E4E4E4"/>
<path d="M340.379 90.8382C352.546 90.8382 362.409 80.975 362.409 68.8082C362.409 56.6415 352.546 46.7783 340.379 46.7783C328.212 46.7783 318.349 56.6415 318.349 68.8082C318.349 80.975 328.212 90.8382 340.379 90.8382Z" fill="#1E6BDD"/>
<path d="M337.374 80.2738C336.993 80.2738 336.618 80.1852 336.278 80.015C335.938 79.8449 335.642 79.5978 335.413 79.2934L329.403 71.2798C329.21 71.0223 329.07 70.7294 328.99 70.4176C328.91 70.1059 328.892 69.7815 328.938 69.4629C328.983 69.1444 329.091 68.8379 329.255 68.561C329.419 68.2841 329.636 68.0422 329.894 67.8491C330.151 67.6561 330.444 67.5156 330.756 67.4357C331.067 67.3559 331.392 67.3382 331.71 67.3837C332.029 67.4292 332.335 67.5371 332.612 67.701C332.889 67.865 333.131 68.0819 333.324 68.3393L337.256 73.5816L347.355 58.4335C347.717 57.895 348.277 57.5217 348.913 57.3955C349.549 57.2693 350.21 57.4004 350.749 57.7602C351.289 58.12 351.664 58.6791 351.792 59.3149C351.92 59.9507 351.791 60.6114 351.433 61.1522L339.413 79.1825C339.195 79.5086 338.903 79.7778 338.56 79.9675C338.217 80.1573 337.834 80.262 337.442 80.273C337.419 80.2734 337.396 80.2738 337.374 80.2738Z" fill="white"/>
<path d="M288.419 146.717L254.447 52.2077L255.309 51.898L249.061 34.5152L248.199 34.8252L237.768 5.80793C237.379 4.72416 236.78 3.72773 236.005 2.87553C235.23 2.02334 234.295 1.33207 233.254 0.841185C232.212 0.350303 231.084 0.0694207 229.933 0.0145856C228.783 -0.0402496 227.633 0.132033 226.549 0.521594L165.135 22.5972C164.051 22.9867 163.055 23.5859 162.203 24.3605C161.351 25.1351 160.659 26.07 160.168 27.1118C159.677 28.1536 159.396 29.2819 159.342 30.4322C159.287 31.5826 159.459 32.7325 159.849 33.8163L167.121 54.0489L165.76 54.573L170.403 66.6286L171.492 66.209L172.456 68.8906L171.297 69.3372L175.939 81.3928L176.827 81.0508L210.499 174.725C210.887 175.811 211.485 176.808 212.259 177.662C213.034 178.515 213.969 179.207 215.011 179.698C216.054 180.19 217.183 180.47 218.334 180.524C219.485 180.578 220.635 180.404 221.719 180.012L283.132 157.936C285.32 157.147 287.104 155.523 288.096 153.42C289.087 151.317 289.203 148.906 288.419 146.717Z" fill="#3F3D56"/>
<path d="M218.489 176.897C217.624 176.895 216.781 176.627 216.074 176.129C215.366 175.631 214.83 174.927 214.537 174.114L163.352 31.7175C162.975 30.6687 163.03 29.5132 163.505 28.5051C163.98 27.4969 164.836 26.7188 165.885 26.3417L178.952 21.6447L178.932 22.1019C178.899 22.8955 179.061 23.6852 179.404 24.4014C179.748 25.1175 180.262 25.7382 180.902 26.2088C181.542 26.6793 182.288 26.9853 183.074 27.0996C183.86 27.214 184.662 27.1333 185.41 26.8647L214.409 16.4407C215.109 16.12 215.724 15.639 216.204 15.0366C216.683 14.4343 217.014 13.7275 217.17 12.9735C217.324 12.232 217.301 11.4646 217.102 10.7338C216.903 10.0031 216.534 9.32975 216.025 8.76876L215.719 8.42842L229.217 3.57645C230.266 3.20102 231.421 3.25687 232.428 3.73178C233.436 4.20669 234.215 5.06187 234.593 6.10982L283.428 141.968C284.425 144.751 284.277 147.816 283.017 150.49C281.756 153.164 279.487 155.229 276.706 156.232L219.913 176.647C219.456 176.812 218.974 176.897 218.489 176.897Z" fill="white"/>
<path d="M213.485 75.8982C222.658 75.8982 230.095 68.4618 230.095 59.2886C230.095 50.1153 222.658 42.679 213.485 42.679C204.312 42.679 196.875 50.1153 196.875 59.2886C196.875 68.4618 204.312 75.8982 213.485 75.8982Z" fill="#1E6BDD"/>
<path d="M254.644 83.4428L197.124 104.119C196.944 104.184 196.753 104.213 196.562 104.204C196.371 104.195 196.184 104.149 196.011 104.068C195.838 103.986 195.683 103.872 195.555 103.73C195.426 103.589 195.326 103.424 195.262 103.244C195.197 103.064 195.169 102.873 195.178 102.683C195.187 102.492 195.234 102.305 195.315 102.132C195.397 101.959 195.512 101.804 195.654 101.676C195.795 101.548 195.961 101.448 196.141 101.384L253.661 80.7084C254.023 80.5792 254.422 80.599 254.77 80.7634C255.117 80.9278 255.386 81.2234 255.516 81.5854C255.646 81.9474 255.627 82.3463 255.464 82.6945C255.3 83.0427 255.005 83.3118 254.644 83.4428Z" fill="#E6E6E6"/>
<path d="M237.562 96.5522L218.642 103.353C218.462 103.418 218.272 103.447 218.081 103.438C217.89 103.429 217.703 103.383 217.53 103.302C217.357 103.22 217.202 103.106 217.073 102.965C216.945 102.823 216.845 102.658 216.781 102.478C216.716 102.298 216.688 102.108 216.697 101.917C216.706 101.726 216.753 101.539 216.834 101.366C216.916 101.193 217.031 101.038 217.172 100.91C217.314 100.782 217.479 100.683 217.659 100.618L236.579 93.8176C236.942 93.6872 237.341 93.7063 237.69 93.8705C238.038 94.0348 238.308 94.3308 238.438 94.6934C238.568 95.056 238.549 95.4556 238.385 95.8042C238.221 96.1528 237.925 96.4218 237.562 96.5522Z" fill="#E6E6E6"/>
<path d="M242.062 109.071L223.142 115.872C222.963 115.937 222.772 115.965 222.582 115.956C222.391 115.947 222.204 115.901 222.032 115.819C221.859 115.738 221.704 115.624 221.576 115.482C221.447 115.341 221.348 115.176 221.284 114.997C221.219 114.817 221.19 114.626 221.2 114.436C221.209 114.245 221.255 114.058 221.336 113.886C221.418 113.713 221.532 113.558 221.673 113.43C221.815 113.302 221.98 113.202 222.159 113.138L241.079 106.337C241.442 106.207 241.841 106.226 242.19 106.39C242.539 106.554 242.808 106.85 242.938 107.213C243.068 107.575 243.049 107.975 242.885 108.323C242.721 108.672 242.425 108.941 242.062 109.071V109.071Z" fill="#E6E6E6"/>
<path d="M244.367 115.484L225.447 122.285C225.267 122.35 225.077 122.379 224.886 122.37C224.695 122.361 224.508 122.315 224.335 122.234C224.162 122.153 224.006 122.038 223.878 121.897C223.749 121.755 223.65 121.59 223.585 121.41C223.52 121.23 223.492 121.04 223.501 120.849C223.51 120.658 223.557 120.471 223.639 120.298C223.72 120.125 223.835 119.97 223.977 119.842C224.119 119.714 224.284 119.614 224.464 119.55L243.384 112.749C243.564 112.684 243.755 112.655 243.945 112.664C244.136 112.673 244.324 112.719 244.497 112.8C244.669 112.882 244.825 112.996 244.953 113.138C245.082 113.279 245.181 113.444 245.246 113.624C245.311 113.804 245.339 113.995 245.33 114.185C245.321 114.376 245.274 114.563 245.192 114.736C245.111 114.909 244.996 115.064 244.854 115.192C244.713 115.321 244.547 115.42 244.367 115.484L244.367 115.484Z" fill="#E6E6E6"/>
<path d="M250.391 98.9098L210.25 113.339C210.07 113.404 209.879 113.433 209.689 113.424C209.498 113.415 209.31 113.369 209.137 113.288C208.964 113.207 208.809 113.092 208.681 112.951C208.552 112.809 208.453 112.644 208.388 112.464C208.323 112.285 208.295 112.094 208.304 111.903C208.313 111.712 208.36 111.525 208.442 111.352C208.523 111.179 208.638 111.024 208.78 110.896C208.921 110.768 209.087 110.669 209.267 110.605L249.409 96.1754C249.588 96.1104 249.779 96.0814 249.97 96.0902C250.161 96.0989 250.348 96.1453 250.521 96.2265C250.694 96.3077 250.849 96.4223 250.978 96.5636C251.106 96.7049 251.206 96.8702 251.27 97.05C251.335 97.2299 251.364 97.4206 251.354 97.6115C251.345 97.8023 251.298 97.9895 251.217 98.1623C251.135 98.335 251.02 98.49 250.879 98.6183C250.737 98.7465 250.571 98.8456 250.391 98.9098Z" fill="#E6E6E6"/>
<path d="M242.306 131.05L235.436 133.519C234.82 133.74 234.141 133.707 233.548 133.428C232.956 133.149 232.499 132.645 232.277 132.029C232.056 131.413 232.088 130.734 232.367 130.141C232.646 129.549 233.149 129.091 233.765 128.869L240.635 126.4C241.251 126.179 241.93 126.211 242.522 126.491C243.115 126.77 243.572 127.273 243.794 127.89C244.015 128.506 243.983 129.185 243.704 129.777C243.425 130.37 242.922 130.828 242.306 131.05Z" fill="#1E6BDD"/>
<path d="M188.17 22.1053C188.698 22.1053 189.126 21.6776 189.126 21.1499C189.126 20.6223 188.698 20.1946 188.17 20.1946C187.643 20.1946 187.215 20.6223 187.215 21.1499C187.215 21.6776 187.643 22.1053 188.17 22.1053Z" fill="white"/>
<path d="M78.301 74.8809C89.0084 62.2771 106.382 54.3339 122.399 58.452C107.973 69.1918 97.8108 84.688 93.7104 102.199C92.1536 108.958 91.1257 116.638 85.6381 120.88C82.2236 123.519 77.6323 124.241 73.3434 123.762C69.0543 123.282 64.972 121.717 60.9446 120.166L59.8738 120.285C62.5674 103.968 67.5936 87.4848 78.301 74.8809Z" fill="#F0F0F0"/>
<path d="M122.358 58.7967C109.135 62.3377 97.3644 69.9551 88.7172 80.5668C86.8151 82.8182 85.2798 85.3554 84.1678 88.0849C83.1704 90.7788 82.9127 93.6906 83.4213 96.5179C83.8425 99.1635 84.5798 101.821 84.3506 104.523C84.2128 105.904 83.7845 107.241 83.0939 108.445C82.4032 109.649 81.4658 110.694 80.3432 111.51C77.5987 113.618 74.2608 114.613 70.9628 115.473C67.3009 116.428 63.4823 117.362 60.5393 119.882C60.1827 120.187 59.7298 119.616 60.0858 119.311C65.2062 114.927 72.4782 115.299 78.1823 112.067C80.844 110.558 83.0673 108.239 83.5462 105.118C83.965 102.389 83.2071 99.6482 82.7574 96.9732C82.2208 94.2224 82.3659 91.3821 83.1801 88.7004C84.1495 85.923 85.5846 83.3309 87.4237 81.0351C91.4817 75.8003 96.3376 71.2361 101.813 67.5098C108.039 63.2222 114.953 60.0313 122.255 58.0751C122.707 57.9542 122.807 58.6766 122.358 58.7967H122.358Z" fill="white"/>
<path d="M91.3005 76.986C89.717 75.2935 88.7867 73.0932 88.6758 70.7781C88.5648 68.463 89.2804 66.1839 90.6947 64.3477C90.9822 63.9771 91.5715 64.4064 91.2837 64.7775C89.9635 66.4849 89.2971 68.608 89.4049 70.7636C89.5126 72.9192 90.3873 74.9653 91.8712 76.5325C92.1932 76.8735 91.6207 77.325 91.3005 76.986H91.3005Z" fill="white"/>
<path d="M83.031 95.2045C87.7648 95.4045 92.3999 93.8129 96.0123 90.7472C96.37 90.4432 96.823 91.0142 96.4657 91.3179C92.7007 94.5012 87.8737 96.1476 82.9481 95.9287C82.4787 95.9075 82.5641 95.1834 83.031 95.2045Z" fill="white"/>
<path d="M108.226 64.1704C108.702 64.953 109.366 65.605 110.156 66.0679C110.947 66.5308 111.84 66.7902 112.755 66.8226C113.225 66.8379 113.139 67.5619 112.672 67.5468C111.661 67.5062 110.675 67.2186 109.8 66.7091C108.926 66.1996 108.19 65.4836 107.656 64.6239C107.598 64.547 107.573 64.4514 107.584 64.3562C107.594 64.2611 107.641 64.1737 107.714 64.1118C107.79 64.0522 107.886 64.0248 107.982 64.0358C108.078 64.0468 108.166 64.0952 108.226 64.1704Z" fill="white"/>
<path d="M146.216 109.129C145.922 109.128 145.629 109.127 145.332 109.13C141.387 109.135 137.448 109.46 133.556 110.103C133.254 110.148 132.949 110.198 132.649 110.251C123.288 111.899 114.314 115.27 106.184 120.194C102.95 122.156 99.8706 124.362 96.9717 126.791C92.9684 130.146 88.8947 134.103 84.1562 135.888C83.6639 136.079 83.1602 136.24 82.6481 136.37L60.1019 121.582C60.0675 121.523 60.0295 121.468 59.9949 121.409L59.0677 120.86C59.2084 120.724 59.3574 120.586 59.4981 120.45C59.5794 120.371 59.6658 120.296 59.7471 120.216C59.8029 120.165 59.859 120.113 59.9064 120.063C59.9249 120.046 59.9437 120.029 59.9588 120.017C60.0062 119.967 60.0555 119.926 60.0996 119.881C60.9298 119.109 61.7669 118.341 62.6109 117.578C62.6142 117.573 62.6142 117.573 62.6226 117.571C69.0681 111.771 76.0543 106.458 83.6249 102.374C83.8527 102.252 84.0836 102.123 84.3217 102.007C87.7444 100.186 91.3102 98.6468 94.9836 97.406C96.9972 96.733 99.0436 96.1624 101.115 95.6964C106.469 94.5026 111.978 94.1584 117.439 94.6764C128.326 95.7106 138.761 100.215 145.692 108.491C145.869 108.703 146.042 108.912 146.216 109.129Z" fill="#F0F0F0"/>
<path d="M145.977 109.382C133.288 104.248 119.303 103.243 106.01 106.51C103.135 107.162 100.382 108.264 97.8507 109.773C95.4325 111.324 93.4735 113.494 92.1775 116.057C90.921 118.423 89.9097 120.989 88.0999 123.008C87.1582 124.028 86.0115 124.838 84.7351 125.383C83.4586 125.929 82.0813 126.199 80.6933 126.175C77.2333 126.205 73.9688 124.99 70.8177 123.691C67.3189 122.249 63.7077 120.695 59.8408 120.935C59.3722 120.965 59.3545 120.236 59.8223 120.207C66.5501 119.789 72.1326 124.464 78.633 125.318C81.6663 125.716 84.8379 125.203 87.0992 122.999C89.0766 121.073 90.1217 118.428 91.3732 116.021C92.6009 113.502 94.4269 111.321 96.6915 109.67C99.1377 108.036 101.844 106.831 104.695 106.105C111.087 104.368 117.712 103.648 124.327 103.969C131.88 104.294 139.321 105.909 146.329 108.743C146.763 108.919 146.408 109.556 145.977 109.382L145.977 109.382Z" fill="white"/>
<path d="M110.228 105.206C109.983 102.901 110.565 100.584 111.87 98.6691C113.175 96.7538 115.119 95.3648 117.354 94.7503C117.806 94.6275 118.018 95.325 117.565 95.448C115.483 96.0165 113.673 97.3104 112.461 99.0964C111.249 100.882 110.716 103.043 110.957 105.187C111.009 105.654 110.28 105.669 110.228 105.206V105.206Z" fill="white"/>
<path d="M92.6565 114.774C96.3158 117.783 100.975 119.303 105.705 119.03C106.174 119.003 106.191 119.732 105.723 119.759C100.801 120.034 95.9553 118.442 92.1544 115.302C91.7923 115.002 92.2965 114.476 92.6566 114.774H92.6565Z" fill="white"/>
<path d="M131.458 105.164C131.367 106.075 131.504 106.995 131.857 107.841C132.209 108.686 132.766 109.431 133.477 110.008C133.843 110.303 133.338 110.829 132.975 110.536C132.192 109.895 131.578 109.072 131.187 108.139C130.795 107.205 130.638 106.19 130.729 105.182C130.73 105.086 130.767 104.995 130.833 104.925C130.899 104.856 130.989 104.814 131.085 104.809C131.181 104.807 131.274 104.843 131.344 104.909C131.414 104.976 131.455 105.067 131.458 105.164Z" fill="white"/>
<path d="M399.646 317.129C411.321 319.992 424.937 317.27 432.616 308.022C419.545 307.841 406.959 303.043 397.086 294.476C393.29 291.158 389.413 287.073 384.374 286.912C381.239 286.812 378.228 288.343 375.905 290.452C373.583 292.561 371.846 295.221 370.134 297.85L369.453 298.237C377.99 306.7 387.971 314.267 399.646 317.129Z" fill="#F0F0F0"/>
<path d="M432.446 307.836C423.15 311.383 412.972 311.911 403.359 309.344C401.28 308.828 399.295 307.988 397.477 306.854C395.742 305.692 394.35 304.087 393.446 302.205C392.567 300.467 391.869 298.588 390.583 297.094C389.914 296.339 389.092 295.735 388.172 295.319C387.253 294.904 386.256 294.688 385.247 294.686C382.733 294.614 380.343 295.449 378.034 296.347C375.47 297.345 372.823 298.421 370.017 298.191C369.677 298.163 369.653 298.692 369.993 298.72C374.876 299.121 379.001 295.805 383.737 295.279C385.947 295.033 388.244 295.452 389.856 297.086C391.265 298.515 391.986 300.452 392.861 302.219C393.716 304.068 395.011 305.679 396.633 306.912C398.387 308.135 400.337 309.05 402.398 309.619C407.018 310.974 411.822 311.593 416.634 311.456C422.127 311.329 427.558 310.264 432.692 308.306C433.01 308.184 432.761 307.716 432.446 307.836H432.446Z" fill="white"/>
<path d="M406.406 310.353C406.194 312.024 406.583 313.716 407.504 315.127C408.425 316.538 409.817 317.575 411.432 318.054C411.759 318.15 411.924 317.646 411.596 317.55C410.091 317.107 408.795 316.14 407.94 314.825C407.085 313.509 406.729 311.932 406.935 310.377C406.98 310.039 406.45 310.017 406.406 310.353V310.353Z" fill="white"/>
<path d="M393.775 303.145C396.478 301.011 399.886 299.974 403.319 300.241C403.66 300.267 403.683 299.738 403.343 299.711C399.77 299.44 396.226 300.526 393.418 302.753C393.15 302.966 393.509 303.356 393.775 303.145H393.775Z" fill="white"/>
<path d="M421.833 310.691C421.781 310.027 421.893 309.361 422.162 308.752C422.43 308.142 422.846 307.609 423.371 307.2C423.641 306.991 423.282 306.601 423.014 306.809C422.435 307.263 421.977 307.853 421.679 308.525C421.381 309.198 421.252 309.933 421.304 310.667C421.303 310.737 421.329 310.804 421.376 310.855C421.423 310.907 421.487 310.938 421.557 310.944C421.627 310.947 421.695 310.922 421.747 310.874C421.799 310.827 421.83 310.761 421.833 310.691Z" fill="white"/>
<path d="M425.058 268.03C424.886 268.156 424.714 268.282 424.537 268.406C422.211 270.084 419.753 271.57 417.187 272.849C416.99 272.951 416.789 273.052 416.59 273.148C410.375 276.165 403.653 278.002 396.767 278.565C394.027 278.786 391.274 278.799 388.532 278.603C384.744 278.332 380.66 277.737 377.109 278.704C376.737 278.801 376.372 278.921 376.015 279.063L369.035 297.376C369.04 297.425 369.041 297.474 369.046 297.523L368.733 298.242C368.874 298.262 369.02 298.279 369.161 298.299C369.243 298.311 369.326 298.319 369.408 298.331C369.462 298.338 369.517 298.344 369.567 298.353C369.585 298.356 369.603 298.358 369.617 298.359C369.666 298.368 369.713 298.371 369.758 298.378C370.576 298.48 371.396 298.575 372.218 298.666C372.222 298.667 372.222 298.667 372.228 298.665C378.487 299.411 384.812 299.413 391.071 298.669C391.257 298.644 391.448 298.621 391.638 298.588C394.429 298.203 397.185 297.591 399.877 296.757C401.35 296.296 402.798 295.76 404.217 295.152C407.879 293.575 411.27 291.431 414.266 288.8C420.237 283.553 424.464 276.456 425.022 268.629C425.036 268.428 425.048 268.232 425.058 268.03Z" fill="#F0F0F0"/>
<path d="M424.81 267.983C419.523 276.412 411.714 282.96 402.494 286.699C400.523 287.539 398.432 288.063 396.298 288.252C394.213 288.368 392.135 287.925 390.28 286.967C388.532 286.109 386.844 285.028 384.918 284.61C383.929 284.41 382.908 284.422 381.924 284.644C380.94 284.867 380.014 285.295 379.207 285.9C377.156 287.356 375.751 289.462 374.448 291.569C373.002 293.909 371.536 296.362 369.157 297.868C368.868 298.05 369.168 298.487 369.456 298.305C373.596 295.685 374.893 290.554 378.358 287.282C379.975 285.755 382.062 284.707 384.332 285.041C386.317 285.334 388.06 286.447 389.822 287.331C391.618 288.292 393.622 288.798 395.659 288.806C397.796 288.726 399.903 288.284 401.892 287.497C406.396 285.797 410.605 283.4 414.364 280.392C418.674 276.984 422.369 272.863 425.289 268.209C425.47 267.921 424.99 267.697 424.81 267.983H424.81Z" fill="white"/>
<path d="M405.533 285.67C406.371 287.131 407.7 288.248 409.285 288.82C410.869 289.392 412.606 289.383 414.184 288.793C414.503 288.672 414.33 288.171 414.011 288.292C412.543 288.844 410.925 288.853 409.451 288.317C407.976 287.781 406.742 286.736 405.97 285.37C405.802 285.073 405.366 285.375 405.533 285.67Z" fill="white"/>
<path d="M391.109 287.519C391.982 284.188 394.079 281.308 396.981 279.454C397.269 279.27 396.969 278.834 396.681 279.017C393.665 280.952 391.489 283.953 390.588 287.422C390.502 287.752 391.024 287.848 391.109 287.519Z" fill="white"/>
<path d="M418.055 276.651C417.614 276.153 417.302 275.553 417.15 274.905C416.997 274.257 417.008 273.581 417.181 272.938C417.271 272.609 416.75 272.514 416.66 272.841C416.472 273.552 416.461 274.298 416.628 275.015C416.795 275.731 417.135 276.396 417.618 276.951C417.659 277.007 417.72 277.045 417.789 277.058C417.857 277.071 417.928 277.057 417.987 277.02C418.044 276.98 418.084 276.919 418.097 276.85C418.11 276.781 418.095 276.709 418.055 276.651Z" fill="white"/>
<path d="M446.428 204.914L428.625 234.873L429.302 235.23L423.273 246.66L422.018 245.996L418.056 252.658L419.041 253.224L412.581 264.408L411.462 263.762L353.371 361.525C351.848 364.083 349.371 365.933 346.486 366.667C343.6 367.402 340.541 366.962 337.979 365.443L229.986 301.275C227.427 299.752 225.577 297.275 224.843 294.39C224.108 291.504 224.548 288.445 226.067 285.883L319.124 129.273C320.648 126.714 323.124 124.865 326.01 124.13C328.895 123.396 331.955 123.836 334.516 125.354L442.509 189.523C445.067 191.047 446.916 193.523 447.65 196.409C448.385 199.294 447.945 202.353 446.428 204.914Z" fill="#3F3D56"/>
<path d="M341.828 359.398L233.454 295.004C232.666 294.535 232.096 293.771 231.869 292.882C231.643 291.992 231.779 291.049 232.247 290.26L325.921 132.608C326.391 131.819 327.154 131.249 328.044 131.023C328.933 130.796 329.876 130.932 330.666 131.4L439.039 195.794C439.828 196.264 440.398 197.027 440.624 197.916C440.851 198.806 440.715 199.749 440.247 200.538L346.573 358.191C346.103 358.979 345.34 359.549 344.45 359.775C343.561 360.002 342.618 359.866 341.828 359.398Z" fill="white"/>
<path d="M386.345 161.105C386.873 161.105 387.3 160.677 387.3 160.15C387.3 159.622 386.873 159.194 386.345 159.194C385.817 159.194 385.39 159.622 385.39 160.15C385.39 160.677 385.817 161.105 386.345 161.105Z" fill="white"/>
<path d="M380.433 274.037L289.968 220.284C289.684 220.117 289.436 219.896 289.238 219.633C289.04 219.37 288.896 219.07 288.814 218.751C288.732 218.432 288.714 218.1 288.761 217.774C288.808 217.448 288.918 217.135 289.087 216.852C289.255 216.568 289.477 216.321 289.741 216.124C290.005 215.928 290.305 215.785 290.625 215.704C290.944 215.623 291.276 215.607 291.602 215.655C291.927 215.703 292.24 215.815 292.523 215.984L382.988 269.737C383.272 269.904 383.52 270.125 383.718 270.389C383.916 270.652 384.06 270.951 384.141 271.27C384.223 271.589 384.241 271.921 384.195 272.247C384.148 272.573 384.037 272.887 383.869 273.17C383.701 273.453 383.478 273.7 383.214 273.897C382.95 274.094 382.65 274.237 382.331 274.317C382.012 274.398 381.68 274.415 381.354 274.367C381.028 274.319 380.715 274.207 380.433 274.037H380.433Z" fill="#E6E6E6"/>
<path d="M344.311 265.708L314.554 248.027C314.272 247.86 314.025 247.638 313.828 247.375C313.631 247.112 313.488 246.812 313.407 246.494C313.326 246.176 313.309 245.844 313.356 245.519C313.403 245.194 313.513 244.881 313.681 244.599C313.849 244.316 314.071 244.07 314.334 243.873C314.597 243.676 314.896 243.533 315.215 243.452C315.533 243.371 315.864 243.354 316.189 243.401C316.514 243.448 316.827 243.559 317.11 243.726L346.866 261.407C347.148 261.575 347.395 261.797 347.592 262.06C347.788 262.323 347.931 262.622 348.012 262.941C348.093 263.259 348.111 263.59 348.064 263.915C348.017 264.24 347.906 264.553 347.739 264.836C347.571 265.118 347.349 265.364 347.086 265.561C346.823 265.758 346.524 265.901 346.205 265.982C345.887 266.063 345.556 266.08 345.231 266.033C344.906 265.987 344.593 265.876 344.311 265.708Z" fill="#E6E6E6"/>
<path d="M332.611 285.398L302.855 267.717C302.285 267.378 301.872 266.827 301.709 266.184C301.545 265.541 301.644 264.86 301.982 264.289C302.321 263.719 302.873 263.307 303.516 263.143C304.158 262.979 304.84 263.078 305.41 263.416L335.167 281.097C335.449 281.265 335.696 281.487 335.892 281.75C336.089 282.013 336.232 282.312 336.313 282.631C336.394 282.949 336.412 283.28 336.365 283.605C336.318 283.93 336.207 284.243 336.039 284.525C335.872 284.808 335.65 285.054 335.387 285.251C335.124 285.448 334.824 285.591 334.506 285.672C334.188 285.753 333.856 285.77 333.531 285.723C333.206 285.676 332.894 285.566 332.611 285.398Z" fill="#E6E6E6"/>
<path d="M326.619 295.483L296.862 277.802C296.579 277.635 296.332 277.413 296.134 277.15C295.937 276.887 295.793 276.587 295.712 276.269C295.63 275.95 295.612 275.618 295.659 275.293C295.706 274.967 295.817 274.654 295.985 274.371C296.153 274.088 296.375 273.841 296.639 273.645C296.902 273.448 297.202 273.305 297.521 273.224C297.84 273.143 298.171 273.126 298.497 273.174C298.822 273.221 299.135 273.333 299.418 273.501L329.174 291.182C329.458 291.349 329.706 291.571 329.904 291.834C330.102 292.097 330.246 292.397 330.328 292.716C330.41 293.035 330.428 293.367 330.381 293.693C330.334 294.019 330.224 294.332 330.056 294.615C329.887 294.899 329.665 295.146 329.401 295.343C329.137 295.54 328.837 295.682 328.517 295.763C328.198 295.844 327.866 295.86 327.54 295.812C327.214 295.764 326.901 295.652 326.619 295.483V295.483Z" fill="#E6E6E6"/>
<path d="M355.231 285.331L292.098 247.818C291.531 247.478 291.121 246.927 290.959 246.285C290.797 245.644 290.896 244.964 291.234 244.395C291.572 243.826 292.122 243.415 292.763 243.25C293.403 243.086 294.083 243.182 294.654 243.517L357.787 281.03C358.071 281.197 358.319 281.419 358.517 281.682C358.715 281.945 358.859 282.245 358.94 282.564C359.022 282.883 359.04 283.215 358.994 283.541C358.947 283.867 358.836 284.18 358.668 284.463C358.5 284.747 358.277 284.994 358.013 285.191C357.749 285.387 357.449 285.53 357.13 285.611C356.811 285.692 356.479 285.708 356.153 285.66C355.827 285.612 355.514 285.5 355.231 285.331Z" fill="#E6E6E6"/>
<path d="M343.198 333.272L332.394 326.853C331.425 326.276 330.725 325.338 330.448 324.245C330.171 323.153 330.338 321.995 330.914 321.026C331.49 320.057 332.427 319.356 333.519 319.077C334.611 318.798 335.769 318.965 336.739 319.539L347.544 325.959C348.513 326.536 349.214 327.473 349.493 328.567C349.771 329.66 349.604 330.819 349.027 331.789C348.451 332.758 347.513 333.46 346.42 333.738C345.327 334.016 344.168 333.849 343.198 333.272Z" fill="#1E6BDD"/>
<path d="M363.356 229.037C375.587 229.037 385.503 219.122 385.503 206.891C385.503 194.66 375.587 184.745 363.356 184.745C351.125 184.745 341.21 194.66 341.21 206.891C341.21 219.122 351.125 229.037 363.356 229.037Z" fill="#1E6BDD"/>
<path d="M0.260864 296.885H299.961V123.377C299.959 122.077 299.442 120.831 298.523 119.912C297.604 118.992 296.357 118.475 295.057 118.474H5.16439C3.86437 118.475 2.61801 118.992 1.69874 119.912C0.77947 120.831 0.262365 122.077 0.260864 123.377V296.885Z" fill="#CACACA"/>
<path d="M290.701 125.256H9.52051V284.887H290.701V125.256Z" fill="white"/>
<path d="M4.03169e-10 292.19V313.601C-9.69391e-06 314.489 0.174811 315.368 0.51448 316.188C0.854149 317.008 1.35202 317.753 1.97965 318.381C2.60729 319.008 3.35241 319.506 4.17246 319.846C4.99251 320.186 5.87143 320.36 6.75905 320.36H117.376V362.616H115.906C115.791 362.616 115.677 362.638 115.57 362.683C115.464 362.727 115.367 362.791 115.286 362.873C115.204 362.954 115.139 363.051 115.095 363.158C115.051 363.264 115.028 363.378 115.028 363.494V366.433C115.028 366.548 115.051 366.662 115.095 366.769C115.139 366.875 115.204 366.972 115.286 367.054C115.367 367.135 115.464 367.2 115.57 367.244C115.677 367.288 115.791 367.311 115.906 367.311H184.576C184.691 367.311 184.805 367.288 184.912 367.244C185.018 367.2 185.115 367.135 185.197 367.054C185.278 366.972 185.343 366.875 185.387 366.769C185.431 366.662 185.454 366.548 185.454 366.433V363.494C185.454 363.378 185.431 363.264 185.387 363.158C185.343 363.051 185.278 362.954 185.197 362.873C185.115 362.791 185.018 362.727 184.912 362.683C184.805 362.638 184.691 362.616 184.576 362.616H183.106V320.36H293.723C294.611 320.36 295.49 320.186 296.31 319.846C297.13 319.506 297.875 319.008 298.503 318.381C299.13 317.753 299.628 317.008 299.968 316.188C300.308 315.368 300.482 314.489 300.482 313.601V292.19L4.03169e-10 292.19Z" fill="#3F3D56"/>
<path d="M250.014 178.642H116.858C116.018 178.642 115.213 178.309 114.62 177.715C114.026 177.122 113.693 176.317 113.693 175.477C113.693 174.638 114.026 173.833 114.62 173.239C115.213 172.646 116.018 172.312 116.858 172.312H250.014C250.853 172.312 251.658 172.646 252.252 173.239C252.846 173.833 253.179 174.638 253.179 175.477C253.179 176.317 252.846 177.122 252.252 177.715C251.658 178.309 250.853 178.642 250.014 178.642Z" fill="#E6E6E6"/>
<path d="M205.335 192.93H161.536C160.697 192.93 159.892 192.597 159.298 192.003C158.705 191.409 158.371 190.604 158.371 189.765C158.371 188.925 158.705 188.12 159.298 187.527C159.892 186.933 160.697 186.6 161.536 186.6H205.335C206.175 186.6 206.98 186.933 207.573 187.527C208.167 188.12 208.5 188.925 208.5 189.765C208.5 190.604 208.167 191.409 207.573 192.003C206.98 192.597 206.175 192.93 205.335 192.93Z" fill="#E6E6E6"/>
<path d="M205.335 221.911H161.536C160.697 221.911 159.892 221.578 159.298 220.984C158.705 220.391 158.371 219.586 158.371 218.746C158.371 217.907 158.705 217.102 159.298 216.508C159.892 215.915 160.697 215.581 161.536 215.581H205.335C206.175 215.581 206.98 215.915 207.573 216.508C208.167 217.102 208.5 217.907 208.5 218.746C208.5 219.586 208.167 220.391 207.573 220.984C206.98 221.578 206.175 221.911 205.335 221.911Z" fill="#E6E6E6"/>
<path d="M205.335 236.756H161.536C161.121 236.756 160.709 236.674 160.325 236.515C159.941 236.356 159.592 236.123 159.298 235.829C159.004 235.535 158.771 235.186 158.612 234.802C158.453 234.418 158.371 234.006 158.371 233.591C158.371 233.175 158.453 232.763 158.612 232.379C158.771 231.995 159.004 231.646 159.298 231.353C159.592 231.059 159.941 230.826 160.325 230.666C160.709 230.507 161.121 230.426 161.536 230.426H205.335C205.751 230.426 206.162 230.507 206.546 230.666C206.93 230.826 207.279 231.059 207.573 231.353C207.867 231.646 208.1 231.995 208.259 232.379C208.418 232.763 208.5 233.175 208.5 233.591C208.5 234.006 208.418 234.418 208.259 234.802C208.1 235.186 207.867 235.535 207.573 235.829C207.279 236.123 206.93 236.356 206.546 236.515C206.162 236.674 205.751 236.756 205.335 236.756Z" fill="#E6E6E6"/>
<path d="M229.899 207.218H136.973C136.133 207.218 135.328 206.884 134.735 206.291C134.141 205.697 133.807 204.892 133.807 204.052C133.807 203.213 134.141 202.408 134.735 201.814C135.328 201.221 136.133 200.887 136.973 200.887H229.899C230.738 200.887 231.543 201.221 232.137 201.814C232.731 202.408 233.064 203.213 233.064 204.052C233.064 204.892 232.731 205.697 232.137 206.291C231.543 206.884 230.738 207.218 229.899 207.218Z" fill="#E6E6E6"/>
<path d="M247.797 267.148H231.894C230.466 267.148 229.097 266.581 228.088 265.572C227.079 264.562 226.512 263.193 226.512 261.766C226.512 260.339 227.079 258.97 228.088 257.96C229.097 256.951 230.466 256.384 231.894 256.384H247.797C249.224 256.384 250.593 256.951 251.603 257.96C252.612 258.97 253.179 260.339 253.179 261.766C253.179 263.193 252.612 264.562 251.603 265.572C250.593 266.581 249.224 267.148 247.797 267.148Z" fill="#1E6BDD"/>
<path d="M74.9861 228.085C90.2748 228.085 102.669 215.691 102.669 200.402C102.669 185.113 90.2748 172.719 74.9861 172.719C59.6973 172.719 47.3033 185.113 47.3033 200.402C47.3033 215.691 59.6973 228.085 74.9861 228.085Z" fill="#1E6BDD"/>
<path d="M398.929 368.453H0.732493C0.538596 368.452 0.352837 368.375 0.215929 368.237C0.0790219 368.1 0.00213623 367.914 0.00213623 367.72C0.00213623 367.526 0.0790219 367.34 0.215929 367.203C0.352837 367.066 0.538596 366.988 0.732493 366.988H398.929C399.123 366.988 399.309 367.066 399.446 367.203C399.583 367.34 399.66 367.526 399.66 367.72C399.66 367.914 399.583 368.1 399.446 368.237C399.309 368.375 399.123 368.452 398.929 368.453Z" fill="#CACACA"/>
<path d="M149.98 121.865C150.557 121.865 151.024 121.398 151.024 120.821C151.024 120.245 150.557 119.778 149.98 119.778C149.404 119.778 148.937 120.245 148.937 120.821C148.937 121.398 149.404 121.865 149.98 121.865Z" fill="white"/>
</g>
<defs>
<clipPath id="clip0_277_155">
<rect width="448" height="368.453" fill="white"/>
</clipPath>
</defs>
</svg>
